<svg xmlns="http://www.w3.org/2000/svg" viewBox="0 0 553.229 427.849" height="456.37" width="590.113"><defs><filter height="1.083" y="-.042" width="1.063" x="-.032" id="a" color-interpolation-filters="sRGB"><feGaussianBlur stdDeviation="6.827"/></filter></defs><g transform="translate(-858.04 -752.756) scale(3.60088)" filter="url(#a)" opacity=".5"><path d="M290.72 261.961a2.147 2.147 0 100-4.293 2.147 2.147 0 000 4.293M282.192 261.961a2.147 2.147 0 100-4.293 2.147 2.147 0 000 4.293M299.249 261.961a2.147 2.147 0 100-4.293 2.147 2.147 0 000 4.293M307.777 261.961a2.146 2.146 0 100-4.294 2.146 2.146 0 100 4.294M290.72 247.413a2.147 2.147 0 100-4.293 2.147 2.147 0 000 4.293M282.192 247.413a2.147 2.147 0 100-4.293 2.147 2.147 0 000 4.293M299.249 247.413a2.147 2.147 0 100-4.293 2.147 2.147 0 000 4.293M307.777 247.413a2.146 2.146 0 100-4.294 2.146 2.146 0 100 4.294M273.221 247.413a2.146 2.146 0 100-4.294 2.146 2.146 0 100 4.294M294.985 254.706a2.147 2.147 0 100-4.293 2.147 2.147 0 000 4.293M286.235 254.706a2.147 2.147 0 100-4.293 2.147 2.147 0 000 4.293M303.735 254.706a2.146 2.146 0 100-4.294 2.146 2.146 0 100 4.294M277.485 254.706a2.147 2.147 0 100-4.293 2.147 2.147 0 000 4.293M290.72 276.474a2.147 2.147 0 100-4.293 2.147 2.147 0 000 4.293M282.192 276.474a2.147 2.147 0 100-4.293 2.147 2.147 0 000 4.293M299.249 272.18a2.147 2.147 0 100 4.294 2.147 2.147 0 000-4.294M307.777 272.18a2.146 2.146 0 100 4.292 2.146 2.146 0 000-4.292M297.131 267.071a2.147 2.147 0 10-4.293 0 2.147 2.147 0 004.293 0M286.235 264.924a2.147 2.147 0 100 4.293 2.147 2.147 0 000-4.293M303.735 269.218a2.146 2.146 0 100-4.292 2.146 2.146 0 000 4.292M277.485 269.218a2.147 2.147 0 10-.001-4.294 2.147 2.147 0 00.001 4.294M290.72 290.985a2.147 2.147 0 10-.001-4.294 2.147 2.147 0 00.001 4.294M282.192 290.985a2.147 2.147 0 10-.001-4.294 2.147 2.147 0 00.001 4.294M299.249 286.691a2.147 2.147 0 10-.001 4.294 2.147 2.147 0 00.001-4.294M307.777 286.691a2.146 2.146 0 100 4.294 2.146 2.146 0 100-4.294M294.985 283.729a2.147 2.147 0 100-4.293 2.147 2.147 0 000 4.293M286.235 279.436a2.147 2.147 0 100 4.293 2.147 2.147 0 000-4.293M303.735 283.729a2.146 2.146 0 100-4.294 2.146 2.146 0 100 4.294M277.485 283.729a2.147 2.147 0 100-4.293 2.147 2.147 0 000 4.293M290.72 305.496a2.147 2.147 0 100-4.293 2.147 2.147 0 000 4.293M299.249 301.203a2.147 2.147 0 10-.001 4.294 2.147 2.147 0 00.001-4.294M307.777 301.203a2.146 2.146 0 100 4.294 2.146 2.146 0 100-4.294M294.985 293.948a2.146 2.146 0 100 4.292 2.146 2.146 0 000-4.292M286.235 293.948a2.147 2.147 0 10.001 4.294 2.147 2.147 0 00-.001-4.294M303.735 298.241a2.146 2.146 0 100-4.294 2.146 2.146 0 100 4.294M303.735 312.753a2.146 2.146 0 100-4.292 2.146 2.146 0 000 4.292"/><path d="M273.406 261.945a2.14 2.14 0 001.976-2.13 2.14 2.14 0 00-1.976-2.129v-17.59h38.697v78.335c-3.202-.905-8.856-2.854-14.876-6.536.275-.36.448-.801.448-1.289a2.147 2.147 0 00-2.146-2.147c-.795 0-1.468.445-1.84 1.086-8.887-6.41-17.657-16.829-19.783-33.426.59-.383.989-1.036.989-1.791 0-.907-.561-1.677-1.355-1.993a63.983 63.983 0 01-.134-4.032v-6.358zm81.815-21.849v28.206c0 3.688-.321 7.098-.877 10.283h-37.82v-38.489h38.697zm-5.044 46.269c0-1.421.246-2.484.579-3.339 0-.012 0-.012.013-.02h2.62a48.39 48.39 0 01-2.47 7.079c-.41-.917-.74-2.08-.74-3.72m-2.436 9.691a46.712 46.712 0 01-6.457 8.084 10.09 10.09 0 01-.184-1.954c0-2.62.837-4.023 1.51-5.15.531-.89.853-1.427.853-2.763 0-1.335-.321-1.873-.853-2.762-.672-1.126-1.51-2.529-1.51-5.146 0-1.394.237-2.442.559-3.289l.033-.07h4.598c-.337.859-.588 1.925-.588 3.359 0 2.617.837 4.02 1.51 5.146.53.889.852 1.426.852 2.761 0 .8-.116 1.31-.322 1.784m-9.608.98c-.674 1.127-1.51 2.53-1.51 5.15 0 2.475.745 3.862 1.395 4.958a53.522 53.522 0 01-3.149 2.451c-.067.049-.142.086-.201.146-.103.074-.205.139-.307.212-.025-1.224-.338-1.76-.85-2.615-.672-1.127-1.508-2.532-1.508-5.152s.836-4.023 1.51-5.15c.531-.89.852-1.427.852-2.763 0-1.335-.32-1.873-.852-2.762-.673-1.126-1.51-2.529-1.51-5.146 0-1.434.251-2.5.589-3.359h4.618c-.335.858-.583 1.924-.583 3.353 0 2.617.837 4.02 1.51 5.146.531.889.852 1.426.852 2.761 0 1.337-.321 1.874-.852 2.764m-9.098 10.301c.533.892.854 1.429.854 2.769 0 1.338-.321 1.876-.853 2.766-.107.182-.22.374-.332.573a61.744 61.744 0 01-5.516 2.64c.281-1.443.843-2.403 1.327-3.213.533-.89.853-1.428.853-2.766 0-1.34-.32-1.877-.853-2.769-.672-1.126-1.51-2.531-1.51-5.151 0-2.62.838-4.024 1.51-5.15.533-.89.853-1.427.853-2.764 0-1.335-.32-1.872-.852-2.761-.673-1.126-1.51-2.529-1.51-5.146 0-1.434.25-2.5.588-3.359h4.52c-.338.858-.588 1.926-.588 3.359 0 2.617.838 4.02 1.51 5.146.532.889.853 1.426.853 2.761 0 1.337-.321 1.874-.853 2.764-.673 1.126-1.51 2.53-1.51 5.15 0 2.62.837 4.025 1.51 5.151m-8.997 0c.532.892.852 1.429.852 2.769 0 1.338-.32 1.876-.852 2.766-.654 1.097-1.458 2.463-1.501 4.947-.749.243-1.422.445-2.015.612V283h2.597c-.339.859-.591 1.924-.591 3.359 0 2.617.837 4.02 1.511 5.146.531.889.851 1.426.851 2.761 0 1.337-.32 1.874-.852 2.764-.673 1.126-1.51 2.53-1.51 5.15 0 2.62.837 4.025 1.51 5.151m-51.324-39.028c0 46.055 44.691 55.3 45.143 55.387l.448.089.45-.089c.45-.087 45.142-9.332 45.142-55.387v-32.89h-91.183v32.89zM381.277 292.064c.026.011.041.019.043.022l-.042-.082c.004.007.003.029-.001.06M375.645 292.125c-1.13.575-1.935 1.54-2.478 2.435.09-1.042.004-2.296-.572-3.426-1.191-2.336-4.115-3.268-4.521-3.358-.219.409-1.118 3.289.072 5.625.985 1.933 3.15 2.901 4.101 3.23l.033.063c-.004-.006-.004-.026 0-.051.073.025.136.046.191.062.055.02.119.04.193.063a.135.135 0 01-.03.04l.062-.03c.963.292 3.284.78 5.216-.204 2.337-1.191 3.302-4.05 3.364-4.509-.381-.166-3.295-1.131-5.631.06M379.477 278.74c-1.069.681-1.779 1.718-2.232 2.661-.013-1.046-.218-2.286-.9-3.355-1.408-2.212-4.407-2.86-4.82-2.91-.18.428-.8 3.38.61 5.593 1.166 1.828 3.413 2.586 4.392 2.822l.037.059a.144.144 0 01-.005-.051c.074.017.14.032.197.043.057.014.122.03.197.044a.142.142 0 01-.025.045l.059-.037c.987.198 3.344.462 5.172-.703 2.213-1.409 2.9-4.347 2.918-4.81-.396-.13-3.387-.81-5.6.599M385.079 278.141a.203.203 0 01.045.018l-.05-.078c.005.007.006.029.005.06M368.026 287.769a.185.185 0 01.048.007c.015-.028.027-.045.035-.048l-.083.041z"/><path d="M371.477 275.134a.173.173 0 01.048.003c.012-.03.022-.048.03-.053l-.078.05zM381.453 266.166c-.991.79-1.586 1.897-1.938 2.883-.122-1.04-.458-2.25-1.248-3.24-1.636-2.05-4.688-2.376-5.104-2.383-.133.445-.435 3.446 1.201 5.496 1.353 1.695 3.668 2.21 4.667 2.341l.042.054a.156.156 0 01-.01-.05c.076.01.144.018.201.023.059.008.125.016.2.022a.15.15 0 01-.02.048l.054-.044c1.004.092 3.374.105 5.07-1.248 2.049-1.636 2.42-4.63 2.39-5.092-.408-.086-3.455-.446-5.505 1.19"/><path d="M386.946 264.918a.153.153 0 01.011.059c.028.006.044.01.047.012l-.058-.071zM373.114 263.43c.003-.003.02-.003.048-.003.01-.03.017-.05.025-.055l-.073.058zM386.586 250.575c.006.006.013.026.018.057a.159.159 0 01.047.008l-.065-.065zM374.529 255.96c1.534 1.534 3.891 1.786 4.899 1.805l.049.05a.148.148 0 01-.015-.049h.403a.14.14 0 01-.016.049l.05-.05c1.006-.019 3.364-.271 4.897-1.805 1.855-1.855 1.89-4.871 1.808-5.328-.415-.04-3.483-.057-5.338 1.797-.896.896-1.365 2.062-1.603 3.082-.239-1.02-.706-2.186-1.603-3.082-1.855-1.854-4.924-1.837-5.339-1.797-.08.457-.047 3.473 1.808 5.328"/><path d="M372.739 250.575l-.065.065a.159.159 0 01.048-.007c.005-.032.01-.052.017-.058M248.89 292.086a.163.163 0 01.043-.022c-.004-.032-.006-.053-.002-.06l-.041.082zM245.087 278.159a.203.203 0 01.045-.018c-.001-.032 0-.052.005-.06l-.05.078zM253.222 283.654l.059.037c-.006-.003-.015-.02-.026-.043.075-.016.14-.03.197-.044.058-.012.122-.026.198-.044a.14.14 0 01-.006.05l.038-.058c.979-.237 3.226-.994 4.391-2.823 1.409-2.212.79-5.165.611-5.592-.413.05-3.413.697-4.822 2.91-.681 1.068-.886 2.308-.898 3.355-.453-.943-1.163-1.98-2.232-2.662-2.213-1.408-5.204-.727-5.601-.598.02.462.706 3.4 2.918 4.81 1.83 1.165 4.185.9 5.173.702M262.101 287.728c.007.004.02.021.035.049a.178.178 0 01.048-.008l-.083-.041z"/><path d="M257.614 291.134c-.575 1.129-.661 2.382-.573 3.426-.542-.896-1.348-1.86-2.477-2.435-2.336-1.191-5.25-.227-5.631-.061.062.46 1.027 3.317 3.364 4.509 1.932.985 4.253.497 5.217.204l.061.032a.148.148 0 01-.03-.042 4.1 4.1 0 00.193-.062c.055-.017.119-.037.191-.062a.142.142 0 01.001.051l.032-.062c.95-.33 3.116-1.298 4.1-3.23 1.192-2.338.292-5.217.073-5.627-.407.092-3.33 1.023-4.521 3.359M258.655 275.084c.007.005.018.022.03.053.027-.004.045-.005.047-.003l-.077-.05zM243.206 264.989a.16.16 0 01.046-.013c.003-.032.006-.052.011-.058l-.057.071z"/><path d="M250.711 271.316l.055.044c-.006-.005-.014-.023-.021-.048a33.902 33.902 0 00.401-.044.14.14 0 01-.01.05l.044-.055c.997-.13 3.312-.645 4.666-2.34 1.635-2.05 1.332-5.052 1.201-5.497-.417.008-3.469.333-5.104 2.383-.79.99-1.126 2.2-1.25 3.24-.35-.986-.946-2.092-1.937-2.883-2.05-1.636-5.096-1.276-5.505-1.19-.03.462.341 3.456 2.391 5.092 1.695 1.353 4.066 1.342 5.069 1.248M257.024 263.371c.006.005.015.025.024.055a.18.18 0 01.049.003l-.073-.058zM243.624 250.575l-.065.065a.159.159 0 01.048-.007c.005-.032.01-.052.017-.058"/><path d="M245.414 255.96c1.534 1.534 3.891 1.786 4.899 1.805l.049.05a.148.148 0 01-.015-.049h.403a.174.174 0 01-.016.049l.05-.05c1.006-.019 3.364-.271 4.897-1.805 1.855-1.855 1.89-4.871 1.808-5.328-.415-.04-3.484-.057-5.338 1.797-.896.896-1.365 2.062-1.603 3.082-.239-1.02-.708-2.186-1.604-3.082-1.854-1.854-4.922-1.837-5.337-1.797-.082.457-.048 3.473 1.807 5.328"/><path d="M257.471 250.575c.006.006.013.026.018.057a.159.159 0 01.047.008l-.065-.065zM316.208 224.985v-5.806c4.859-.059 20.261 1.099 28.83 5.806h-28.83zm37.699-.092c-13.931-9.91-38.896-10.135-40.008-10.088l-2.111.095v10.085h-43.05v4.421h90.431c-2.117-2.445-5.262-4.514-5.262-4.514"/><g style="-inkscape-font-specification:Nanami-Bold" font-weight="700" font-size="19.219" font-family="Nanami"><path style="-inkscape-font-specification:'Nanami Bold'" d="M323.567 266.232v-14.376h8.108v3.096h-5.011v2.515h5.011v3.097h-5.011v5.668h-3.097zM345.798 266.232h-2.496l-1.652-8.051-2.055 8.051h-2.458l-3.867-14.376h3.247l1.849 7.319 1.896-7.319h2.468l1.839 7.301 1.849-7.301h3.265l-3.885 14.376z"/></g></g><g fill="#fff"><g style="-inkscape-font-specification:Nanami-Bold" font-weight="700" font-size="19.219" font-family="Nanami"><path d="M307.086 202.913v-51.766h29.196v11.149h-18.044v9.056h18.044v11.152h-18.044v20.41h-11.152zM387.137 202.913h-8.988l-5.948-28.99-7.4 28.99h-8.851l-13.925-51.766h11.692l6.658 26.355 6.828-26.355h8.887l6.622 26.29 6.658-26.29h11.757l-13.99 51.766z" style="-inkscape-font-specification:'Nanami Bold'"/></g><path d="M188.808 187.534a7.73 7.73 0 000-15.461 7.73 7.73 0 000 15.461M158.1 187.534a7.73 7.73 0 000-15.461 7.73 7.73 0 000 15.461M219.52 187.534a7.73 7.73 0 10-.005-15.46 7.73 7.73 0 00.005 15.46M250.228 187.534a7.727 7.727 0 007.728-7.728 7.728 7.728 0 10-15.456 0 7.727 7.727 0 007.728 7.728M188.808 135.149a7.73 7.73 0 000-15.461 7.73 7.73 0 000 15.46M158.1 135.149a7.73 7.73 0 000-15.461 7.73 7.73 0 000 15.46M219.52 135.149a7.73 7.73 0 10-.005-15.46 7.73 7.73 0 00.005 15.46M250.228 135.149a7.727 7.727 0 007.728-7.729 7.728 7.728 0 10-15.456 0 7.727 7.727 0 007.728 7.729M125.796 135.149a7.727 7.727 0 007.728-7.729 7.728 7.728 0 10-15.456 0 7.727 7.727 0 007.728 7.729M204.166 161.41a7.73 7.73 0 000-15.461 7.728 7.728 0 00-7.729 7.732 7.727 7.727 0 007.729 7.729M172.658 161.41a7.73 7.73 0 000-15.461 7.73 7.73 0 000 15.46M235.673 161.41a7.727 7.727 0 007.729-7.729 7.728 7.728 0 10-15.457 0 7.727 7.727 0 007.728 7.729M141.15 161.41a7.73 7.73 0 000-15.461 7.73 7.73 0 000 15.46M188.808 239.794a7.73 7.73 0 000-15.461 7.73 7.73 0 000 15.46M158.1 239.794a7.73 7.73 0 000-15.461 7.73 7.73 0 000 15.46M219.52 224.332a7.732 7.732 0 100 15.46 7.73 7.73 0 000-15.461M250.228 224.332a7.728 7.728 0 00-7.728 7.732 7.727 7.727 0 007.728 7.729 7.727 7.727 0 007.728-7.729 7.728 7.728 0 00-7.728-7.732M211.893 205.935a7.73 7.73 0 10-15.46.005 7.73 7.73 0 0015.46-.005M172.658 198.204a7.73 7.73 0 000 15.461 7.73 7.73 0 000-15.461M235.673 213.666a7.728 7.728 0 007.729-7.733 7.727 7.727 0 00-7.729-7.729 7.727 7.727 0 00-7.728 7.729 7.728 7.728 0 007.728 7.733M141.15 213.666a7.73 7.73 0 000-15.462 7.73 7.73 0 000 15.461M188.808 292.046a7.73 7.73 0 000-15.461 7.73 7.73 0 000 15.461M158.1 292.046a7.73 7.73 0 000-15.461 7.73 7.73 0 000 15.461M219.52 276.584a7.73 7.73 0 10-.004 15.462 7.73 7.73 0 00.004-15.462M250.228 276.584a7.727 7.727 0 00-7.728 7.728 7.728 7.728 0 1015.456 0 7.727 7.727 0 00-7.728-7.728M204.166 265.918a7.73 7.73 0 000-15.461 7.728 7.728 0 00-7.729 7.733 7.727 7.727 0 007.729 7.728M172.658 250.46a7.73 7.73 0 000 15.461 7.73 7.73 0 000-15.461M235.673 265.918a7.727 7.727 0 007.729-7.728 7.728 7.728 0 10-15.457 0 7.727 7.727 0 007.728 7.728M141.15 265.918a7.73 7.73 0 000-15.461 7.73 7.73 0 000 15.461M188.808 344.298a7.73 7.73 0 000-15.461 7.73 7.73 0 000 15.461M219.52 328.84a7.73 7.73 0 10-.004 15.462 7.73 7.73 0 00.004-15.462M250.228 328.84a7.727 7.727 0 00-7.728 7.728 7.728 7.728 0 1015.456 0 7.727 7.727 0 00-7.728-7.728M204.166 302.715a7.728 7.728 0 00-7.729 7.733 7.727 7.727 0 007.729 7.729 7.73 7.73 0 000-15.461M172.658 302.715a7.73 7.73 0 000 15.462 7.73 7.73 0 000-15.461M235.673 318.174a7.727 7.727 0 007.729-7.728 7.728 7.728 0 10-15.457 0 7.727 7.727 0 007.728 7.728M235.673 370.43a7.728 7.728 0 007.729-7.733 7.727 7.727 0 00-7.729-7.728 7.727 7.727 0 00-7.728 7.728 7.728 7.728 0 007.728 7.733"/><path d="M126.462 187.477c3.975-.32 7.116-3.61 7.116-7.67 0-4.056-3.141-7.346-7.116-7.666v-63.34h139.345v282.076c-11.532-3.26-31.89-10.276-53.567-23.537.99-1.296 1.611-2.885 1.611-4.64a7.73 7.73 0 00-7.728-7.733c-2.863 0-5.285 1.602-6.621 3.911-32.003-23.081-63.583-60.598-71.24-120.364 2.125-1.377 3.561-3.73 3.561-6.45 0-3.263-2.021-6.036-4.88-7.174a230.394 230.394 0 01-.48-14.52v-22.893zm294.606-78.675v101.567c0 13.278-1.157 25.557-3.16 37.026H281.723V108.802h139.345zM402.906 275.41c0-5.118.887-8.944 2.084-12.022 0-.045 0-.045.045-.072h9.44c-2.418 9.087-5.411 17.58-8.895 25.49-1.481-3.305-2.665-7.49-2.665-13.396m-8.772 34.897c-6.964 11.05-14.868 20.696-23.253 29.109a36.333 36.333 0 01-.662-7.036c0-9.434 3.012-14.489 5.438-18.544 1.913-3.205 3.07-5.14 3.07-9.952 0-4.807-1.157-6.743-3.07-9.943-2.422-4.055-5.438-9.106-5.438-18.531 0-5.019.851-8.795 2.012-11.842.045-.095.081-.162.117-.252h16.56c-1.215 3.092-2.12 6.931-2.12 12.094 0 9.425 3.016 14.476 5.437 18.531 1.913 3.2 3.07 5.136 3.07 9.943 0 2.876-.419 4.717-1.161 6.423m-34.596 3.529c-2.426 4.055-5.437 9.11-5.437 18.544 0 8.913 2.682 13.904 5.023 17.852a192.727 192.727 0 01-11.338 8.826c-.243.176-.513.311-.725.527-.369.266-.738.5-1.107.76-.09-4.406-1.215-6.337-3.056-9.416-2.422-4.055-5.433-9.114-5.433-18.549 0-9.434 3.011-14.489 5.437-18.544 1.913-3.205 3.07-5.14 3.07-9.952 0-4.807-1.157-6.743-3.07-9.943-2.421-4.055-5.437-9.106-5.437-18.531 0-5.163.904-9.002 2.12-12.094h16.631c-.004 0 0 0 0 0-1.206 3.087-2.102 6.927-2.102 12.071 0 9.426 3.016 14.476 5.438 18.532 1.913 3.2 3.07 5.135 3.07 9.942 0 4.812-1.157 6.748-3.07 9.952m-32.76 37.094c1.918 3.21 3.075 5.145 3.075 9.97 0 4.816-1.157 6.756-3.07 9.96-.387.653-.792 1.347-1.197 2.062a222.332 222.332 0 01-19.863 9.507c1.012-5.195 3.038-8.651 4.78-11.568 1.917-3.205 3.07-5.145 3.07-9.961 0-4.825-1.153-6.76-3.07-9.97-2.422-4.056-5.438-9.115-5.438-18.55 0-9.433 3.016-14.488 5.438-18.544 1.917-3.204 3.07-5.14 3.07-9.952 0-4.807-1.153-6.742-3.066-9.942-2.426-4.056-5.442-9.106-5.442-18.532 0-5.162.905-9.002 2.12-12.094h16.276c-1.215 3.088-2.115 6.936-2.115 12.094 0 9.426 3.016 14.476 5.437 18.532 1.913 3.2 3.07 5.135 3.07 9.942 0 4.812-1.157 6.748-3.07 9.952-2.426 4.056-5.437 9.11-5.437 18.545 0 9.434 3.011 14.493 5.433 18.549m-32.395 0c1.918 3.21 3.07 5.145 3.07 9.97 0 4.816-1.152 6.756-3.07 9.96-2.354 3.948-5.248 8.868-5.406 17.812a190.3 190.3 0 01-7.255 2.205V263.293h9.353c-1.22 3.092-2.13 6.927-2.13 12.094 0 9.426 3.017 14.476 5.443 18.532 1.913 3.2 3.065 5.135 3.065 9.942 0 4.812-1.152 6.748-3.07 9.952-2.421 4.056-5.437 9.11-5.437 18.545 0 9.434 3.016 14.493 5.437 18.549m-184.81-140.538c0 165.839 160.927 199.129 162.552 199.444l1.616.32 1.616-.32c1.625-.315 162.553-33.605 162.553-199.444V91.936H109.597V210.37zM514.893 295.931c.094.04.148.068.153.081l-.149-.297c.014.027.01.104-.004.216M494.613 296.151c-4.07 2.07-6.968 5.545-8.922 8.768.32-3.754.014-8.268-2.061-12.337-4.29-8.413-14.818-11.766-16.28-12.09-.788 1.472-4.025 11.842.26 20.255 3.547 6.958 11.343 10.447 14.769 11.63l.117.226c-.014-.023-.014-.095 0-.185.26.09.49.167.688.225.198.072.428.144.693.225a.487.487 0 01-.108.149l.225-.113c3.466 1.053 11.825 2.813 18.784-.734 8.412-4.29 11.887-14.583 12.112-16.235-1.373-.599-11.865-4.073-20.277.216M508.411 247.953c-3.848 2.453-6.405 6.185-8.039 9.583-.045-3.767-.783-8.232-3.236-12.08-5.073-7.968-15.871-10.3-17.36-10.48-.645 1.54-2.877 12.172 2.2 20.139 4.195 6.585 12.288 9.312 15.813 10.163l.135.212a.52.52 0 01-.018-.185c.265.063.504.117.706.158.207.05.441.103.711.157a.512.512 0 01-.09.162l.212-.135c3.556.716 12.04 1.666 18.626-2.53 7.966-5.072 10.438-15.654 10.505-17.32-1.427-.468-12.198-2.916-20.165 2.156M528.583 245.796a.731.731 0 01.162.063l-.18-.279c.018.027.023.104.018.216M467.177 280.466a.666.666 0 01.172.027c.054-.104.099-.162.126-.176l-.298.149z"/><path d="M479.604 234.969a.625.625 0 01.171.009c.045-.104.081-.172.108-.19l-.279.18zM515.526 202.676c-3.569 2.845-5.711 6.832-6.976 10.38-.441-3.741-1.652-8.103-4.497-11.667-5.892-7.382-16.879-8.553-18.378-8.58-.477 1.603-1.566 12.41 4.326 19.792 4.87 6.103 13.206 7.958 16.802 8.43l.153.194a.561.561 0 01-.036-.18c.275.036.518.063.725.08.212.032.45.06.72.082a.542.542 0 01-.072.17l.194-.157c3.614.333 12.148.378 18.256-4.492 7.378-5.892 8.714-16.672 8.606-18.337-1.467-.31-12.44-1.607-19.823 4.285"/><path d="M535.306 198.182c.018.022.032.099.04.211a.805.805 0 01.167.045l-.207-.256zM485.499 192.824c.009-.01.072-.01.17-.01.037-.107.064-.18.09-.197l-.26.207zM534.01 146.535c.022.022.045.094.063.207a.571.571 0 01.17.027l-.233-.234z"/><path d="M490.594 165.925c5.523 5.523 14.012 6.432 17.64 6.5l.175.18a.531.531 0 01-.054-.176c.275 0 .513.005.725 0 .212.005.45 0 .73 0a.503.503 0 01-.06.176l.18-.18c3.624-.068 12.113-.977 17.636-6.5 6.68-6.68 6.801-17.54 6.509-19.183-1.495-.144-12.54-.207-19.22 6.468-3.227 3.227-4.915 7.426-5.775 11.1-.86-3.674-2.543-7.873-5.77-11.1-6.68-6.675-17.73-6.612-19.225-6.468-.292 1.642-.17 12.504 6.509 19.183M484.148 146.535l-.234.234a.571.571 0 01.171-.027c.018-.113.04-.185.063-.207M38.183 296.01a.587.587 0 01.153-.08c-.013-.113-.018-.19-.004-.216l-.149.297zM24.489 245.861a.731.731 0 01.162-.063c-.005-.117 0-.189.018-.216l-.18.28z"/><path d="M53.782 265.648l.212.135c-.023-.013-.054-.076-.095-.157.27-.059.509-.109.711-.158.207-.045.441-.095.711-.158 0 .09-.004.158-.018.18l.135-.211c3.525-.85 11.618-3.578 15.813-10.164 5.073-7.967 2.844-18.598 2.2-20.137-1.489.184-12.292 2.511-17.364 10.478-2.454 3.849-3.192 8.314-3.232 12.081-1.634-3.394-4.19-7.13-8.04-9.583-7.966-5.073-18.737-2.62-20.169-2.156.072 1.666 2.544 12.248 10.51 17.32 6.586 4.195 15.07 3.246 18.626 2.53M85.754 280.318c.027.014.072.077.126.176a.642.642 0 01.171-.027l-.297-.149z"/><path d="M69.597 292.583c-2.07 4.064-2.381 8.579-2.061 12.337-1.954-3.227-4.857-6.698-8.922-8.768-8.412-4.29-18.904-.82-20.277-.22.225 1.656 3.7 11.945 12.112 16.235 6.96 3.547 15.318 1.791 18.788.734l.22.117a.531.531 0 01-.107-.153c.265-.077.495-.153.693-.221.198-.063.427-.135.688-.225a.51.51 0 01.005.184l.112-.225c3.426-1.188 11.222-4.672 14.769-11.63 4.29-8.417 1.048-18.783.26-20.26-1.467.329-11.99 3.682-16.28 12.095M73.346 234.788c.027.018.063.081.108.19.099-.014.162-.018.17-.01l-.278-.18zM17.716 198.438a.573.573 0 01.166-.045c.01-.117.023-.19.04-.212l-.206.257z"/><path d="M44.74 221.22l.198.158c-.022-.018-.05-.081-.076-.171.27-.023.513-.05.72-.077l.725-.08a.503.503 0 01-.036.18l.157-.199c3.592-.472 11.928-2.322 16.803-8.43 5.887-7.382 4.798-18.19 4.325-19.792-1.503.027-12.49 1.198-18.378 8.58-2.849 3.564-4.055 7.926-4.5 11.67-1.266-3.55-3.408-7.534-6.977-10.383-7.382-5.892-18.351-4.596-19.823-4.285-.108 1.665 1.228 12.445 8.61 18.337 6.104 4.87 14.642 4.83 18.252 4.492M67.473 192.611c.022.018.054.09.085.198.104 0 .162 0 .176.01l-.261-.208zM19.22 146.535l-.233.234a.571.571 0 01.17-.027c.019-.113.041-.185.064-.207"/><path d="M25.666 165.925c5.523 5.523 14.012 6.432 17.64 6.5l.176.18a.531.531 0 01-.054-.176c.274 0 .513.005.724 0 .212.005.45 0 .73 0a.625.625 0 01-.059.176l.18-.18c3.623-.068 12.113-.977 17.635-6.5 6.68-6.68 6.802-17.54 6.509-19.183-1.494-.144-12.545-.207-19.22 6.468-3.227 3.227-4.915 7.426-5.775 11.1-.86-3.674-2.547-7.873-5.775-11.1-6.675-6.675-17.725-6.612-19.22-6.468-.292 1.642-.17 12.504 6.51 19.183"/><path d="M69.082 146.535c.023.022.045.094.063.207a.571.571 0 01.171.027l-.234-.234zM280.587 54.388V33.48c17.496-.211 72.958 3.957 103.813 20.908H280.587zm135.749-.333C366.17 18.375 276.275 17.56 272.274 17.73l-7.603.342v36.315H109.653v15.92h325.632c-7.624-8.804-18.95-16.253-18.95-16.253"/></g></svg>