<?xml version="1.0" encoding="UTF-8" standalone="no"?>
<svg
   xmlns:dc="http://purl.org/dc/elements/1.1/"
   xmlns:cc="http://creativecommons.org/ns#"
   xmlns:rdf="http://www.w3.org/1999/02/22-rdf-syntax-ns#"
   xmlns:svg="http://www.w3.org/2000/svg"
   xmlns="http://www.w3.org/2000/svg"
   version="1.1"
   id="svg3641"
   viewBox="0 0 553.229 427.849"
   height="120.748mm"
   width="156.134mm">
  <defs
     id="defs3643" />
  <metadata
     id="metadata3646">
    <rdf:RDF>
      <cc:Work
         rdf:about="">
        <dc:format>image/svg+xml</dc:format>
        <dc:type
           rdf:resource="http://purl.org/dc/dcmitype/StillImage" />
        <dc:title></dc:title>
      </cc:Work>
    </rdf:RDF>
  </metadata>
  <g
     transform="translate(178.04,131.563)"
     id="layer1">
    <g
       transform="matrix(3.60088,0,0,3.60088,-1036.08,-887.319)"
       id="text3490"
       style="font-variant:normal;font-weight:bold;font-stretch:normal;font-size:19.218958px;font-family:'Nanami Bold';-inkscape-font-specification:Nanami-Bold;writing-mode:lr-tb;fill:#ffffff;fill-opacity:1;fill-rule:nonzero;stroke:none">
      <path
         id="path3504"
         style="font-style:normal;font-variant:normal;font-weight:bold;font-stretch:normal;font-family:Nanami;-inkscape-font-specification:'Nanami Bold';fill:#ffffff"
         d="m 323.567,266.232 0,-14.376 8.108,0 0,3.096 -5.011,0 0,2.515 5.011,0 0,3.097 -5.011,0 0,5.668 -3.097,0 z" />
      <path
         id="path3506"
         style="font-style:normal;font-variant:normal;font-weight:bold;font-stretch:normal;font-family:Nanami;-inkscape-font-specification:'Nanami Bold';fill:#ffffff"
         d="m 345.798,266.232 -2.496,0 -1.652,-8.051 -2.055,8.051 -2.458,0 -3.867,-14.376 3.247,0 1.849,7.319 1.896,-7.319 2.468,0 1.839,7.301 1.849,-7.301 3.265,0 -3.885,14.376 z" />
    </g>
    <g
       transform="matrix(4.5011,0,0,-4.5011,10.7678,55.9711)"
       id="g3389"
       style="fill:#ffffff">
      <path
         id="path3391"
         style="fill:#ffffff;fill-opacity:1;fill-rule:nonzero;stroke:none"
         d="M 0,0 C 0.948,0 1.717,0.769 1.717,1.717 1.717,2.666 0.948,3.435 0,3.435 -0.948,3.435 -1.717,2.666 -1.717,1.717 -1.717,0.769 -0.948,0 0,0" />
    </g>
    <g
       transform="matrix(4.5011,0,0,-4.5011,-19.9405,55.9711)"
       id="g3393"
       style="fill:#ffffff">
      <path
         id="path3395"
         style="fill:#ffffff;fill-opacity:1;fill-rule:nonzero;stroke:none"
         d="M 0,0 C 0.948,0 1.717,0.769 1.717,1.717 1.717,2.666 0.948,3.435 0,3.435 -0.948,3.435 -1.717,2.666 -1.717,1.717 -1.717,0.769 -0.948,0 0,0" />
    </g>
    <g
       transform="matrix(4.5011,0,0,-4.5011,41.4797,55.9711)"
       id="g3397"
       style="fill:#ffffff">
      <path
         id="path3399"
         style="fill:#ffffff;fill-opacity:1;fill-rule:nonzero;stroke:none"
         d="M 0,0 C 0.948,0 1.717,0.769 1.717,1.717 1.717,2.666 0.948,3.435 0,3.435 -0.949,3.435 -1.718,2.666 -1.718,1.717 -1.718,0.769 -0.949,0 0,0" />
    </g>
    <g
       transform="matrix(4.5011,0,0,-4.5011,72.188,55.9711)"
       id="g3401"
       style="fill:#ffffff">
      <path
         id="path3403"
         style="fill:#ffffff;fill-opacity:1;fill-rule:nonzero;stroke:none"
         d="M 0,0 C 0.949,0 1.717,0.769 1.717,1.717 1.717,2.666 0.949,3.435 0,3.435 -0.949,3.435 -1.717,2.666 -1.717,1.717 -1.717,0.769 -0.949,0 0,0" />
    </g>
    <g
       transform="matrix(4.5011,0,0,-4.5011,10.7678,3.58552)"
       id="g3405"
       style="fill:#ffffff">
      <path
         id="path3407"
         style="fill:#ffffff;fill-opacity:1;fill-rule:nonzero;stroke:none"
         d="M 0,0 C 0.948,0 1.717,0.769 1.717,1.717 1.717,2.666 0.948,3.435 0,3.435 -0.948,3.435 -1.717,2.666 -1.717,1.717 -1.717,0.769 -0.948,0 0,0" />
    </g>
    <g
       transform="matrix(4.5011,0,0,-4.5011,-19.9405,3.58552)"
       id="g3409"
       style="fill:#ffffff">
      <path
         id="path3411"
         style="fill:#ffffff;fill-opacity:1;fill-rule:nonzero;stroke:none"
         d="M 0,0 C 0.948,0 1.717,0.769 1.717,1.717 1.717,2.666 0.948,3.435 0,3.435 -0.948,3.435 -1.717,2.666 -1.717,1.717 -1.717,0.769 -0.948,0 0,0" />
    </g>
    <g
       transform="matrix(4.5011,0,0,-4.5011,41.4797,3.58552)"
       id="g3413"
       style="fill:#ffffff">
      <path
         id="path3415"
         style="fill:#ffffff;fill-opacity:1;fill-rule:nonzero;stroke:none"
         d="M 0,0 C 0.948,0 1.717,0.769 1.717,1.717 1.717,2.666 0.948,3.435 0,3.435 -0.949,3.435 -1.718,2.666 -1.718,1.717 -1.718,0.769 -0.949,0 0,0" />
    </g>
    <g
       transform="matrix(4.5011,0,0,-4.5011,72.188,3.58552)"
       id="g3417"
       style="fill:#ffffff">
      <path
         id="path3419"
         style="fill:#ffffff;fill-opacity:1;fill-rule:nonzero;stroke:none"
         d="M 0,0 C 0.949,0 1.717,0.769 1.717,1.717 1.717,2.666 0.949,3.435 0,3.435 -0.949,3.435 -1.717,2.666 -1.717,1.717 -1.717,0.769 -0.949,0 0,0" />
    </g>
    <g
       transform="matrix(4.5011,0,0,-4.5011,-52.244,3.58552)"
       id="g3421"
       style="fill:#ffffff">
      <path
         id="path3423"
         style="fill:#ffffff;fill-opacity:1;fill-rule:nonzero;stroke:none"
         d="M 0,0 C 0.949,0 1.717,0.769 1.717,1.717 1.717,2.666 0.949,3.435 0,3.435 -0.949,3.435 -1.717,2.666 -1.717,1.717 -1.717,0.769 -0.949,0 0,0" />
    </g>
    <g
       transform="matrix(4.5011,0,0,-4.5011,26.1256,29.8467)"
       id="g3425"
       style="fill:#ffffff">
      <path
         id="path3427"
         style="fill:#ffffff;fill-opacity:1;fill-rule:nonzero;stroke:none"
         d="M 0,0 C 0.948,0 1.717,0.769 1.717,1.717 1.717,2.666 0.948,3.435 0,3.435 -0.949,3.435 -1.717,2.666 -1.717,1.717 -1.717,0.769 -0.949,0 0,0" />
    </g>
    <g
       transform="matrix(4.5011,0,0,-4.5011,-5.38211,29.8467)"
       id="g3429"
       style="fill:#ffffff">
      <path
         id="path3431"
         style="fill:#ffffff;fill-opacity:1;fill-rule:nonzero;stroke:none"
         d="M 0,0 C 0.948,0 1.717,0.769 1.717,1.717 1.717,2.666 0.948,3.435 0,3.435 -0.948,3.435 -1.717,2.666 -1.717,1.717 -1.717,0.769 -0.948,0 0,0" />
    </g>
    <g
       transform="matrix(4.5011,0,0,-4.5011,57.6333,29.8467)"
       id="g3433"
       style="fill:#ffffff">
      <path
         id="path3435"
         style="fill:#ffffff;fill-opacity:1;fill-rule:nonzero;stroke:none"
         d="M 0,0 C 0.949,0 1.717,0.769 1.717,1.717 1.717,2.666 0.949,3.435 0,3.435 -0.949,3.435 -1.717,2.666 -1.717,1.717 -1.717,0.769 -0.949,0 0,0" />
    </g>
    <g
       transform="matrix(4.5011,0,0,-4.5011,-36.8898,29.8467)"
       id="g3437"
       style="fill:#ffffff">
      <path
         id="path3439"
         style="fill:#ffffff;fill-opacity:1;fill-rule:nonzero;stroke:none"
         d="M 0,0 C 0.948,0 1.717,0.769 1.717,1.717 1.717,2.666 0.948,3.435 0,3.435 -0.948,3.435 -1.717,2.666 -1.717,1.717 -1.717,0.769 -0.948,0 0,0" />
    </g>
    <g
       transform="matrix(4.5011,0,0,-4.5011,10.7678,108.231)"
       id="g3441"
       style="fill:#ffffff">
      <path
         id="path3443"
         style="fill:#ffffff;fill-opacity:1;fill-rule:nonzero;stroke:none"
         d="M 0,0 C 0.948,0 1.717,0.769 1.717,1.717 1.717,2.666 0.948,3.435 0,3.435 -0.948,3.435 -1.717,2.666 -1.717,1.717 -1.717,0.769 -0.948,0 0,0" />
    </g>
    <g
       transform="matrix(4.5011,0,0,-4.5011,-19.9405,108.231)"
       id="g3445"
       style="fill:#ffffff">
      <path
         id="path3447"
         style="fill:#ffffff;fill-opacity:1;fill-rule:nonzero;stroke:none"
         d="M 0,0 C 0.948,0 1.717,0.769 1.717,1.717 1.717,2.666 0.948,3.435 0,3.435 -0.948,3.435 -1.717,2.666 -1.717,1.717 -1.717,0.769 -0.948,0 0,0" />
    </g>
    <g
       transform="matrix(4.5011,0,0,-4.5011,41.4797,92.7685)"
       id="g3449"
       style="fill:#ffffff">
      <path
         id="path3451"
         style="fill:#ffffff;fill-opacity:1;fill-rule:nonzero;stroke:none"
         d="m 0,0 c -0.949,0 -1.718,-0.769 -1.718,-1.718 0,-0.948 0.769,-1.717 1.718,-1.717 0.948,0 1.717,0.769 1.717,1.717 C 1.717,-0.769 0.948,0 0,0" />
    </g>
    <g
       transform="matrix(4.5011,0,0,-4.5011,72.188,92.7685)"
       id="g3453"
       style="fill:#ffffff">
      <path
         id="path3455"
         style="fill:#ffffff;fill-opacity:1;fill-rule:nonzero;stroke:none"
         d="m 0,0 c -0.949,0 -1.717,-0.769 -1.717,-1.718 0,-0.948 0.768,-1.717 1.717,-1.717 0.949,0 1.717,0.769 1.717,1.717 C 1.717,-0.769 0.949,0 0,0" />
    </g>
    <g
       transform="matrix(4.5011,0,0,-4.5011,33.8531,74.3716)"
       id="g3457"
       style="fill:#ffffff">
      <path
         id="path3459"
         style="fill:#ffffff;fill-opacity:1;fill-rule:nonzero;stroke:none"
         d="m 0,0 c 0,0.948 -0.769,1.717 -1.717,1.717 -0.949,0 -1.718,-0.769 -1.718,-1.717 0,-0.949 0.769,-1.718 1.718,-1.718 C -0.769,-1.718 0,-0.949 0,0" />
    </g>
    <g
       transform="matrix(4.5011,0,0,-4.5011,-5.38211,66.6405)"
       id="g3461"
       style="fill:#ffffff">
      <path
         id="path3463"
         style="fill:#ffffff;fill-opacity:1;fill-rule:nonzero;stroke:none"
         d="m 0,0 c -0.948,0 -1.717,-0.769 -1.717,-1.717 0,-0.949 0.769,-1.718 1.717,-1.718 0.948,0 1.717,0.769 1.717,1.718 C 1.717,-0.769 0.948,0 0,0" />
    </g>
    <g
       transform="matrix(4.5011,0,0,-4.5011,57.6333,82.1027)"
       id="g3465"
       style="fill:#ffffff">
      <path
         id="path3467"
         style="fill:#ffffff;fill-opacity:1;fill-rule:nonzero;stroke:none"
         d="M 0,0 C 0.949,0 1.717,0.769 1.717,1.718 1.717,2.666 0.949,3.435 0,3.435 -0.949,3.435 -1.717,2.666 -1.717,1.718 -1.717,0.769 -0.949,0 0,0" />
    </g>
    <g
       transform="matrix(4.5011,0,0,-4.5011,-36.8898,82.1027)"
       id="g3469"
       style="fill:#ffffff">
      <path
         id="path3471"
         style="fill:#ffffff;fill-opacity:1;fill-rule:nonzero;stroke:none"
         d="M 0,0 C 0.948,0 1.717,0.769 1.717,1.718 1.717,2.666 0.948,3.435 0,3.435 -0.948,3.435 -1.717,2.666 -1.717,1.718 -1.717,0.769 -0.948,0 0,0" />
    </g>
    <g
       transform="matrix(4.5011,0,0,-4.5011,10.7678,160.483)"
       id="g3473"
       style="fill:#ffffff">
      <path
         id="path3475"
         style="fill:#ffffff;fill-opacity:1;fill-rule:nonzero;stroke:none"
         d="M 0,0 C 0.948,0 1.717,0.769 1.717,1.718 1.717,2.666 0.948,3.435 0,3.435 -0.948,3.435 -1.717,2.666 -1.717,1.718 -1.717,0.769 -0.948,0 0,0" />
    </g>
    <g
       transform="matrix(4.5011,0,0,-4.5011,-19.9405,160.483)"
       id="g3477"
       style="fill:#ffffff">
      <path
         id="path3479"
         style="fill:#ffffff;fill-opacity:1;fill-rule:nonzero;stroke:none"
         d="M 0,0 C 0.948,0 1.717,0.769 1.717,1.718 1.717,2.666 0.948,3.435 0,3.435 -0.948,3.435 -1.717,2.666 -1.717,1.718 -1.717,0.769 -0.948,0 0,0" />
    </g>
    <g
       transform="matrix(4.5011,0,0,-4.5011,41.4797,145.021)"
       id="g3481"
       style="fill:#ffffff">
      <path
         id="path3483"
         style="fill:#ffffff;fill-opacity:1;fill-rule:nonzero;stroke:none"
         d="m 0,0 c -0.949,0 -1.718,-0.769 -1.718,-1.717 0,-0.949 0.769,-1.718 1.718,-1.718 0.948,0 1.717,0.769 1.717,1.718 C 1.717,-0.769 0.948,0 0,0" />
    </g>
    <g
       transform="matrix(4.5011,0,0,-4.5011,72.188,145.021)"
       id="g3485"
       style="fill:#ffffff">
      <path
         id="path3487"
         style="fill:#ffffff;fill-opacity:1;fill-rule:nonzero;stroke:none"
         d="m 0,0 c -0.949,0 -1.717,-0.769 -1.717,-1.717 0,-0.949 0.768,-1.718 1.717,-1.718 0.949,0 1.717,0.769 1.717,1.718 C 1.717,-0.769 0.949,0 0,0" />
    </g>
    <g
       transform="matrix(4.5011,0,0,-4.5011,26.1256,134.355)"
       id="g3489"
       style="fill:#ffffff">
      <path
         id="path3491"
         style="fill:#ffffff;fill-opacity:1;fill-rule:nonzero;stroke:none"
         d="M 0,0 C 0.948,0 1.717,0.769 1.717,1.717 1.717,2.666 0.948,3.435 0,3.435 -0.949,3.435 -1.717,2.666 -1.717,1.717 -1.717,0.769 -0.949,0 0,0" />
    </g>
    <g
       transform="matrix(4.5011,0,0,-4.5011,-5.38211,118.897)"
       id="g3493"
       style="fill:#ffffff">
      <path
         id="path3495"
         style="fill:#ffffff;fill-opacity:1;fill-rule:nonzero;stroke:none"
         d="m 0,0 c -0.948,0 -1.717,-0.769 -1.717,-1.717 0,-0.949 0.769,-1.718 1.717,-1.718 0.948,0 1.717,0.769 1.717,1.718 C 1.717,-0.769 0.948,0 0,0" />
    </g>
    <g
       transform="matrix(4.5011,0,0,-4.5011,57.6333,134.355)"
       id="g3497"
       style="fill:#ffffff">
      <path
         id="path3499"
         style="fill:#ffffff;fill-opacity:1;fill-rule:nonzero;stroke:none"
         d="M 0,0 C 0.949,0 1.717,0.769 1.717,1.717 1.717,2.666 0.949,3.435 0,3.435 -0.949,3.435 -1.717,2.666 -1.717,1.717 -1.717,0.769 -0.949,0 0,0" />
    </g>
    <g
       transform="matrix(4.5011,0,0,-4.5011,-36.8898,134.355)"
       id="g3501"
       style="fill:#ffffff">
      <path
         id="path3503"
         style="fill:#ffffff;fill-opacity:1;fill-rule:nonzero;stroke:none"
         d="M 0,0 C 0.948,0 1.717,0.769 1.717,1.717 1.717,2.666 0.948,3.435 0,3.435 -0.948,3.435 -1.717,2.666 -1.717,1.717 -1.717,0.769 -0.948,0 0,0" />
    </g>
    <g
       transform="matrix(4.5011,0,0,-4.5011,10.7678,212.735)"
       id="g3505"
       style="fill:#ffffff">
      <path
         id="path3507"
         style="fill:#ffffff;fill-opacity:1;fill-rule:nonzero;stroke:none"
         d="M 0,0 C 0.948,0 1.717,0.769 1.717,1.717 1.717,2.666 0.948,3.435 0,3.435 -0.948,3.435 -1.717,2.666 -1.717,1.717 -1.717,0.769 -0.948,0 0,0" />
    </g>
    <g
       transform="matrix(4.5011,0,0,-4.5011,41.4797,197.277)"
       id="g3509"
       style="fill:#ffffff">
      <path
         id="path3511"
         style="fill:#ffffff;fill-opacity:1;fill-rule:nonzero;stroke:none"
         d="m 0,0 c -0.949,0 -1.718,-0.769 -1.718,-1.717 0,-0.949 0.769,-1.718 1.718,-1.718 0.948,0 1.717,0.769 1.717,1.718 C 1.717,-0.769 0.948,0 0,0" />
    </g>
    <g
       transform="matrix(4.5011,0,0,-4.5011,72.188,197.277)"
       id="g3513"
       style="fill:#ffffff">
      <path
         id="path3515"
         style="fill:#ffffff;fill-opacity:1;fill-rule:nonzero;stroke:none"
         d="m 0,0 c -0.949,0 -1.717,-0.769 -1.717,-1.717 0,-0.949 0.768,-1.718 1.717,-1.718 0.949,0 1.717,0.769 1.717,1.718 C 1.717,-0.769 0.949,0 0,0" />
    </g>
    <g
       transform="matrix(4.5011,0,0,-4.5011,26.1256,171.152)"
       id="g3517"
       style="fill:#ffffff">
      <path
         id="path3519"
         style="fill:#ffffff;fill-opacity:1;fill-rule:nonzero;stroke:none"
         d="m 0,0 c -0.949,0 -1.717,-0.769 -1.717,-1.718 0,-0.948 0.768,-1.717 1.717,-1.717 0.948,0 1.717,0.769 1.717,1.717 C 1.717,-0.769 0.948,0 0,0" />
    </g>
    <g
       transform="matrix(4.5011,0,0,-4.5011,-5.38211,171.152)"
       id="g3521"
       style="fill:#ffffff">
      <path
         id="path3523"
         style="fill:#ffffff;fill-opacity:1;fill-rule:nonzero;stroke:none"
         d="m 0,0 c -0.948,0 -1.717,-0.769 -1.717,-1.718 0,-0.948 0.769,-1.717 1.717,-1.717 0.948,0 1.717,0.769 1.717,1.717 C 1.717,-0.769 0.948,0 0,0" />
    </g>
    <g
       transform="matrix(4.5011,0,0,-4.5011,57.6333,186.611)"
       id="g3525"
       style="fill:#ffffff">
      <path
         id="path3527"
         style="fill:#ffffff;fill-opacity:1;fill-rule:nonzero;stroke:none"
         d="M 0,0 C 0.949,0 1.717,0.769 1.717,1.717 1.717,2.666 0.949,3.435 0,3.435 -0.949,3.435 -1.717,2.666 -1.717,1.717 -1.717,0.769 -0.949,0 0,0" />
    </g>
    <g
       transform="matrix(4.5011,0,0,-4.5011,57.6333,238.867)"
       id="g3529"
       style="fill:#ffffff">
      <path
         id="path3531"
         style="fill:#ffffff;fill-opacity:1;fill-rule:nonzero;stroke:none"
         d="M 0,0 C 0.949,0 1.717,0.769 1.717,1.718 1.717,2.666 0.949,3.435 0,3.435 -0.949,3.435 -1.717,2.666 -1.717,1.718 -1.717,0.769 -0.949,0 0,0" />
    </g>
    <g
       transform="matrix(4.5011,0,0,-4.5011,-51.5778,55.9135)"
       id="g3533"
       style="fill:#ffffff">
      <path
         id="path3535"
         style="fill:#ffffff;fill-opacity:1;fill-rule:nonzero;stroke:none"
         d="M 0,0 C 0.883,0.071 1.581,0.802 1.581,1.704 1.581,2.605 0.883,3.336 0,3.407 l 0,14.072 30.958,0 0,-62.668 c -2.562,0.724 -7.085,2.283 -11.901,5.229 0.22,0.288 0.358,0.641 0.358,1.031 0,0.949 -0.769,1.718 -1.717,1.718 -0.636,0 -1.174,-0.356 -1.471,-0.869 -7.11,5.128 -14.126,13.463 -15.827,26.741 0.472,0.306 0.791,0.829 0.791,1.433 0,0.725 -0.449,1.341 -1.084,1.594 C 0.041,-7.263 0,-6.192 0,-5.086 L 0,0 Z m 65.452,17.479 0,-22.565 c 0,-2.95 -0.257,-5.678 -0.702,-8.226 l -30.256,0 0,30.791 30.958,0 z m -4.035,-37.015 c 0,1.137 0.197,1.987 0.463,2.671 0,0.01 0,0.01 0.01,0.016 l 2.097,0 c -0.537,-2.019 -1.202,-3.906 -1.976,-5.663 -0.329,0.734 -0.592,1.664 -0.592,2.976 m -1.949,-7.753 c -1.547,-2.455 -3.303,-4.598 -5.166,-6.467 -0.089,0.457 -0.147,0.967 -0.147,1.563 0,2.096 0.669,3.219 1.208,4.12 0.425,0.712 0.682,1.142 0.682,2.211 0,1.068 -0.257,1.498 -0.682,2.209 -0.538,0.901 -1.208,2.023 -1.208,4.117 0,1.115 0.189,1.954 0.447,2.631 0.01,0.021 0.018,0.036 0.026,0.056 l 3.679,0 c -0.27,-0.687 -0.471,-1.54 -0.471,-2.687 0,-2.094 0.67,-3.216 1.208,-4.117 0.425,-0.711 0.682,-1.141 0.682,-2.209 0,-0.639 -0.093,-1.048 -0.258,-1.427 m -7.686,-0.784 c -0.539,-0.901 -1.208,-2.024 -1.208,-4.12 0,-1.98 0.596,-3.089 1.116,-3.966 -0.833,-0.699 -1.675,-1.354 -2.519,-1.961 -0.054,-0.039 -0.114,-0.069 -0.161,-0.117 -0.082,-0.059 -0.164,-0.111 -0.246,-0.169 -0.02,0.979 -0.27,1.408 -0.679,2.092 -0.538,0.901 -1.207,2.025 -1.207,4.121 0,2.096 0.669,3.219 1.208,4.12 0.425,0.712 0.682,1.142 0.682,2.211 0,1.068 -0.257,1.498 -0.682,2.209 -0.538,0.901 -1.208,2.023 -1.208,4.117 0,1.147 0.201,2 0.471,2.687 l 3.695,0 c -10e-4,0 0,0 0,0 -0.268,-0.686 -0.467,-1.539 -0.467,-2.682 0,-2.094 0.67,-3.216 1.208,-4.117 0.425,-0.711 0.682,-1.141 0.682,-2.209 0,-1.069 -0.257,-1.499 -0.682,-2.211 m -7.278,-8.241 c 0.426,-0.713 0.683,-1.143 0.683,-2.215 0,-1.07 -0.257,-1.501 -0.682,-2.213 -0.086,-0.145 -0.176,-0.299 -0.266,-0.458 -1.552,-0.839 -3.041,-1.538 -4.413,-2.112 0.225,1.154 0.675,1.922 1.062,2.57 0.426,0.712 0.682,1.143 0.682,2.213 0,1.072 -0.256,1.502 -0.682,2.215 -0.538,0.901 -1.208,2.025 -1.208,4.121 0,2.096 0.67,3.219 1.208,4.12 0.426,0.712 0.682,1.142 0.682,2.211 0,1.068 -0.256,1.498 -0.681,2.209 -0.539,0.901 -1.209,2.023 -1.209,4.117 0,1.147 0.201,2 0.471,2.687 l 3.616,0 c -0.27,-0.686 -0.47,-1.541 -0.47,-2.687 0,-2.094 0.67,-3.216 1.208,-4.117 0.425,-0.711 0.682,-1.141 0.682,-2.209 0,-1.069 -0.257,-1.499 -0.682,-2.211 -0.539,-0.901 -1.208,-2.024 -1.208,-4.12 0,-2.096 0.669,-3.22 1.207,-4.121 m -7.197,0 c 0.426,-0.713 0.682,-1.143 0.682,-2.215 0,-1.07 -0.256,-1.501 -0.682,-2.213 -0.523,-0.877 -1.166,-1.97 -1.201,-3.957 -0.599,-0.195 -1.137,-0.356 -1.612,-0.49 l 0,28.34 2.078,0 c -0.271,-0.687 -0.473,-1.539 -0.473,-2.687 0,-2.094 0.67,-3.216 1.209,-4.117 0.425,-0.711 0.681,-1.141 0.681,-2.209 0,-1.069 -0.256,-1.499 -0.682,-2.211 -0.538,-0.901 -1.208,-2.024 -1.208,-4.12 0,-2.096 0.67,-3.22 1.208,-4.121 M -3.747,-5.086 c 0,-36.844 35.753,-44.24 36.114,-44.31 l 0.359,-0.071 0.359,0.071 c 0.361,0.07 36.114,7.466 36.114,44.31 l 0,26.312 -72.946,0 0,-26.312 z" />
    </g>
    <g
       transform="matrix(4.5011,0,0,-4.5011,336.853,164.368)"
       id="g3537"
       style="fill:#ffffff">
      <path
         id="path3539"
         style="fill:#ffffff;fill-opacity:1;fill-rule:nonzero;stroke:none"
         d="M 0,0 C 0.021,-0.009 0.033,-0.015 0.034,-0.018 L 0.001,0.048 C 0.004,0.042 0.003,0.025 0,0" />
    </g>
    <g
       transform="matrix(4.5011,0,0,-4.5011,350.543,114.233)"
       id="g3549"
       style="fill:#ffffff">
      <path
         id="path3551"
         style="fill:#ffffff;fill-opacity:1;fill-rule:nonzero;stroke:none"
         d="m 0,0 c 0.022,-0.007 0.034,-0.012 0.036,-0.014 l -0.04,0.062 C 0,0.042 0.001,0.025 0,0" />
    </g>
    <g
       transform="matrix(4.5011,0,0,-4.5011,289.137,148.903)"
       id="g3553"
       style="fill:#ffffff">
      <path
         id="path3555"
         style="fill:#ffffff;fill-opacity:1;fill-rule:nonzero;stroke:none"
         d="M 0,0 C 0.002,0.001 0.016,-0.001 0.038,-0.006 0.05,0.017 0.06,0.03 0.066,0.033 L 0,0 Z" />
    </g>
    <g
       transform="matrix(4.5011,0,0,-4.5011,301.564,103.406)"
       id="g3557"
       style="fill:#ffffff">
      <path
         id="path3559"
         style="fill:#ffffff;fill-opacity:1;fill-rule:nonzero;stroke:none"
         d="M 0,0 C 0.002,0.001 0.016,0.001 0.038,-0.002 0.048,0.021 0.056,0.036 0.062,0.04 L 0,0 Z" />
    </g>
    <g
       transform="matrix(4.5011,0,0,-4.5011,357.266,66.6189)"
       id="g3565"
       style="fill:#ffffff">
      <path
         id="path3567"
         style="fill:#ffffff;fill-opacity:1;fill-rule:nonzero;stroke:none"
         d="m 0,0 c 0.004,-0.005 0.007,-0.022 0.009,-0.047 0.022,-0.005 0.035,-0.008 0.037,-0.01 L 0,0 Z" />
    </g>
    <g
       transform="matrix(4.5011,0,0,-4.5011,307.459,61.2608)"
       id="g3569"
       style="fill:#ffffff">
      <path
         id="path3571"
         style="fill:#ffffff;fill-opacity:1;fill-rule:nonzero;stroke:none"
         d="m 0,0 c 0.002,0.002 0.016,0.002 0.038,0.002 0.008,0.024 0.014,0.04 0.02,0.044 L 0,0 Z" />
    </g>
    <g
       transform="matrix(4.5011,0,0,-4.5011,355.97,14.9715)"
       id="g3573"
       style="fill:#ffffff">
      <path
         id="path3575"
         style="fill:#ffffff;fill-opacity:1;fill-rule:nonzero;stroke:none"
         d="M 0,0 C 0.005,-0.005 0.01,-0.021 0.014,-0.046 0.037,-0.048 0.05,-0.05 0.052,-0.052 L 0,0 Z" />
    </g>
    <g
       transform="matrix(4.5011,0,0,-4.5011,306.108,14.9715)"
       id="g3581"
       style="fill:#ffffff">
      <path
         id="path3583"
         style="fill:#ffffff;fill-opacity:1;fill-rule:nonzero;stroke:none"
         d="m 0,0 -0.052,-0.052 c 0.002,0.002 0.015,0.004 0.038,0.006 C -0.01,-0.021 -0.005,-0.005 0,0" />
    </g>
    <g
       transform="matrix(4.5011,0,0,-4.5011,-139.857,164.448)"
       id="g3585"
       style="fill:#ffffff">
      <path
         id="path3587"
         style="fill:#ffffff;fill-opacity:1;fill-rule:nonzero;stroke:none"
         d="M 0,0 C 0.001,0.002 0.013,0.009 0.034,0.018 0.031,0.043 0.03,0.06 0.033,0.066 L 0,0 Z" />
    </g>
    <g
       transform="matrix(4.5011,0,0,-4.5011,-153.551,114.298)"
       id="g3589"
       style="fill:#ffffff">
      <path
         id="path3591"
         style="fill:#ffffff;fill-opacity:1;fill-rule:nonzero;stroke:none"
         d="m 0,0 c 0.002,0.002 0.014,0.007 0.036,0.014 -10e-4,0.026 0,0.042 0.004,0.048 L 0,0 Z" />
    </g>
    <g
       transform="matrix(4.5011,0,0,-4.5011,-92.2858,148.755)"
       id="g3597"
       style="fill:#ffffff">
      <path
         id="path3599"
         style="fill:#ffffff;fill-opacity:1;fill-rule:nonzero;stroke:none"
         d="m 0,0 c 0.006,-0.003 0.016,-0.017 0.028,-0.039 0.022,0.005 0.035,0.007 0.038,0.006 L 0,0 Z" />
    </g>
    <g
       transform="matrix(4.5011,0,0,-4.5011,-104.694,103.225)"
       id="g3605"
       style="fill:#ffffff">
      <path
         id="path3607"
         style="fill:#ffffff;fill-opacity:1;fill-rule:nonzero;stroke:none"
         d="m 0,0 c 0.006,-0.004 0.014,-0.018 0.024,-0.042 0.022,0.003 0.036,0.004 0.038,0.002 L 0,0 Z" />
    </g>
    <g
       transform="matrix(4.5011,0,0,-4.5011,-160.324,66.8746)"
       id="g3609"
       style="fill:#ffffff">
      <path
         id="path3611"
         style="fill:#ffffff;fill-opacity:1;fill-rule:nonzero;stroke:none"
         d="M 0,0 C 0.002,0.002 0.015,0.006 0.037,0.01 0.039,0.036 0.042,0.052 0.046,0.057 L 0,0 Z" />
    </g>
    <g
       transform="matrix(4.5011,0,0,-4.5011,-110.567,61.0484)"
       id="g3617"
       style="fill:#ffffff">
      <path
         id="path3619"
         style="fill:#ffffff;fill-opacity:1;fill-rule:nonzero;stroke:none"
         d="m 0,0 c 0.005,-0.004 0.012,-0.02 0.019,-0.044 0.023,0 0.036,0 0.039,-0.002 L 0,0 Z" />
    </g>
    <g
       transform="matrix(4.5011,0,0,-4.5011,-158.819,14.9715)"
       id="g3621"
       style="fill:#ffffff">
      <path
         id="path3623"
         style="fill:#ffffff;fill-opacity:1;fill-rule:nonzero;stroke:none"
         d="m 0,0 -0.052,-0.052 c 0.002,0.002 0.015,0.004 0.038,0.006 C -0.01,-0.021 -0.005,-0.005 0,0" />
    </g>
    <g
       transform="matrix(4.5011,0,0,-4.5011,-108.958,14.9715)"
       id="g3629"
       style="fill:#ffffff">
      <path
         id="path3631"
         style="fill:#ffffff;fill-opacity:1;fill-rule:nonzero;stroke:none"
         d="M 0,0 C 0.005,-0.005 0.01,-0.021 0.014,-0.046 0.037,-0.048 0.05,-0.05 0.052,-0.052 L 0,0 Z" />
    </g>
    <g
       transform="matrix(4.5011,0,0,-4.5011,102.547,-77.175)"
       id="g3633"
       style="fill:#ffffff">
      <path
         id="path3635"
         style="fill:#ffffff;fill-opacity:1;fill-rule:nonzero;stroke:none"
         d="M 0,0 0,4.645 C 3.887,4.692 16.209,3.766 23.064,0 L 0,0 Z M 30.159,0.074 C 19.014,8.001 -0.958,8.182 -1.847,8.144 l -1.689,-0.076 0,-8.068 -34.44,0 0,-3.537 72.345,0 c -1.694,1.956 -4.21,3.611 -4.21,3.611" />
    </g>
  </g>
</svg>
