<svg xmlns="http://www.w3.org/2000/svg" viewBox="0 0 553.229 427.849" height="456.37" width="590.113"><g fill="#fff"><g style="-inkscape-font-specification:Nanami-Bold" font-weight="700" font-size="19.219" font-family="Nanami"><path style="-inkscape-font-specification:'Nanami Bold'" d="M307.086 202.913v-51.766h29.196v11.149h-18.044v9.056h18.044v11.152h-18.044v20.41h-11.152zM387.137 202.913h-8.988l-5.948-28.99-7.4 28.99h-8.851l-13.925-51.766h11.692l6.658 26.355 6.828-26.355h8.887l6.622 26.29 6.658-26.29h11.757l-13.99 51.766z"/></g><path d="M188.808 187.534a7.73 7.73 0 000-15.461 7.73 7.73 0 000 15.461M158.1 187.534a7.73 7.73 0 000-15.461 7.73 7.73 0 000 15.461M219.52 187.534a7.73 7.73 0 10-.005-15.46 7.73 7.73 0 00.005 15.46M250.228 187.534a7.727 7.727 0 007.728-7.728 7.728 7.728 0 10-15.456 0 7.727 7.727 0 007.728 7.728M188.808 135.149a7.73 7.73 0 000-15.461 7.73 7.73 0 000 15.46M158.1 135.149a7.73 7.73 0 000-15.461 7.73 7.73 0 000 15.46M219.52 135.149a7.73 7.73 0 10-.005-15.46 7.73 7.73 0 00.005 15.46M250.228 135.149a7.727 7.727 0 007.728-7.729 7.728 7.728 0 10-15.456 0 7.727 7.727 0 007.728 7.729M125.796 135.149a7.727 7.727 0 007.728-7.729 7.728 7.728 0 10-15.456 0 7.727 7.727 0 007.728 7.729M204.166 161.41a7.73 7.73 0 000-15.461 7.728 7.728 0 00-7.729 7.732 7.727 7.727 0 007.729 7.729M172.658 161.41a7.73 7.73 0 000-15.461 7.73 7.73 0 000 15.46M235.673 161.41a7.727 7.727 0 007.729-7.729 7.728 7.728 0 10-15.457 0 7.727 7.727 0 007.728 7.729M141.15 161.41a7.73 7.73 0 000-15.461 7.73 7.73 0 000 15.46M188.808 239.794a7.73 7.73 0 000-15.461 7.73 7.73 0 000 15.461M158.1 239.794a7.73 7.73 0 000-15.461 7.73 7.73 0 000 15.461M219.52 224.332a7.732 7.732 0 100 15.46 7.73 7.73 0 000-15.461M250.228 224.332a7.728 7.728 0 00-7.728 7.732 7.727 7.727 0 007.728 7.729 7.727 7.727 0 007.728-7.729 7.728 7.728 0 00-7.728-7.732M211.893 205.935a7.73 7.73 0 10-15.46.005 7.73 7.73 0 0015.46-.005M172.658 198.203a7.73 7.73 0 000 15.461 7.73 7.73 0 000-15.46M235.673 213.666a7.728 7.728 0 007.729-7.733 7.727 7.727 0 00-7.729-7.729 7.727 7.727 0 00-7.728 7.729 7.728 7.728 0 007.728 7.733M141.15 213.666a7.73 7.73 0 000-15.462 7.73 7.73 0 000 15.461M188.808 292.046a7.73 7.73 0 000-15.461 7.73 7.73 0 000 15.461M158.1 292.046a7.73 7.73 0 000-15.461 7.73 7.73 0 000 15.461M219.52 276.584a7.73 7.73 0 10-.004 15.462 7.73 7.73 0 00.004-15.462M250.228 276.584a7.727 7.727 0 00-7.728 7.728 7.728 7.728 0 1015.456 0 7.727 7.727 0 00-7.728-7.728M204.166 265.918a7.73 7.73 0 000-15.461 7.728 7.728 0 00-7.729 7.733 7.727 7.727 0 007.729 7.728M172.658 250.46a7.73 7.73 0 000 15.461 7.73 7.73 0 000-15.461M235.673 265.918a7.727 7.727 0 007.729-7.728 7.728 7.728 0 10-15.457 0 7.727 7.727 0 007.728 7.728M141.15 265.918a7.73 7.73 0 000-15.461 7.73 7.73 0 000 15.461M188.808 344.298a7.73 7.73 0 000-15.461 7.73 7.73 0 000 15.461M219.52 328.84a7.73 7.73 0 10-.004 15.462 7.73 7.73 0 00.004-15.462M250.228 328.84a7.727 7.727 0 00-7.728 7.728 7.728 7.728 0 1015.456 0 7.727 7.727 0 00-7.728-7.728M204.166 302.715a7.728 7.728 0 00-7.729 7.733 7.727 7.727 0 007.729 7.728 7.73 7.73 0 000-15.461M172.658 302.715a7.73 7.73 0 000 15.461 7.73 7.73 0 000-15.461M235.673 318.174a7.727 7.727 0 007.729-7.728 7.728 7.728 0 10-15.457 0 7.727 7.727 0 007.728 7.728M235.673 370.43a7.728 7.728 0 007.729-7.733 7.727 7.727 0 00-7.729-7.728 7.727 7.727 0 00-7.728 7.728 7.728 7.728 0 007.728 7.733"/><path d="M126.462 187.476c3.975-.32 7.116-3.61 7.116-7.67 0-4.055-3.141-7.345-7.116-7.665v-63.34h139.345v282.076c-11.532-3.26-31.89-10.276-53.567-23.537.99-1.296 1.611-2.885 1.611-4.64a7.73 7.73 0 00-7.728-7.733c-2.863 0-5.285 1.602-6.621 3.911-32.003-23.081-63.583-60.598-71.24-120.364 2.125-1.377 3.561-3.73 3.561-6.45 0-3.263-2.021-6.036-4.88-7.174a230.394 230.394 0 01-.48-14.52v-22.894zm294.606-78.674v101.567c0 13.278-1.157 25.557-3.16 37.026H281.723V108.802h139.345zM402.906 275.41c0-5.118.887-8.944 2.084-12.022 0-.045 0-.045.045-.072h9.44c-2.418 9.087-5.411 17.58-8.895 25.49-1.48-3.305-2.665-7.49-2.665-13.396m-8.772 34.897c-6.964 11.05-14.868 20.696-23.253 29.109a36.333 36.333 0 01-.662-7.036c0-9.434 3.012-14.489 5.438-18.544 1.913-3.205 3.07-5.14 3.07-9.952 0-4.807-1.157-6.743-3.07-9.943-2.422-4.055-5.438-9.106-5.438-18.531 0-5.019.851-8.795 2.012-11.842.045-.095.081-.162.117-.252h16.56c-1.215 3.092-2.12 6.931-2.12 12.094 0 9.425 3.016 14.476 5.437 18.531 1.913 3.2 3.07 5.136 3.07 9.943 0 2.876-.419 4.717-1.161 6.423m-34.596 3.529c-2.426 4.055-5.437 9.11-5.437 18.544 0 8.913 2.682 13.904 5.023 17.852a192.727 192.727 0 01-11.338 8.826c-.243.176-.513.311-.725.527-.369.266-.738.5-1.107.76-.09-4.406-1.215-6.337-3.056-9.416-2.422-4.055-5.433-9.114-5.433-18.549 0-9.434 3.011-14.489 5.437-18.544 1.913-3.205 3.07-5.14 3.07-9.952 0-4.807-1.157-6.743-3.07-9.943-2.421-4.055-5.437-9.106-5.437-18.531 0-5.163.904-9.002 2.12-12.094h16.631c-.004 0 0 0 0 0-1.206 3.087-2.102 6.927-2.102 12.071 0 9.426 3.016 14.476 5.438 18.532 1.913 3.2 3.07 5.135 3.07 9.942 0 4.812-1.157 6.748-3.07 9.952m-32.76 37.094c1.918 3.21 3.075 5.145 3.075 9.97 0 4.816-1.157 6.756-3.07 9.96-.387.653-.792 1.347-1.197 2.062a222.332 222.332 0 01-19.863 9.507c1.012-5.195 3.038-8.651 4.78-11.568 1.917-3.205 3.07-5.145 3.07-9.961 0-4.825-1.153-6.76-3.07-9.97-2.422-4.056-5.438-9.115-5.438-18.55 0-9.433 3.016-14.488 5.438-18.544 1.917-3.204 3.07-5.14 3.07-9.952 0-4.807-1.153-6.742-3.066-9.942-2.426-4.056-5.442-9.106-5.442-18.532 0-5.162.905-9.002 2.12-12.094h16.276c-1.215 3.088-2.115 6.936-2.115 12.094 0 9.426 3.016 14.476 5.437 18.532 1.913 3.2 3.07 5.135 3.07 9.942 0 4.812-1.157 6.748-3.07 9.952-2.426 4.056-5.437 9.11-5.437 18.545 0 9.434 3.011 14.493 5.433 18.549m-32.395 0c1.918 3.21 3.07 5.145 3.07 9.97 0 4.816-1.152 6.756-3.07 9.96-2.354 3.948-5.248 8.868-5.406 17.812a190.3 190.3 0 01-7.255 2.205V263.293h9.353c-1.22 3.092-2.13 6.927-2.13 12.094 0 9.426 3.017 14.476 5.443 18.532 1.913 3.2 3.065 5.135 3.065 9.942 0 4.812-1.152 6.748-3.07 9.952-2.421 4.056-5.437 9.11-5.437 18.545 0 9.434 3.016 14.493 5.437 18.549m-184.81-140.538c0 165.839 160.927 199.129 162.552 199.444l1.616.32 1.616-.32c1.625-.315 162.553-33.605 162.553-199.444V91.936H109.597V210.37zM514.893 295.931c.095.04.149.068.153.081l-.148-.297c.013.027.009.103-.005.216M528.583 245.796a.731.731 0 01.162.063l-.18-.28c.018.028.023.104.018.217M467.177 280.466a.666.666 0 01.171.027c.054-.104.1-.162.126-.176l-.297.149zM479.604 234.969a.625.625 0 01.171.009c.045-.104.081-.171.108-.189l-.279.18zM535.306 198.182c.018.022.032.099.04.211a.805.805 0 01.167.045l-.207-.256zM485.499 192.824c.009-.01.072-.01.171-.01.036-.107.063-.18.09-.197l-.261.207zM534.01 146.534c.023.023.045.095.063.208a.571.571 0 01.171.027l-.234-.235zM484.148 146.534l-.234.235a.571.571 0 01.171-.027c.018-.113.04-.185.063-.208M38.183 296.011a.587.587 0 01.153-.081c-.013-.113-.018-.19-.004-.216l-.149.297zM24.489 245.861a.731.731 0 01.162-.063c-.004-.117 0-.19.018-.216l-.18.279zM85.754 280.318c.027.014.072.077.126.176a.642.642 0 01.171-.027l-.297-.149zM73.346 234.788c.027.018.063.081.108.189.1-.013.162-.018.171-.009l-.279-.18zM17.716 198.438a.573.573 0 01.167-.045c.009-.117.022-.19.04-.212l-.207.257zM67.473 192.611c.023.018.054.09.086.198.103 0 .162 0 .175.01l-.261-.208zM19.221 146.534l-.234.235a.571.571 0 01.171-.027c.018-.113.04-.185.063-.208M69.082 146.534c.023.023.045.095.063.208a.571.571 0 01.171.027l-.234-.235zM280.587 54.388V33.48c17.496-.211 72.958 3.957 103.813 20.908H280.587zm135.749-.333C366.17 18.375 276.275 17.56 272.273 17.73l-7.602.342v36.315H109.653v15.92h325.632c-7.625-8.804-18.95-16.253-18.95-16.253"/></g></svg>