<?xml version="1.0" encoding="UTF-8" standalone="no"?>
<svg
   xmlns:dc="http://purl.org/dc/elements/1.1/"
   xmlns:cc="http://creativecommons.org/ns#"
   xmlns:rdf="http://www.w3.org/1999/02/22-rdf-syntax-ns#"
   xmlns:svg="http://www.w3.org/2000/svg"
   xmlns="http://www.w3.org/2000/svg"
   version="1.1"
   id="svg3641"
   viewBox="0 0 553.229 427.849"
   height="120.748mm"
   width="156.134mm">
  <defs
     id="defs3643">
    <filter
       height="1.0835"
       y="-0.0417512"
       width="1.06328"
       x="-0.0316414"
       id="filter5111"
       style="color-interpolation-filters:sRGB">
      <feGaussianBlur
         id="feGaussianBlur5113"
         stdDeviation="6.8266" />
    </filter>
  </defs>
  <metadata
     id="metadata3646">
    <rdf:RDF>
      <cc:Work
         rdf:about="">
        <dc:format>image/svg+xml</dc:format>
        <dc:type
           rdf:resource="http://purl.org/dc/dcmitype/StillImage" />
        <dc:title></dc:title>
      </cc:Work>
    </rdf:RDF>
  </metadata>
  <g
     transform="translate(178.04,131.563)"
     id="layer1">
    <g
       transform="translate(0,2.99996)"
       style="filter:url(#filter5111);opacity:0.5"
       id="g4827">
      <g
         transform="matrix(3.60088,0,0,3.60088,-1036.08,-887.319)"
         style="fill:#000000"
         id="g4571">
        <g
           style="fill:#000000"
           id="g4573"
           transform="matrix(1.25,0,0,-1.25,290.72,261.961)">
          <path
             d="M 0,0 C 0.948,0 1.717,0.769 1.717,1.717 1.717,2.666 0.948,3.435 0,3.435 -0.948,3.435 -1.717,2.666 -1.717,1.717 -1.717,0.769 -0.948,0 0,0"
             style="fill:#000000;fill-opacity:1;fill-rule:nonzero;stroke:none"
             id="path4575" />
        </g>
        <g
           style="fill:#000000"
           id="g4577"
           transform="matrix(1.25,0,0,-1.25,282.192,261.961)">
          <path
             d="M 0,0 C 0.948,0 1.717,0.769 1.717,1.717 1.717,2.666 0.948,3.435 0,3.435 -0.948,3.435 -1.717,2.666 -1.717,1.717 -1.717,0.769 -0.948,0 0,0"
             style="fill:#000000;fill-opacity:1;fill-rule:nonzero;stroke:none"
             id="path4579" />
        </g>
        <g
           style="fill:#000000"
           id="g4581"
           transform="matrix(1.25,0,0,-1.25,299.249,261.961)">
          <path
             d="M 0,0 C 0.948,0 1.717,0.769 1.717,1.717 1.717,2.666 0.948,3.435 0,3.435 -0.949,3.435 -1.718,2.666 -1.718,1.717 -1.718,0.769 -0.949,0 0,0"
             style="fill:#000000;fill-opacity:1;fill-rule:nonzero;stroke:none"
             id="path4583" />
        </g>
        <g
           style="fill:#000000"
           id="g4585"
           transform="matrix(1.25,0,0,-1.25,307.777,261.961)">
          <path
             d="M 0,0 C 0.949,0 1.717,0.769 1.717,1.717 1.717,2.666 0.949,3.435 0,3.435 -0.949,3.435 -1.717,2.666 -1.717,1.717 -1.717,0.769 -0.949,0 0,0"
             style="fill:#000000;fill-opacity:1;fill-rule:nonzero;stroke:none"
             id="path4587" />
        </g>
        <g
           style="fill:#000000"
           id="g4589"
           transform="matrix(1.25,0,0,-1.25,290.72,247.413)">
          <path
             d="M 0,0 C 0.948,0 1.717,0.769 1.717,1.717 1.717,2.666 0.948,3.435 0,3.435 -0.948,3.435 -1.717,2.666 -1.717,1.717 -1.717,0.769 -0.948,0 0,0"
             style="fill:#000000;fill-opacity:1;fill-rule:nonzero;stroke:none"
             id="path4591" />
        </g>
        <g
           style="fill:#000000"
           id="g4593"
           transform="matrix(1.25,0,0,-1.25,282.192,247.413)">
          <path
             d="M 0,0 C 0.948,0 1.717,0.769 1.717,1.717 1.717,2.666 0.948,3.435 0,3.435 -0.948,3.435 -1.717,2.666 -1.717,1.717 -1.717,0.769 -0.948,0 0,0"
             style="fill:#000000;fill-opacity:1;fill-rule:nonzero;stroke:none"
             id="path4595" />
        </g>
        <g
           style="fill:#000000"
           id="g4597"
           transform="matrix(1.25,0,0,-1.25,299.249,247.413)">
          <path
             d="M 0,0 C 0.948,0 1.717,0.769 1.717,1.717 1.717,2.666 0.948,3.435 0,3.435 -0.949,3.435 -1.718,2.666 -1.718,1.717 -1.718,0.769 -0.949,0 0,0"
             style="fill:#000000;fill-opacity:1;fill-rule:nonzero;stroke:none"
             id="path4599" />
        </g>
        <g
           style="fill:#000000"
           id="g4601"
           transform="matrix(1.25,0,0,-1.25,307.777,247.413)">
          <path
             d="M 0,0 C 0.949,0 1.717,0.769 1.717,1.717 1.717,2.666 0.949,3.435 0,3.435 -0.949,3.435 -1.717,2.666 -1.717,1.717 -1.717,0.769 -0.949,0 0,0"
             style="fill:#000000;fill-opacity:1;fill-rule:nonzero;stroke:none"
             id="path4603" />
        </g>
        <g
           style="fill:#000000"
           id="g4605"
           transform="matrix(1.25,0,0,-1.25,273.221,247.413)">
          <path
             d="M 0,0 C 0.949,0 1.717,0.769 1.717,1.717 1.717,2.666 0.949,3.435 0,3.435 -0.949,3.435 -1.717,2.666 -1.717,1.717 -1.717,0.769 -0.949,0 0,0"
             style="fill:#000000;fill-opacity:1;fill-rule:nonzero;stroke:none"
             id="path4607" />
        </g>
        <g
           style="fill:#000000"
           id="g4609"
           transform="matrix(1.25,0,0,-1.25,294.985,254.706)">
          <path
             d="M 0,0 C 0.948,0 1.717,0.769 1.717,1.717 1.717,2.666 0.948,3.435 0,3.435 -0.949,3.435 -1.717,2.666 -1.717,1.717 -1.717,0.769 -0.949,0 0,0"
             style="fill:#000000;fill-opacity:1;fill-rule:nonzero;stroke:none"
             id="path4611" />
        </g>
        <g
           style="fill:#000000"
           id="g4613"
           transform="matrix(1.25,0,0,-1.25,286.235,254.706)">
          <path
             d="M 0,0 C 0.948,0 1.717,0.769 1.717,1.717 1.717,2.666 0.948,3.435 0,3.435 -0.948,3.435 -1.717,2.666 -1.717,1.717 -1.717,0.769 -0.948,0 0,0"
             style="fill:#000000;fill-opacity:1;fill-rule:nonzero;stroke:none"
             id="path4615" />
        </g>
        <g
           style="fill:#000000"
           id="g4617"
           transform="matrix(1.25,0,0,-1.25,303.735,254.706)">
          <path
             d="M 0,0 C 0.949,0 1.717,0.769 1.717,1.717 1.717,2.666 0.949,3.435 0,3.435 -0.949,3.435 -1.717,2.666 -1.717,1.717 -1.717,0.769 -0.949,0 0,0"
             style="fill:#000000;fill-opacity:1;fill-rule:nonzero;stroke:none"
             id="path4619" />
        </g>
        <g
           style="fill:#000000"
           id="g4621"
           transform="matrix(1.25,0,0,-1.25,277.485,254.706)">
          <path
             d="M 0,0 C 0.948,0 1.717,0.769 1.717,1.717 1.717,2.666 0.948,3.435 0,3.435 -0.948,3.435 -1.717,2.666 -1.717,1.717 -1.717,0.769 -0.948,0 0,0"
             style="fill:#000000;fill-opacity:1;fill-rule:nonzero;stroke:none"
             id="path4623" />
        </g>
        <g
           style="fill:#000000"
           id="g4625"
           transform="matrix(1.25,0,0,-1.25,290.72,276.474)">
          <path
             d="M 0,0 C 0.948,0 1.717,0.769 1.717,1.717 1.717,2.666 0.948,3.435 0,3.435 -0.948,3.435 -1.717,2.666 -1.717,1.717 -1.717,0.769 -0.948,0 0,0"
             style="fill:#000000;fill-opacity:1;fill-rule:nonzero;stroke:none"
             id="path4627" />
        </g>
        <g
           style="fill:#000000"
           id="g4629"
           transform="matrix(1.25,0,0,-1.25,282.192,276.474)">
          <path
             d="M 0,0 C 0.948,0 1.717,0.769 1.717,1.717 1.717,2.666 0.948,3.435 0,3.435 -0.948,3.435 -1.717,2.666 -1.717,1.717 -1.717,0.769 -0.948,0 0,0"
             style="fill:#000000;fill-opacity:1;fill-rule:nonzero;stroke:none"
             id="path4631" />
        </g>
        <g
           style="fill:#000000"
           id="g4633"
           transform="matrix(1.25,0,0,-1.25,299.249,272.18)">
          <path
             d="m 0,0 c -0.949,0 -1.718,-0.769 -1.718,-1.718 0,-0.948 0.769,-1.717 1.718,-1.717 0.948,0 1.717,0.769 1.717,1.717 C 1.717,-0.769 0.948,0 0,0"
             style="fill:#000000;fill-opacity:1;fill-rule:nonzero;stroke:none"
             id="path4635" />
        </g>
        <g
           style="fill:#000000"
           id="g4637"
           transform="matrix(1.25,0,0,-1.25,307.777,272.18)">
          <path
             d="m 0,0 c -0.949,0 -1.717,-0.769 -1.717,-1.718 0,-0.948 0.768,-1.717 1.717,-1.717 0.949,0 1.717,0.769 1.717,1.717 C 1.717,-0.769 0.949,0 0,0"
             style="fill:#000000;fill-opacity:1;fill-rule:nonzero;stroke:none"
             id="path4639" />
        </g>
        <g
           style="fill:#000000"
           id="g4641"
           transform="matrix(1.25,0,0,-1.25,297.131,267.071)">
          <path
             d="m 0,0 c 0,0.948 -0.769,1.717 -1.717,1.717 -0.949,0 -1.718,-0.769 -1.718,-1.717 0,-0.949 0.769,-1.718 1.718,-1.718 C -0.769,-1.718 0,-0.949 0,0"
             style="fill:#000000;fill-opacity:1;fill-rule:nonzero;stroke:none"
             id="path4643" />
        </g>
        <g
           style="fill:#000000"
           id="g4645"
           transform="matrix(1.25,0,0,-1.25,286.235,264.924)">
          <path
             d="m 0,0 c -0.948,0 -1.717,-0.769 -1.717,-1.717 0,-0.949 0.769,-1.718 1.717,-1.718 0.948,0 1.717,0.769 1.717,1.718 C 1.717,-0.769 0.948,0 0,0"
             style="fill:#000000;fill-opacity:1;fill-rule:nonzero;stroke:none"
             id="path4647" />
        </g>
        <g
           style="fill:#000000"
           id="g4649"
           transform="matrix(1.25,0,0,-1.25,303.735,269.218)">
          <path
             d="M 0,0 C 0.949,0 1.717,0.769 1.717,1.718 1.717,2.666 0.949,3.435 0,3.435 -0.949,3.435 -1.717,2.666 -1.717,1.718 -1.717,0.769 -0.949,0 0,0"
             style="fill:#000000;fill-opacity:1;fill-rule:nonzero;stroke:none"
             id="path4651" />
        </g>
        <g
           style="fill:#000000"
           id="g4653"
           transform="matrix(1.25,0,0,-1.25,277.485,269.218)">
          <path
             d="M 0,0 C 0.948,0 1.717,0.769 1.717,1.718 1.717,2.666 0.948,3.435 0,3.435 -0.948,3.435 -1.717,2.666 -1.717,1.718 -1.717,0.769 -0.948,0 0,0"
             style="fill:#000000;fill-opacity:1;fill-rule:nonzero;stroke:none"
             id="path4655" />
        </g>
        <g
           style="fill:#000000"
           id="g4657"
           transform="matrix(1.25,0,0,-1.25,290.72,290.985)">
          <path
             d="M 0,0 C 0.948,0 1.717,0.769 1.717,1.718 1.717,2.666 0.948,3.435 0,3.435 -0.948,3.435 -1.717,2.666 -1.717,1.718 -1.717,0.769 -0.948,0 0,0"
             style="fill:#000000;fill-opacity:1;fill-rule:nonzero;stroke:none"
             id="path4659" />
        </g>
        <g
           style="fill:#000000"
           id="g4661"
           transform="matrix(1.25,0,0,-1.25,282.192,290.985)">
          <path
             d="M 0,0 C 0.948,0 1.717,0.769 1.717,1.718 1.717,2.666 0.948,3.435 0,3.435 -0.948,3.435 -1.717,2.666 -1.717,1.718 -1.717,0.769 -0.948,0 0,0"
             style="fill:#000000;fill-opacity:1;fill-rule:nonzero;stroke:none"
             id="path4663" />
        </g>
        <g
           style="fill:#000000"
           id="g4665"
           transform="matrix(1.25,0,0,-1.25,299.249,286.691)">
          <path
             d="m 0,0 c -0.949,0 -1.718,-0.769 -1.718,-1.717 0,-0.949 0.769,-1.718 1.718,-1.718 0.948,0 1.717,0.769 1.717,1.718 C 1.717,-0.769 0.948,0 0,0"
             style="fill:#000000;fill-opacity:1;fill-rule:nonzero;stroke:none"
             id="path4667" />
        </g>
        <g
           style="fill:#000000"
           id="g4669"
           transform="matrix(1.25,0,0,-1.25,307.777,286.691)">
          <path
             d="m 0,0 c -0.949,0 -1.717,-0.769 -1.717,-1.717 0,-0.949 0.768,-1.718 1.717,-1.718 0.949,0 1.717,0.769 1.717,1.718 C 1.717,-0.769 0.949,0 0,0"
             style="fill:#000000;fill-opacity:1;fill-rule:nonzero;stroke:none"
             id="path4671" />
        </g>
        <g
           style="fill:#000000"
           id="g4673"
           transform="matrix(1.25,0,0,-1.25,294.985,283.729)">
          <path
             d="M 0,0 C 0.948,0 1.717,0.769 1.717,1.717 1.717,2.666 0.948,3.435 0,3.435 -0.949,3.435 -1.717,2.666 -1.717,1.717 -1.717,0.769 -0.949,0 0,0"
             style="fill:#000000;fill-opacity:1;fill-rule:nonzero;stroke:none"
             id="path4675" />
        </g>
        <g
           style="fill:#000000"
           id="g4677"
           transform="matrix(1.25,0,0,-1.25,286.235,279.436)">
          <path
             d="m 0,0 c -0.948,0 -1.717,-0.769 -1.717,-1.717 0,-0.949 0.769,-1.718 1.717,-1.718 0.948,0 1.717,0.769 1.717,1.718 C 1.717,-0.769 0.948,0 0,0"
             style="fill:#000000;fill-opacity:1;fill-rule:nonzero;stroke:none"
             id="path4679" />
        </g>
        <g
           style="fill:#000000"
           id="g4681"
           transform="matrix(1.25,0,0,-1.25,303.735,283.729)">
          <path
             d="M 0,0 C 0.949,0 1.717,0.769 1.717,1.717 1.717,2.666 0.949,3.435 0,3.435 -0.949,3.435 -1.717,2.666 -1.717,1.717 -1.717,0.769 -0.949,0 0,0"
             style="fill:#000000;fill-opacity:1;fill-rule:nonzero;stroke:none"
             id="path4683" />
        </g>
        <g
           style="fill:#000000"
           id="g4685"
           transform="matrix(1.25,0,0,-1.25,277.485,283.729)">
          <path
             d="M 0,0 C 0.948,0 1.717,0.769 1.717,1.717 1.717,2.666 0.948,3.435 0,3.435 -0.948,3.435 -1.717,2.666 -1.717,1.717 -1.717,0.769 -0.948,0 0,0"
             style="fill:#000000;fill-opacity:1;fill-rule:nonzero;stroke:none"
             id="path4687" />
        </g>
        <g
           style="fill:#000000"
           id="g4689"
           transform="matrix(1.25,0,0,-1.25,290.72,305.496)">
          <path
             d="M 0,0 C 0.948,0 1.717,0.769 1.717,1.717 1.717,2.666 0.948,3.435 0,3.435 -0.948,3.435 -1.717,2.666 -1.717,1.717 -1.717,0.769 -0.948,0 0,0"
             style="fill:#000000;fill-opacity:1;fill-rule:nonzero;stroke:none"
             id="path4691" />
        </g>
        <g
           style="fill:#000000"
           id="g4693"
           transform="matrix(1.25,0,0,-1.25,299.249,301.203)">
          <path
             d="m 0,0 c -0.949,0 -1.718,-0.769 -1.718,-1.717 0,-0.949 0.769,-1.718 1.718,-1.718 0.948,0 1.717,0.769 1.717,1.718 C 1.717,-0.769 0.948,0 0,0"
             style="fill:#000000;fill-opacity:1;fill-rule:nonzero;stroke:none"
             id="path4695" />
        </g>
        <g
           style="fill:#000000"
           id="g4697"
           transform="matrix(1.25,0,0,-1.25,307.777,301.203)">
          <path
             d="m 0,0 c -0.949,0 -1.717,-0.769 -1.717,-1.717 0,-0.949 0.768,-1.718 1.717,-1.718 0.949,0 1.717,0.769 1.717,1.718 C 1.717,-0.769 0.949,0 0,0"
             style="fill:#000000;fill-opacity:1;fill-rule:nonzero;stroke:none"
             id="path4699" />
        </g>
        <g
           style="fill:#000000"
           id="g4701"
           transform="matrix(1.25,0,0,-1.25,294.985,293.948)">
          <path
             d="m 0,0 c -0.949,0 -1.717,-0.769 -1.717,-1.718 0,-0.948 0.768,-1.717 1.717,-1.717 0.948,0 1.717,0.769 1.717,1.717 C 1.717,-0.769 0.948,0 0,0"
             style="fill:#000000;fill-opacity:1;fill-rule:nonzero;stroke:none"
             id="path4703" />
        </g>
        <g
           style="fill:#000000"
           id="g4705"
           transform="matrix(1.25,0,0,-1.25,286.235,293.948)">
          <path
             d="m 0,0 c -0.948,0 -1.717,-0.769 -1.717,-1.718 0,-0.948 0.769,-1.717 1.717,-1.717 0.948,0 1.717,0.769 1.717,1.717 C 1.717,-0.769 0.948,0 0,0"
             style="fill:#000000;fill-opacity:1;fill-rule:nonzero;stroke:none"
             id="path4707" />
        </g>
        <g
           style="fill:#000000"
           id="g4709"
           transform="matrix(1.25,0,0,-1.25,303.735,298.241)">
          <path
             d="M 0,0 C 0.949,0 1.717,0.769 1.717,1.717 1.717,2.666 0.949,3.435 0,3.435 -0.949,3.435 -1.717,2.666 -1.717,1.717 -1.717,0.769 -0.949,0 0,0"
             style="fill:#000000;fill-opacity:1;fill-rule:nonzero;stroke:none"
             id="path4711" />
        </g>
        <g
           style="fill:#000000"
           id="g4713"
           transform="matrix(1.25,0,0,-1.25,303.735,312.753)">
          <path
             d="M 0,0 C 0.949,0 1.717,0.769 1.717,1.718 1.717,2.666 0.949,3.435 0,3.435 -0.949,3.435 -1.717,2.666 -1.717,1.718 -1.717,0.769 -0.949,0 0,0"
             style="fill:#000000;fill-opacity:1;fill-rule:nonzero;stroke:none"
             id="path4715" />
        </g>
        <g
           style="fill:#000000"
           id="g4717"
           transform="matrix(1.25,0,0,-1.25,273.406,261.945)">
          <path
             d="M 0,0 C 0.883,0.071 1.581,0.802 1.581,1.704 1.581,2.605 0.883,3.336 0,3.407 l 0,14.072 30.958,0 0,-62.668 c -2.562,0.724 -7.085,2.283 -11.901,5.229 0.22,0.288 0.358,0.641 0.358,1.031 0,0.949 -0.769,1.718 -1.717,1.718 -0.636,0 -1.174,-0.356 -1.471,-0.869 -7.11,5.128 -14.126,13.463 -15.827,26.741 0.472,0.306 0.791,0.829 0.791,1.433 0,0.725 -0.449,1.341 -1.084,1.594 C 0.041,-7.263 0,-6.192 0,-5.086 L 0,0 Z m 65.452,17.479 0,-22.565 c 0,-2.95 -0.257,-5.678 -0.702,-8.226 l -30.256,0 0,30.791 30.958,0 z m -4.035,-37.015 c 0,1.137 0.197,1.987 0.463,2.671 0,0.01 0,0.01 0.01,0.016 l 2.097,0 c -0.537,-2.019 -1.202,-3.906 -1.976,-5.663 -0.329,0.734 -0.592,1.664 -0.592,2.976 m -1.949,-7.753 c -1.547,-2.455 -3.303,-4.598 -5.166,-6.467 -0.089,0.457 -0.147,0.967 -0.147,1.563 0,2.096 0.669,3.219 1.208,4.12 0.425,0.712 0.682,1.142 0.682,2.211 0,1.068 -0.257,1.498 -0.682,2.209 -0.538,0.901 -1.208,2.023 -1.208,4.117 0,1.115 0.189,1.954 0.447,2.631 0.01,0.021 0.018,0.036 0.026,0.056 l 3.679,0 c -0.27,-0.687 -0.471,-1.54 -0.471,-2.687 0,-2.094 0.67,-3.216 1.208,-4.117 0.425,-0.711 0.682,-1.141 0.682,-2.209 0,-0.639 -0.093,-1.048 -0.258,-1.427 m -7.686,-0.784 c -0.539,-0.901 -1.208,-2.024 -1.208,-4.12 0,-1.98 0.596,-3.089 1.116,-3.966 -0.833,-0.699 -1.675,-1.354 -2.519,-1.961 -0.054,-0.039 -0.114,-0.069 -0.161,-0.117 -0.082,-0.059 -0.164,-0.111 -0.246,-0.169 -0.02,0.979 -0.27,1.408 -0.679,2.092 -0.538,0.901 -1.207,2.025 -1.207,4.121 0,2.096 0.669,3.219 1.208,4.12 0.425,0.712 0.682,1.142 0.682,2.211 0,1.068 -0.257,1.498 -0.682,2.209 -0.538,0.901 -1.208,2.023 -1.208,4.117 0,1.147 0.201,2 0.471,2.687 l 3.695,0 c -10e-4,0 0,0 0,0 -0.268,-0.686 -0.467,-1.539 -0.467,-2.682 0,-2.094 0.67,-3.216 1.208,-4.117 0.425,-0.711 0.682,-1.141 0.682,-2.209 0,-1.069 -0.257,-1.499 -0.682,-2.211 m -7.278,-8.241 c 0.426,-0.713 0.683,-1.143 0.683,-2.215 0,-1.07 -0.257,-1.501 -0.682,-2.213 -0.086,-0.145 -0.176,-0.299 -0.266,-0.458 -1.552,-0.839 -3.041,-1.538 -4.413,-2.112 0.225,1.154 0.675,1.922 1.062,2.57 0.426,0.712 0.682,1.143 0.682,2.213 0,1.072 -0.256,1.502 -0.682,2.215 -0.538,0.901 -1.208,2.025 -1.208,4.121 0,2.096 0.67,3.219 1.208,4.12 0.426,0.712 0.682,1.142 0.682,2.211 0,1.068 -0.256,1.498 -0.681,2.209 -0.539,0.901 -1.209,2.023 -1.209,4.117 0,1.147 0.201,2 0.471,2.687 l 3.616,0 c -0.27,-0.686 -0.47,-1.541 -0.47,-2.687 0,-2.094 0.67,-3.216 1.208,-4.117 0.425,-0.711 0.682,-1.141 0.682,-2.209 0,-1.069 -0.257,-1.499 -0.682,-2.211 -0.539,-0.901 -1.208,-2.024 -1.208,-4.12 0,-2.096 0.669,-3.22 1.207,-4.121 m -7.197,0 c 0.426,-0.713 0.682,-1.143 0.682,-2.215 0,-1.07 -0.256,-1.501 -0.682,-2.213 -0.523,-0.877 -1.166,-1.97 -1.201,-3.957 -0.599,-0.195 -1.137,-0.356 -1.612,-0.49 l 0,28.34 2.078,0 c -0.271,-0.687 -0.473,-1.539 -0.473,-2.687 0,-2.094 0.67,-3.216 1.209,-4.117 0.425,-0.711 0.681,-1.141 0.681,-2.209 0,-1.069 -0.256,-1.499 -0.682,-2.211 -0.538,-0.901 -1.208,-2.024 -1.208,-4.12 0,-2.096 0.67,-3.22 1.208,-4.121 M -3.747,-5.086 c 0,-36.844 35.753,-44.24 36.114,-44.31 l 0.359,-0.071 0.359,0.071 c 0.361,0.07 36.114,7.466 36.114,44.31 l 0,26.312 -72.946,0 0,-26.312 z"
             style="fill:#000000;fill-opacity:1;fill-rule:nonzero;stroke:none"
             id="path4719" />
        </g>
        <g
           style="fill:#000000"
           id="g4721"
           transform="matrix(1.25,0,0,-1.25,381.277,292.064)">
          <path
             d="M 0,0 C 0.021,-0.009 0.033,-0.015 0.034,-0.018 L 0.001,0.048 C 0.004,0.042 0.003,0.025 0,0"
             style="fill:#000000;fill-opacity:1;fill-rule:nonzero;stroke:none"
             id="path4723" />
        </g>
        <g
           style="fill:#000000"
           id="g4725"
           transform="matrix(1.25,0,0,-1.25,375.645,292.125)">
          <path
             d="m 0,0 c -0.904,-0.46 -1.548,-1.232 -1.982,-1.948 0.071,0.834 0.003,1.837 -0.458,2.741 -0.953,1.869 -3.292,2.614 -3.617,2.686 -0.175,-0.327 -0.894,-2.631 0.058,-4.5 0.788,-1.546 2.52,-2.321 3.281,-2.584 l 0.026,-0.05 c -0.003,0.005 -0.003,0.021 0,0.041 0.058,-0.02 0.109,-0.037 0.153,-0.05 0.044,-0.016 0.095,-0.032 0.154,-0.05 -0.01,-0.018 -0.019,-0.03 -0.024,-0.033 l 0.05,0.025 c 0.77,-0.234 2.627,-0.625 4.173,0.163 1.869,0.953 2.641,3.24 2.691,3.607 C 4.2,0.181 1.869,0.953 0,0"
             style="fill:#000000;fill-opacity:1;fill-rule:nonzero;stroke:none"
             id="path4727" />
        </g>
        <g
           style="fill:#000000"
           id="g4729"
           transform="matrix(1.25,0,0,-1.25,379.477,278.74)">
          <path
             d="m 0,0 c -0.855,-0.545 -1.423,-1.374 -1.786,-2.129 -0.01,0.837 -0.174,1.829 -0.719,2.684 -1.127,1.77 -3.526,2.288 -3.857,2.328 -0.143,-0.342 -0.639,-2.704 0.489,-4.474 0.932,-1.463 2.73,-2.069 3.513,-2.258 l 0.03,-0.047 c -0.003,0.005 -0.004,0.02 -0.004,0.041 0.059,-0.014 0.112,-0.026 0.157,-0.035 0.046,-0.011 0.098,-0.023 0.158,-0.035 -0.008,-0.019 -0.015,-0.032 -0.02,-0.036 l 0.047,0.03 c 0.79,-0.159 2.675,-0.37 4.138,0.562 1.77,1.127 2.319,3.478 2.334,3.848 C 4.163,0.583 1.77,1.127 0,0"
             style="fill:#000000;fill-opacity:1;fill-rule:nonzero;stroke:none"
             id="path4731" />
        </g>
        <g
           style="fill:#000000"
           id="g4733"
           transform="matrix(1.25,0,0,-1.25,385.079,278.141)">
          <path
             d="m 0,0 c 0.022,-0.007 0.034,-0.012 0.036,-0.014 l -0.04,0.062 C 0,0.042 0.001,0.025 0,0"
             style="fill:#000000;fill-opacity:1;fill-rule:nonzero;stroke:none"
             id="path4735" />
        </g>
        <g
           style="fill:#000000"
           id="g4737"
           transform="matrix(1.25,0,0,-1.25,368.026,287.769)">
          <path
             d="M 0,0 C 0.002,0.001 0.016,-0.001 0.038,-0.006 0.05,0.017 0.06,0.03 0.066,0.033 L 0,0 Z"
             style="fill:#000000;fill-opacity:1;fill-rule:nonzero;stroke:none"
             id="path4739" />
        </g>
        <g
           style="fill:#000000"
           id="g4741"
           transform="matrix(1.25,0,0,-1.25,371.477,275.134)">
          <path
             d="M 0,0 C 0.002,0.001 0.016,0.001 0.038,-0.002 0.048,0.021 0.056,0.036 0.062,0.04 L 0,0 Z"
             style="fill:#000000;fill-opacity:1;fill-rule:nonzero;stroke:none"
             id="path4743" />
        </g>
        <g
           style="fill:#000000"
           id="g4745"
           transform="matrix(1.25,0,0,-1.25,381.453,266.166)">
          <path
             d="m 0,0 c -0.793,-0.632 -1.269,-1.518 -1.55,-2.306 -0.098,0.831 -0.367,1.8 -0.999,2.592 -1.309,1.64 -3.75,1.9 -4.083,1.906 -0.106,-0.356 -0.348,-2.757 0.961,-4.397 1.082,-1.356 2.934,-1.768 3.733,-1.873 l 0.034,-0.043 c -0.003,0.004 -0.006,0.02 -0.008,0.04 0.061,-0.008 0.115,-0.014 0.161,-0.018 0.047,-0.007 0.1,-0.013 0.16,-0.018 -0.006,-0.02 -0.012,-0.034 -0.016,-0.038 l 0.043,0.035 c 0.803,-0.074 2.699,-0.084 4.056,0.998 1.639,1.309 1.936,3.704 1.912,4.074 C 4.078,1.021 1.64,1.309 0,0"
             style="fill:#000000;fill-opacity:1;fill-rule:nonzero;stroke:none"
             id="path4747" />
        </g>
        <g
           style="fill:#000000"
           id="g4749"
           transform="matrix(1.25,0,0,-1.25,386.946,264.918)">
          <path
             d="m 0,0 c 0.004,-0.005 0.007,-0.022 0.009,-0.047 0.022,-0.005 0.035,-0.008 0.037,-0.01 L 0,0 Z"
             style="fill:#000000;fill-opacity:1;fill-rule:nonzero;stroke:none"
             id="path4751" />
        </g>
        <g
           style="fill:#000000"
           id="g4753"
           transform="matrix(1.25,0,0,-1.25,373.114,263.43)">
          <path
             d="m 0,0 c 0.002,0.002 0.016,0.002 0.038,0.002 0.008,0.024 0.014,0.04 0.02,0.044 L 0,0 Z"
             style="fill:#000000;fill-opacity:1;fill-rule:nonzero;stroke:none"
             id="path4755" />
        </g>
        <g
           style="fill:#000000"
           id="g4757"
           transform="matrix(1.25,0,0,-1.25,386.586,250.575)">
          <path
             d="M 0,0 C 0.005,-0.005 0.01,-0.021 0.014,-0.046 0.037,-0.048 0.05,-0.05 0.052,-0.052 L 0,0 Z"
             style="fill:#000000;fill-opacity:1;fill-rule:nonzero;stroke:none"
             id="path4759" />
        </g>
        <g
           style="fill:#000000"
           id="g4761"
           transform="matrix(1.25,0,0,-1.25,374.529,255.96)">
          <path
             d="m 0,0 c 1.227,-1.227 3.113,-1.429 3.919,-1.444 l 0.039,-0.04 c -0.004,0.005 -0.008,0.019 -0.012,0.039 0.061,0 0.114,-10e-4 0.161,0 0.047,-10e-4 0.1,0 0.162,0 C 4.265,-1.465 4.26,-1.479 4.256,-1.484 l 0.04,0.04 C 5.101,-1.429 6.987,-1.227 8.214,0 9.698,1.484 9.725,3.897 9.66,4.262 9.328,4.294 6.874,4.308 5.39,2.825 4.673,2.108 4.298,1.175 4.107,0.359 3.916,1.175 3.542,2.108 2.825,2.825 1.341,4.308 -1.114,4.294 -1.446,4.262 -1.511,3.897 -1.484,1.484 0,0"
             style="fill:#000000;fill-opacity:1;fill-rule:nonzero;stroke:none"
             id="path4763" />
        </g>
        <g
           style="fill:#000000"
           id="g4765"
           transform="matrix(1.25,0,0,-1.25,372.739,250.575)">
          <path
             d="m 0,0 -0.052,-0.052 c 0.002,0.002 0.015,0.004 0.038,0.006 C -0.01,-0.021 -0.005,-0.005 0,0"
             style="fill:#000000;fill-opacity:1;fill-rule:nonzero;stroke:none"
             id="path4767" />
        </g>
        <g
           style="fill:#000000"
           id="g4769"
           transform="matrix(1.25,0,0,-1.25,248.89,292.086)">
          <path
             d="M 0,0 C 0.001,0.002 0.013,0.009 0.034,0.018 0.031,0.043 0.03,0.06 0.033,0.066 L 0,0 Z"
             style="fill:#000000;fill-opacity:1;fill-rule:nonzero;stroke:none"
             id="path4771" />
        </g>
        <g
           style="fill:#000000"
           id="g4773"
           transform="matrix(1.25,0,0,-1.25,245.087,278.159)">
          <path
             d="m 0,0 c 0.002,0.002 0.014,0.007 0.036,0.014 -10e-4,0.026 0,0.042 0.004,0.048 L 0,0 Z"
             style="fill:#000000;fill-opacity:1;fill-rule:nonzero;stroke:none"
             id="path4775" />
        </g>
        <g
           style="fill:#000000"
           id="g4777"
           transform="matrix(1.25,0,0,-1.25,253.222,283.654)">
          <path
             d="M 0,0 0.047,-0.03 C 0.042,-0.027 0.035,-0.013 0.026,0.005 0.086,0.018 0.139,0.029 0.184,0.04 0.23,0.05 0.282,0.061 0.342,0.075 0.342,0.055 0.341,0.04 0.338,0.035 l 0.03,0.047 C 1.151,0.271 2.949,0.877 3.881,2.34 5.008,4.11 4.513,6.472 4.37,6.814 4.039,6.773 1.639,6.256 0.512,4.486 -0.033,3.631 -0.197,2.639 -0.206,1.802 -0.569,2.556 -1.137,3.386 -1.992,3.931 -3.762,5.058 -6.155,4.513 -6.473,4.41 -6.457,4.04 -5.908,1.689 -4.138,0.562 -2.675,-0.37 -0.79,-0.159 0,0"
             style="fill:#000000;fill-opacity:1;fill-rule:nonzero;stroke:none"
             id="path4779" />
        </g>
        <g
           style="fill:#000000"
           id="g4781"
           transform="matrix(1.25,0,0,-1.25,262.101,287.728)">
          <path
             d="m 0,0 c 0.006,-0.003 0.016,-0.017 0.028,-0.039 0.022,0.005 0.035,0.007 0.038,0.006 L 0,0 Z"
             style="fill:#000000;fill-opacity:1;fill-rule:nonzero;stroke:none"
             id="path4783" />
        </g>
        <g
           style="fill:#000000"
           id="g4785"
           transform="matrix(1.25,0,0,-1.25,257.614,291.134)">
          <path
             d="m 0,0 c -0.46,-0.903 -0.529,-1.906 -0.458,-2.741 -0.434,0.717 -1.079,1.488 -1.982,1.948 -1.869,0.953 -4.2,0.182 -4.505,0.049 0.05,-0.368 0.822,-2.654 2.691,-3.607 1.546,-0.788 3.403,-0.398 4.174,-0.163 l 0.049,-0.026 c -0.005,0.003 -0.014,0.016 -0.024,0.034 0.059,0.017 0.11,0.034 0.154,0.049 0.044,0.014 0.095,0.03 0.153,0.05 0.003,-0.02 0.003,-0.035 0.001,-0.041 l 0.025,0.05 c 0.761,0.264 2.493,1.038 3.281,2.584 0.953,1.87 0.233,4.173 0.058,4.501 C 3.291,2.614 0.953,1.869 0,0"
             style="fill:#000000;fill-opacity:1;fill-rule:nonzero;stroke:none"
             id="path4787" />
        </g>
        <g
           style="fill:#000000"
           id="g4789"
           transform="matrix(1.25,0,0,-1.25,258.655,275.084)">
          <path
             d="m 0,0 c 0.006,-0.004 0.014,-0.018 0.024,-0.042 0.022,0.003 0.036,0.004 0.038,0.002 L 0,0 Z"
             style="fill:#000000;fill-opacity:1;fill-rule:nonzero;stroke:none"
             id="path4791" />
        </g>
        <g
           style="fill:#000000"
           id="g4793"
           transform="matrix(1.25,0,0,-1.25,243.206,264.989)">
          <path
             d="M 0,0 C 0.002,0.002 0.015,0.006 0.037,0.01 0.039,0.036 0.042,0.052 0.046,0.057 L 0,0 Z"
             style="fill:#000000;fill-opacity:1;fill-rule:nonzero;stroke:none"
             id="path4795" />
        </g>
        <g
           style="fill:#000000"
           id="g4797"
           transform="matrix(1.25,0,0,-1.25,250.711,271.316)">
          <path
             d="M 0,0 0.044,-0.035 C 0.039,-0.031 0.033,-0.017 0.027,0.003 0.087,0.008 0.141,0.014 0.187,0.02 0.233,0.025 0.287,0.031 0.348,0.038 0.346,0.019 0.344,0.003 0.34,-0.002 L 0.375,0.042 C 1.173,0.147 3.025,0.558 4.108,1.915 5.416,3.555 5.174,5.956 5.069,6.312 4.735,6.306 2.294,6.046 0.986,4.406 0.353,3.614 0.085,2.645 -0.014,1.813 -0.295,2.602 -0.771,3.487 -1.564,4.12 -3.204,5.429 -5.641,5.141 -5.968,5.072 -5.992,4.702 -5.695,2.307 -4.055,0.998 -2.699,-0.084 -0.802,-0.075 0,0"
             style="fill:#000000;fill-opacity:1;fill-rule:nonzero;stroke:none"
             id="path4799" />
        </g>
        <g
           style="fill:#000000"
           id="g4801"
           transform="matrix(1.25,0,0,-1.25,257.024,263.371)">
          <path
             d="m 0,0 c 0.005,-0.004 0.012,-0.02 0.019,-0.044 0.023,0 0.036,0 0.039,-0.002 L 0,0 Z"
             style="fill:#000000;fill-opacity:1;fill-rule:nonzero;stroke:none"
             id="path4803" />
        </g>
        <g
           style="fill:#000000"
           id="g4805"
           transform="matrix(1.25,0,0,-1.25,243.624,250.575)">
          <path
             d="m 0,0 -0.052,-0.052 c 0.002,0.002 0.015,0.004 0.038,0.006 C -0.01,-0.021 -0.005,-0.005 0,0"
             style="fill:#000000;fill-opacity:1;fill-rule:nonzero;stroke:none"
             id="path4807" />
        </g>
        <g
           style="fill:#000000"
           id="g4809"
           transform="matrix(1.25,0,0,-1.25,245.414,255.96)">
          <path
             d="m 0,0 c 1.227,-1.227 3.113,-1.429 3.919,-1.444 l 0.039,-0.04 c -0.004,0.005 -0.008,0.019 -0.012,0.039 0.061,0 0.114,-10e-4 0.161,0 0.047,-10e-4 0.1,0 0.162,0 C 4.264,-1.465 4.26,-1.479 4.256,-1.484 l 0.04,0.04 C 5.101,-1.429 6.987,-1.227 8.214,0 9.698,1.484 9.725,3.897 9.66,4.262 9.328,4.294 6.873,4.308 5.39,2.825 4.673,2.108 4.298,1.175 4.107,0.359 3.916,1.175 3.541,2.108 2.824,2.825 1.341,4.308 -1.114,4.294 -1.446,4.262 -1.511,3.897 -1.484,1.484 0,0"
             style="fill:#000000;fill-opacity:1;fill-rule:nonzero;stroke:none"
             id="path4811" />
        </g>
        <g
           style="fill:#000000"
           id="g4813"
           transform="matrix(1.25,0,0,-1.25,257.471,250.575)">
          <path
             d="M 0,0 C 0.005,-0.005 0.01,-0.021 0.014,-0.046 0.037,-0.048 0.05,-0.05 0.052,-0.052 L 0,0 Z"
             style="fill:#000000;fill-opacity:1;fill-rule:nonzero;stroke:none"
             id="path4815" />
        </g>
        <g
           style="fill:#000000"
           id="g4817"
           transform="matrix(1.25,0,0,-1.25,316.208,224.985)">
          <path
             d="M 0,0 0,4.645 C 3.887,4.692 16.209,3.766 23.064,0 L 0,0 Z M 30.159,0.074 C 19.014,8.001 -0.958,8.182 -1.847,8.144 l -1.689,-0.076 0,-8.068 -34.44,0 0,-3.537 72.345,0 c -1.694,1.956 -4.21,3.611 -4.21,3.611"
             style="fill:#000000;fill-opacity:1;fill-rule:nonzero;stroke:none"
             id="path4819" />
        </g>
      </g>
      <g
         transform="matrix(3.60088,0,0,3.60088,-1036.08,-887.319)"
         id="g4821"
         style="font-variant:normal;font-weight:bold;font-stretch:normal;font-size:19.218958px;font-family:'Nanami Bold';-inkscape-font-specification:Nanami-Bold;writing-mode:lr-tb;fill:#000000;fill-opacity:1;fill-rule:nonzero;stroke:none">
        <path
           id="path4823"
           style="font-style:normal;font-variant:normal;font-weight:bold;font-stretch:normal;font-family:Nanami;-inkscape-font-specification:'Nanami Bold';fill:#000000"
           d="m 323.567,266.232 0,-14.376 8.108,0 0,3.096 -5.011,0 0,2.515 5.011,0 0,3.097 -5.011,0 0,5.668 -3.097,0 z" />
        <path
           id="path4825"
           style="font-style:normal;font-variant:normal;font-weight:bold;font-stretch:normal;font-family:Nanami;-inkscape-font-specification:'Nanami Bold';fill:#000000"
           d="m 345.798,266.232 -2.496,0 -1.652,-8.051 -2.055,8.051 -2.458,0 -3.867,-14.376 3.247,0 1.849,7.319 1.896,-7.319 2.468,0 1.839,7.301 1.849,-7.301 3.265,0 -3.885,14.376 z" />
      </g>
    </g>
    <g
       id="g4973">
      <g
         style="font-variant:normal;font-weight:bold;font-stretch:normal;font-size:19.218958px;font-family:'Nanami Bold';-inkscape-font-specification:Nanami-Bold;writing-mode:lr-tb;fill:#ffffff;fill-opacity:1;fill-rule:nonzero;stroke:none"
         id="text3490"
         transform="matrix(3.60088,0,0,3.60088,-1036.08,-887.319)">
        <path
           d="m 323.567,266.232 0,-14.376 8.108,0 0,3.096 -5.011,0 0,2.515 5.011,0 0,3.097 -5.011,0 0,5.668 -3.097,0 z"
           style="font-style:normal;font-variant:normal;font-weight:bold;font-stretch:normal;font-family:Nanami;-inkscape-font-specification:'Nanami Bold';fill:#ffffff"
           id="path3504" />
        <path
           d="m 345.798,266.232 -2.496,0 -1.652,-8.051 -2.055,8.051 -2.458,0 -3.867,-14.376 3.247,0 1.849,7.319 1.896,-7.319 2.468,0 1.839,7.301 1.849,-7.301 3.265,0 -3.885,14.376 z"
           style="font-style:normal;font-variant:normal;font-weight:bold;font-stretch:normal;font-family:Nanami;-inkscape-font-specification:'Nanami Bold';fill:#ffffff"
           id="path3506" />
      </g>
      <g
         id="g5501"
         style="fill:#ffffff"
         transform="matrix(3.60088,0,0,3.60088,-1036.08,-887.319)">
        <g
           transform="matrix(1.25,0,0,-1.25,290.72,261.961)"
           id="g3389"
           style="fill:#ffffff">
          <path
             id="path3391"
             style="fill:#ffffff;fill-opacity:1;fill-rule:nonzero;stroke:none"
             d="M 0,0 C 0.948,0 1.717,0.769 1.717,1.717 1.717,2.666 0.948,3.435 0,3.435 -0.948,3.435 -1.717,2.666 -1.717,1.717 -1.717,0.769 -0.948,0 0,0" />
        </g>
        <g
           transform="matrix(1.25,0,0,-1.25,282.192,261.961)"
           id="g3393"
           style="fill:#ffffff">
          <path
             id="path3395"
             style="fill:#ffffff;fill-opacity:1;fill-rule:nonzero;stroke:none"
             d="M 0,0 C 0.948,0 1.717,0.769 1.717,1.717 1.717,2.666 0.948,3.435 0,3.435 -0.948,3.435 -1.717,2.666 -1.717,1.717 -1.717,0.769 -0.948,0 0,0" />
        </g>
        <g
           transform="matrix(1.25,0,0,-1.25,299.249,261.961)"
           id="g3397"
           style="fill:#ffffff">
          <path
             id="path3399"
             style="fill:#ffffff;fill-opacity:1;fill-rule:nonzero;stroke:none"
             d="M 0,0 C 0.948,0 1.717,0.769 1.717,1.717 1.717,2.666 0.948,3.435 0,3.435 -0.949,3.435 -1.718,2.666 -1.718,1.717 -1.718,0.769 -0.949,0 0,0" />
        </g>
        <g
           transform="matrix(1.25,0,0,-1.25,307.777,261.961)"
           id="g3401"
           style="fill:#ffffff">
          <path
             id="path3403"
             style="fill:#ffffff;fill-opacity:1;fill-rule:nonzero;stroke:none"
             d="M 0,0 C 0.949,0 1.717,0.769 1.717,1.717 1.717,2.666 0.949,3.435 0,3.435 -0.949,3.435 -1.717,2.666 -1.717,1.717 -1.717,0.769 -0.949,0 0,0" />
        </g>
        <g
           transform="matrix(1.25,0,0,-1.25,290.72,247.413)"
           id="g3405"
           style="fill:#ffffff">
          <path
             id="path3407"
             style="fill:#ffffff;fill-opacity:1;fill-rule:nonzero;stroke:none"
             d="M 0,0 C 0.948,0 1.717,0.769 1.717,1.717 1.717,2.666 0.948,3.435 0,3.435 -0.948,3.435 -1.717,2.666 -1.717,1.717 -1.717,0.769 -0.948,0 0,0" />
        </g>
        <g
           transform="matrix(1.25,0,0,-1.25,282.192,247.413)"
           id="g3409"
           style="fill:#ffffff">
          <path
             id="path3411"
             style="fill:#ffffff;fill-opacity:1;fill-rule:nonzero;stroke:none"
             d="M 0,0 C 0.948,0 1.717,0.769 1.717,1.717 1.717,2.666 0.948,3.435 0,3.435 -0.948,3.435 -1.717,2.666 -1.717,1.717 -1.717,0.769 -0.948,0 0,0" />
        </g>
        <g
           transform="matrix(1.25,0,0,-1.25,299.249,247.413)"
           id="g3413"
           style="fill:#ffffff">
          <path
             id="path3415"
             style="fill:#ffffff;fill-opacity:1;fill-rule:nonzero;stroke:none"
             d="M 0,0 C 0.948,0 1.717,0.769 1.717,1.717 1.717,2.666 0.948,3.435 0,3.435 -0.949,3.435 -1.718,2.666 -1.718,1.717 -1.718,0.769 -0.949,0 0,0" />
        </g>
        <g
           transform="matrix(1.25,0,0,-1.25,307.777,247.413)"
           id="g3417"
           style="fill:#ffffff">
          <path
             id="path3419"
             style="fill:#ffffff;fill-opacity:1;fill-rule:nonzero;stroke:none"
             d="M 0,0 C 0.949,0 1.717,0.769 1.717,1.717 1.717,2.666 0.949,3.435 0,3.435 -0.949,3.435 -1.717,2.666 -1.717,1.717 -1.717,0.769 -0.949,0 0,0" />
        </g>
        <g
           transform="matrix(1.25,0,0,-1.25,273.221,247.413)"
           id="g3421"
           style="fill:#ffffff">
          <path
             id="path3423"
             style="fill:#ffffff;fill-opacity:1;fill-rule:nonzero;stroke:none"
             d="M 0,0 C 0.949,0 1.717,0.769 1.717,1.717 1.717,2.666 0.949,3.435 0,3.435 -0.949,3.435 -1.717,2.666 -1.717,1.717 -1.717,0.769 -0.949,0 0,0" />
        </g>
        <g
           transform="matrix(1.25,0,0,-1.25,294.985,254.706)"
           id="g3425"
           style="fill:#ffffff">
          <path
             id="path3427"
             style="fill:#ffffff;fill-opacity:1;fill-rule:nonzero;stroke:none"
             d="M 0,0 C 0.948,0 1.717,0.769 1.717,1.717 1.717,2.666 0.948,3.435 0,3.435 -0.949,3.435 -1.717,2.666 -1.717,1.717 -1.717,0.769 -0.949,0 0,0" />
        </g>
        <g
           transform="matrix(1.25,0,0,-1.25,286.235,254.706)"
           id="g3429"
           style="fill:#ffffff">
          <path
             id="path3431"
             style="fill:#ffffff;fill-opacity:1;fill-rule:nonzero;stroke:none"
             d="M 0,0 C 0.948,0 1.717,0.769 1.717,1.717 1.717,2.666 0.948,3.435 0,3.435 -0.948,3.435 -1.717,2.666 -1.717,1.717 -1.717,0.769 -0.948,0 0,0" />
        </g>
        <g
           transform="matrix(1.25,0,0,-1.25,303.735,254.706)"
           id="g3433"
           style="fill:#ffffff">
          <path
             id="path3435"
             style="fill:#ffffff;fill-opacity:1;fill-rule:nonzero;stroke:none"
             d="M 0,0 C 0.949,0 1.717,0.769 1.717,1.717 1.717,2.666 0.949,3.435 0,3.435 -0.949,3.435 -1.717,2.666 -1.717,1.717 -1.717,0.769 -0.949,0 0,0" />
        </g>
        <g
           transform="matrix(1.25,0,0,-1.25,277.485,254.706)"
           id="g3437"
           style="fill:#ffffff">
          <path
             id="path3439"
             style="fill:#ffffff;fill-opacity:1;fill-rule:nonzero;stroke:none"
             d="M 0,0 C 0.948,0 1.717,0.769 1.717,1.717 1.717,2.666 0.948,3.435 0,3.435 -0.948,3.435 -1.717,2.666 -1.717,1.717 -1.717,0.769 -0.948,0 0,0" />
        </g>
        <g
           transform="matrix(1.25,0,0,-1.25,290.72,276.474)"
           id="g3441"
           style="fill:#ffffff">
          <path
             id="path3443"
             style="fill:#ffffff;fill-opacity:1;fill-rule:nonzero;stroke:none"
             d="M 0,0 C 0.948,0 1.717,0.769 1.717,1.717 1.717,2.666 0.948,3.435 0,3.435 -0.948,3.435 -1.717,2.666 -1.717,1.717 -1.717,0.769 -0.948,0 0,0" />
        </g>
        <g
           transform="matrix(1.25,0,0,-1.25,282.192,276.474)"
           id="g3445"
           style="fill:#ffffff">
          <path
             id="path3447"
             style="fill:#ffffff;fill-opacity:1;fill-rule:nonzero;stroke:none"
             d="M 0,0 C 0.948,0 1.717,0.769 1.717,1.717 1.717,2.666 0.948,3.435 0,3.435 -0.948,3.435 -1.717,2.666 -1.717,1.717 -1.717,0.769 -0.948,0 0,0" />
        </g>
        <g
           transform="matrix(1.25,0,0,-1.25,299.249,272.18)"
           id="g3449"
           style="fill:#ffffff">
          <path
             id="path3451"
             style="fill:#ffffff;fill-opacity:1;fill-rule:nonzero;stroke:none"
             d="m 0,0 c -0.949,0 -1.718,-0.769 -1.718,-1.718 0,-0.948 0.769,-1.717 1.718,-1.717 0.948,0 1.717,0.769 1.717,1.717 C 1.717,-0.769 0.948,0 0,0" />
        </g>
        <g
           transform="matrix(1.25,0,0,-1.25,307.777,272.18)"
           id="g3453"
           style="fill:#ffffff">
          <path
             id="path3455"
             style="fill:#ffffff;fill-opacity:1;fill-rule:nonzero;stroke:none"
             d="m 0,0 c -0.949,0 -1.717,-0.769 -1.717,-1.718 0,-0.948 0.768,-1.717 1.717,-1.717 0.949,0 1.717,0.769 1.717,1.717 C 1.717,-0.769 0.949,0 0,0" />
        </g>
        <g
           transform="matrix(1.25,0,0,-1.25,297.131,267.071)"
           id="g3457"
           style="fill:#ffffff">
          <path
             id="path3459"
             style="fill:#ffffff;fill-opacity:1;fill-rule:nonzero;stroke:none"
             d="m 0,0 c 0,0.948 -0.769,1.717 -1.717,1.717 -0.949,0 -1.718,-0.769 -1.718,-1.717 0,-0.949 0.769,-1.718 1.718,-1.718 C -0.769,-1.718 0,-0.949 0,0" />
        </g>
        <g
           transform="matrix(1.25,0,0,-1.25,286.235,264.924)"
           id="g3461"
           style="fill:#ffffff">
          <path
             id="path3463"
             style="fill:#ffffff;fill-opacity:1;fill-rule:nonzero;stroke:none"
             d="m 0,0 c -0.948,0 -1.717,-0.769 -1.717,-1.717 0,-0.949 0.769,-1.718 1.717,-1.718 0.948,0 1.717,0.769 1.717,1.718 C 1.717,-0.769 0.948,0 0,0" />
        </g>
        <g
           transform="matrix(1.25,0,0,-1.25,303.735,269.218)"
           id="g3465"
           style="fill:#ffffff">
          <path
             id="path3467"
             style="fill:#ffffff;fill-opacity:1;fill-rule:nonzero;stroke:none"
             d="M 0,0 C 0.949,0 1.717,0.769 1.717,1.718 1.717,2.666 0.949,3.435 0,3.435 -0.949,3.435 -1.717,2.666 -1.717,1.718 -1.717,0.769 -0.949,0 0,0" />
        </g>
        <g
           transform="matrix(1.25,0,0,-1.25,277.485,269.218)"
           id="g3469"
           style="fill:#ffffff">
          <path
             id="path3471"
             style="fill:#ffffff;fill-opacity:1;fill-rule:nonzero;stroke:none"
             d="M 0,0 C 0.948,0 1.717,0.769 1.717,1.718 1.717,2.666 0.948,3.435 0,3.435 -0.948,3.435 -1.717,2.666 -1.717,1.718 -1.717,0.769 -0.948,0 0,0" />
        </g>
        <g
           transform="matrix(1.25,0,0,-1.25,290.72,290.985)"
           id="g3473"
           style="fill:#ffffff">
          <path
             id="path3475"
             style="fill:#ffffff;fill-opacity:1;fill-rule:nonzero;stroke:none"
             d="M 0,0 C 0.948,0 1.717,0.769 1.717,1.718 1.717,2.666 0.948,3.435 0,3.435 -0.948,3.435 -1.717,2.666 -1.717,1.718 -1.717,0.769 -0.948,0 0,0" />
        </g>
        <g
           transform="matrix(1.25,0,0,-1.25,282.192,290.985)"
           id="g3477"
           style="fill:#ffffff">
          <path
             id="path3479"
             style="fill:#ffffff;fill-opacity:1;fill-rule:nonzero;stroke:none"
             d="M 0,0 C 0.948,0 1.717,0.769 1.717,1.718 1.717,2.666 0.948,3.435 0,3.435 -0.948,3.435 -1.717,2.666 -1.717,1.718 -1.717,0.769 -0.948,0 0,0" />
        </g>
        <g
           transform="matrix(1.25,0,0,-1.25,299.249,286.691)"
           id="g3481"
           style="fill:#ffffff">
          <path
             id="path3483"
             style="fill:#ffffff;fill-opacity:1;fill-rule:nonzero;stroke:none"
             d="m 0,0 c -0.949,0 -1.718,-0.769 -1.718,-1.717 0,-0.949 0.769,-1.718 1.718,-1.718 0.948,0 1.717,0.769 1.717,1.718 C 1.717,-0.769 0.948,0 0,0" />
        </g>
        <g
           transform="matrix(1.25,0,0,-1.25,307.777,286.691)"
           id="g3485"
           style="fill:#ffffff">
          <path
             id="path3487"
             style="fill:#ffffff;fill-opacity:1;fill-rule:nonzero;stroke:none"
             d="m 0,0 c -0.949,0 -1.717,-0.769 -1.717,-1.717 0,-0.949 0.768,-1.718 1.717,-1.718 0.949,0 1.717,0.769 1.717,1.718 C 1.717,-0.769 0.949,0 0,0" />
        </g>
        <g
           transform="matrix(1.25,0,0,-1.25,294.985,283.729)"
           id="g3489"
           style="fill:#ffffff">
          <path
             id="path3491"
             style="fill:#ffffff;fill-opacity:1;fill-rule:nonzero;stroke:none"
             d="M 0,0 C 0.948,0 1.717,0.769 1.717,1.717 1.717,2.666 0.948,3.435 0,3.435 -0.949,3.435 -1.717,2.666 -1.717,1.717 -1.717,0.769 -0.949,0 0,0" />
        </g>
        <g
           transform="matrix(1.25,0,0,-1.25,286.235,279.436)"
           id="g3493"
           style="fill:#ffffff">
          <path
             id="path3495"
             style="fill:#ffffff;fill-opacity:1;fill-rule:nonzero;stroke:none"
             d="m 0,0 c -0.948,0 -1.717,-0.769 -1.717,-1.717 0,-0.949 0.769,-1.718 1.717,-1.718 0.948,0 1.717,0.769 1.717,1.718 C 1.717,-0.769 0.948,0 0,0" />
        </g>
        <g
           transform="matrix(1.25,0,0,-1.25,303.735,283.729)"
           id="g3497"
           style="fill:#ffffff">
          <path
             id="path3499"
             style="fill:#ffffff;fill-opacity:1;fill-rule:nonzero;stroke:none"
             d="M 0,0 C 0.949,0 1.717,0.769 1.717,1.717 1.717,2.666 0.949,3.435 0,3.435 -0.949,3.435 -1.717,2.666 -1.717,1.717 -1.717,0.769 -0.949,0 0,0" />
        </g>
        <g
           transform="matrix(1.25,0,0,-1.25,277.485,283.729)"
           id="g3501"
           style="fill:#ffffff">
          <path
             id="path3503"
             style="fill:#ffffff;fill-opacity:1;fill-rule:nonzero;stroke:none"
             d="M 0,0 C 0.948,0 1.717,0.769 1.717,1.717 1.717,2.666 0.948,3.435 0,3.435 -0.948,3.435 -1.717,2.666 -1.717,1.717 -1.717,0.769 -0.948,0 0,0" />
        </g>
        <g
           transform="matrix(1.25,0,0,-1.25,290.72,305.496)"
           id="g3505"
           style="fill:#ffffff">
          <path
             id="path3507"
             style="fill:#ffffff;fill-opacity:1;fill-rule:nonzero;stroke:none"
             d="M 0,0 C 0.948,0 1.717,0.769 1.717,1.717 1.717,2.666 0.948,3.435 0,3.435 -0.948,3.435 -1.717,2.666 -1.717,1.717 -1.717,0.769 -0.948,0 0,0" />
        </g>
        <g
           transform="matrix(1.25,0,0,-1.25,299.249,301.203)"
           id="g3509"
           style="fill:#ffffff">
          <path
             id="path3511"
             style="fill:#ffffff;fill-opacity:1;fill-rule:nonzero;stroke:none"
             d="m 0,0 c -0.949,0 -1.718,-0.769 -1.718,-1.717 0,-0.949 0.769,-1.718 1.718,-1.718 0.948,0 1.717,0.769 1.717,1.718 C 1.717,-0.769 0.948,0 0,0" />
        </g>
        <g
           transform="matrix(1.25,0,0,-1.25,307.777,301.203)"
           id="g3513"
           style="fill:#ffffff">
          <path
             id="path3515"
             style="fill:#ffffff;fill-opacity:1;fill-rule:nonzero;stroke:none"
             d="m 0,0 c -0.949,0 -1.717,-0.769 -1.717,-1.717 0,-0.949 0.768,-1.718 1.717,-1.718 0.949,0 1.717,0.769 1.717,1.718 C 1.717,-0.769 0.949,0 0,0" />
        </g>
        <g
           transform="matrix(1.25,0,0,-1.25,294.985,293.948)"
           id="g3517"
           style="fill:#ffffff">
          <path
             id="path3519"
             style="fill:#ffffff;fill-opacity:1;fill-rule:nonzero;stroke:none"
             d="m 0,0 c -0.949,0 -1.717,-0.769 -1.717,-1.718 0,-0.948 0.768,-1.717 1.717,-1.717 0.948,0 1.717,0.769 1.717,1.717 C 1.717,-0.769 0.948,0 0,0" />
        </g>
        <g
           transform="matrix(1.25,0,0,-1.25,286.235,293.948)"
           id="g3521"
           style="fill:#ffffff">
          <path
             id="path3523"
             style="fill:#ffffff;fill-opacity:1;fill-rule:nonzero;stroke:none"
             d="m 0,0 c -0.948,0 -1.717,-0.769 -1.717,-1.718 0,-0.948 0.769,-1.717 1.717,-1.717 0.948,0 1.717,0.769 1.717,1.717 C 1.717,-0.769 0.948,0 0,0" />
        </g>
        <g
           transform="matrix(1.25,0,0,-1.25,303.735,298.241)"
           id="g3525"
           style="fill:#ffffff">
          <path
             id="path3527"
             style="fill:#ffffff;fill-opacity:1;fill-rule:nonzero;stroke:none"
             d="M 0,0 C 0.949,0 1.717,0.769 1.717,1.717 1.717,2.666 0.949,3.435 0,3.435 -0.949,3.435 -1.717,2.666 -1.717,1.717 -1.717,0.769 -0.949,0 0,0" />
        </g>
        <g
           transform="matrix(1.25,0,0,-1.25,303.735,312.753)"
           id="g3529"
           style="fill:#ffffff">
          <path
             id="path3531"
             style="fill:#ffffff;fill-opacity:1;fill-rule:nonzero;stroke:none"
             d="M 0,0 C 0.949,0 1.717,0.769 1.717,1.718 1.717,2.666 0.949,3.435 0,3.435 -0.949,3.435 -1.717,2.666 -1.717,1.718 -1.717,0.769 -0.949,0 0,0" />
        </g>
        <g
           transform="matrix(1.25,0,0,-1.25,273.406,261.945)"
           id="g3533"
           style="fill:#ffffff">
          <path
             id="path3535"
             style="fill:#ffffff;fill-opacity:1;fill-rule:nonzero;stroke:none"
             d="M 0,0 C 0.883,0.071 1.581,0.802 1.581,1.704 1.581,2.605 0.883,3.336 0,3.407 l 0,14.072 30.958,0 0,-62.668 c -2.562,0.724 -7.085,2.283 -11.901,5.229 0.22,0.288 0.358,0.641 0.358,1.031 0,0.949 -0.769,1.718 -1.717,1.718 -0.636,0 -1.174,-0.356 -1.471,-0.869 -7.11,5.128 -14.126,13.463 -15.827,26.741 0.472,0.306 0.791,0.829 0.791,1.433 0,0.725 -0.449,1.341 -1.084,1.594 C 0.041,-7.263 0,-6.192 0,-5.086 L 0,0 Z m 65.452,17.479 0,-22.565 c 0,-2.95 -0.257,-5.678 -0.702,-8.226 l -30.256,0 0,30.791 30.958,0 z m -4.035,-37.015 c 0,1.137 0.197,1.987 0.463,2.671 0,0.01 0,0.01 0.01,0.016 l 2.097,0 c -0.537,-2.019 -1.202,-3.906 -1.976,-5.663 -0.329,0.734 -0.592,1.664 -0.592,2.976 m -1.949,-7.753 c -1.547,-2.455 -3.303,-4.598 -5.166,-6.467 -0.089,0.457 -0.147,0.967 -0.147,1.563 0,2.096 0.669,3.219 1.208,4.12 0.425,0.712 0.682,1.142 0.682,2.211 0,1.068 -0.257,1.498 -0.682,2.209 -0.538,0.901 -1.208,2.023 -1.208,4.117 0,1.115 0.189,1.954 0.447,2.631 0.01,0.021 0.018,0.036 0.026,0.056 l 3.679,0 c -0.27,-0.687 -0.471,-1.54 -0.471,-2.687 0,-2.094 0.67,-3.216 1.208,-4.117 0.425,-0.711 0.682,-1.141 0.682,-2.209 0,-0.639 -0.093,-1.048 -0.258,-1.427 m -7.686,-0.784 c -0.539,-0.901 -1.208,-2.024 -1.208,-4.12 0,-1.98 0.596,-3.089 1.116,-3.966 -0.833,-0.699 -1.675,-1.354 -2.519,-1.961 -0.054,-0.039 -0.114,-0.069 -0.161,-0.117 -0.082,-0.059 -0.164,-0.111 -0.246,-0.169 -0.02,0.979 -0.27,1.408 -0.679,2.092 -0.538,0.901 -1.207,2.025 -1.207,4.121 0,2.096 0.669,3.219 1.208,4.12 0.425,0.712 0.682,1.142 0.682,2.211 0,1.068 -0.257,1.498 -0.682,2.209 -0.538,0.901 -1.208,2.023 -1.208,4.117 0,1.147 0.201,2 0.471,2.687 l 3.695,0 c -10e-4,0 0,0 0,0 -0.268,-0.686 -0.467,-1.539 -0.467,-2.682 0,-2.094 0.67,-3.216 1.208,-4.117 0.425,-0.711 0.682,-1.141 0.682,-2.209 0,-1.069 -0.257,-1.499 -0.682,-2.211 m -7.278,-8.241 c 0.426,-0.713 0.683,-1.143 0.683,-2.215 0,-1.07 -0.257,-1.501 -0.682,-2.213 -0.086,-0.145 -0.176,-0.299 -0.266,-0.458 -1.552,-0.839 -3.041,-1.538 -4.413,-2.112 0.225,1.154 0.675,1.922 1.062,2.57 0.426,0.712 0.682,1.143 0.682,2.213 0,1.072 -0.256,1.502 -0.682,2.215 -0.538,0.901 -1.208,2.025 -1.208,4.121 0,2.096 0.67,3.219 1.208,4.12 0.426,0.712 0.682,1.142 0.682,2.211 0,1.068 -0.256,1.498 -0.681,2.209 -0.539,0.901 -1.209,2.023 -1.209,4.117 0,1.147 0.201,2 0.471,2.687 l 3.616,0 c -0.27,-0.686 -0.47,-1.541 -0.47,-2.687 0,-2.094 0.67,-3.216 1.208,-4.117 0.425,-0.711 0.682,-1.141 0.682,-2.209 0,-1.069 -0.257,-1.499 -0.682,-2.211 -0.539,-0.901 -1.208,-2.024 -1.208,-4.12 0,-2.096 0.669,-3.22 1.207,-4.121 m -7.197,0 c 0.426,-0.713 0.682,-1.143 0.682,-2.215 0,-1.07 -0.256,-1.501 -0.682,-2.213 -0.523,-0.877 -1.166,-1.97 -1.201,-3.957 -0.599,-0.195 -1.137,-0.356 -1.612,-0.49 l 0,28.34 2.078,0 c -0.271,-0.687 -0.473,-1.539 -0.473,-2.687 0,-2.094 0.67,-3.216 1.209,-4.117 0.425,-0.711 0.681,-1.141 0.681,-2.209 0,-1.069 -0.256,-1.499 -0.682,-2.211 -0.538,-0.901 -1.208,-2.024 -1.208,-4.12 0,-2.096 0.67,-3.22 1.208,-4.121 M -3.747,-5.086 c 0,-36.844 35.753,-44.24 36.114,-44.31 l 0.359,-0.071 0.359,0.071 c 0.361,0.07 36.114,7.466 36.114,44.31 l 0,26.312 -72.946,0 0,-26.312 z" />
        </g>
        <g
           transform="matrix(1.25,0,0,-1.25,381.277,292.064)"
           id="g3537"
           style="fill:#ffffff">
          <path
             id="path3539"
             style="fill:#ffffff;fill-opacity:1;fill-rule:nonzero;stroke:none"
             d="M 0,0 C 0.021,-0.009 0.033,-0.015 0.034,-0.018 L 0.001,0.048 C 0.004,0.042 0.003,0.025 0,0" />
        </g>
        <g
           transform="matrix(1.25,0,0,-1.25,375.645,292.125)"
           id="g3541"
           style="fill:#ffffff">
          <path
             id="path3543"
             style="fill:#ffffff;fill-opacity:1;fill-rule:nonzero;stroke:none"
             d="m 0,0 c -0.904,-0.46 -1.548,-1.232 -1.982,-1.948 0.071,0.834 0.003,1.837 -0.458,2.741 -0.953,1.869 -3.292,2.614 -3.617,2.686 -0.175,-0.327 -0.894,-2.631 0.058,-4.5 0.788,-1.546 2.52,-2.321 3.281,-2.584 l 0.026,-0.05 c -0.003,0.005 -0.003,0.021 0,0.041 0.058,-0.02 0.109,-0.037 0.153,-0.05 0.044,-0.016 0.095,-0.032 0.154,-0.05 -0.01,-0.018 -0.019,-0.03 -0.024,-0.033 l 0.05,0.025 c 0.77,-0.234 2.627,-0.625 4.173,0.163 1.869,0.953 2.641,3.24 2.691,3.607 C 4.2,0.181 1.869,0.953 0,0" />
        </g>
        <g
           transform="matrix(1.25,0,0,-1.25,379.477,278.74)"
           id="g3545"
           style="fill:#ffffff">
          <path
             id="path3547"
             style="fill:#ffffff;fill-opacity:1;fill-rule:nonzero;stroke:none"
             d="m 0,0 c -0.855,-0.545 -1.423,-1.374 -1.786,-2.129 -0.01,0.837 -0.174,1.829 -0.719,2.684 -1.127,1.77 -3.526,2.288 -3.857,2.328 -0.143,-0.342 -0.639,-2.704 0.489,-4.474 0.932,-1.463 2.73,-2.069 3.513,-2.258 l 0.03,-0.047 c -0.003,0.005 -0.004,0.02 -0.004,0.041 0.059,-0.014 0.112,-0.026 0.157,-0.035 0.046,-0.011 0.098,-0.023 0.158,-0.035 -0.008,-0.019 -0.015,-0.032 -0.02,-0.036 l 0.047,0.03 c 0.79,-0.159 2.675,-0.37 4.138,0.562 1.77,1.127 2.319,3.478 2.334,3.848 C 4.163,0.583 1.77,1.127 0,0" />
        </g>
        <g
           transform="matrix(1.25,0,0,-1.25,385.079,278.141)"
           id="g3549"
           style="fill:#ffffff">
          <path
             id="path3551"
             style="fill:#ffffff;fill-opacity:1;fill-rule:nonzero;stroke:none"
             d="m 0,0 c 0.022,-0.007 0.034,-0.012 0.036,-0.014 l -0.04,0.062 C 0,0.042 0.001,0.025 0,0" />
        </g>
        <g
           transform="matrix(1.25,0,0,-1.25,368.026,287.769)"
           id="g3553"
           style="fill:#ffffff">
          <path
             id="path3555"
             style="fill:#ffffff;fill-opacity:1;fill-rule:nonzero;stroke:none"
             d="M 0,0 C 0.002,0.001 0.016,-0.001 0.038,-0.006 0.05,0.017 0.06,0.03 0.066,0.033 L 0,0 Z" />
        </g>
        <g
           transform="matrix(1.25,0,0,-1.25,371.477,275.134)"
           id="g3557"
           style="fill:#ffffff">
          <path
             id="path3559"
             style="fill:#ffffff;fill-opacity:1;fill-rule:nonzero;stroke:none"
             d="M 0,0 C 0.002,0.001 0.016,0.001 0.038,-0.002 0.048,0.021 0.056,0.036 0.062,0.04 L 0,0 Z" />
        </g>
        <g
           transform="matrix(1.25,0,0,-1.25,381.453,266.166)"
           id="g3561"
           style="fill:#ffffff">
          <path
             id="path3563"
             style="fill:#ffffff;fill-opacity:1;fill-rule:nonzero;stroke:none"
             d="m 0,0 c -0.793,-0.632 -1.269,-1.518 -1.55,-2.306 -0.098,0.831 -0.367,1.8 -0.999,2.592 -1.309,1.64 -3.75,1.9 -4.083,1.906 -0.106,-0.356 -0.348,-2.757 0.961,-4.397 1.082,-1.356 2.934,-1.768 3.733,-1.873 l 0.034,-0.043 c -0.003,0.004 -0.006,0.02 -0.008,0.04 0.061,-0.008 0.115,-0.014 0.161,-0.018 0.047,-0.007 0.1,-0.013 0.16,-0.018 -0.006,-0.02 -0.012,-0.034 -0.016,-0.038 l 0.043,0.035 c 0.803,-0.074 2.699,-0.084 4.056,0.998 1.639,1.309 1.936,3.704 1.912,4.074 C 4.078,1.021 1.64,1.309 0,0" />
        </g>
        <g
           transform="matrix(1.25,0,0,-1.25,386.946,264.918)"
           id="g3565"
           style="fill:#ffffff">
          <path
             id="path3567"
             style="fill:#ffffff;fill-opacity:1;fill-rule:nonzero;stroke:none"
             d="m 0,0 c 0.004,-0.005 0.007,-0.022 0.009,-0.047 0.022,-0.005 0.035,-0.008 0.037,-0.01 L 0,0 Z" />
        </g>
        <g
           transform="matrix(1.25,0,0,-1.25,373.114,263.43)"
           id="g3569"
           style="fill:#ffffff">
          <path
             id="path3571"
             style="fill:#ffffff;fill-opacity:1;fill-rule:nonzero;stroke:none"
             d="m 0,0 c 0.002,0.002 0.016,0.002 0.038,0.002 0.008,0.024 0.014,0.04 0.02,0.044 L 0,0 Z" />
        </g>
        <g
           transform="matrix(1.25,0,0,-1.25,386.586,250.575)"
           id="g3573"
           style="fill:#ffffff">
          <path
             id="path3575"
             style="fill:#ffffff;fill-opacity:1;fill-rule:nonzero;stroke:none"
             d="M 0,0 C 0.005,-0.005 0.01,-0.021 0.014,-0.046 0.037,-0.048 0.05,-0.05 0.052,-0.052 L 0,0 Z" />
        </g>
        <g
           transform="matrix(1.25,0,0,-1.25,374.529,255.96)"
           id="g3577"
           style="fill:#ffffff">
          <path
             id="path3579"
             style="fill:#ffffff;fill-opacity:1;fill-rule:nonzero;stroke:none"
             d="m 0,0 c 1.227,-1.227 3.113,-1.429 3.919,-1.444 l 0.039,-0.04 c -0.004,0.005 -0.008,0.019 -0.012,0.039 0.061,0 0.114,-10e-4 0.161,0 0.047,-10e-4 0.1,0 0.162,0 C 4.265,-1.465 4.26,-1.479 4.256,-1.484 l 0.04,0.04 C 5.101,-1.429 6.987,-1.227 8.214,0 9.698,1.484 9.725,3.897 9.66,4.262 9.328,4.294 6.874,4.308 5.39,2.825 4.673,2.108 4.298,1.175 4.107,0.359 3.916,1.175 3.542,2.108 2.825,2.825 1.341,4.308 -1.114,4.294 -1.446,4.262 -1.511,3.897 -1.484,1.484 0,0" />
        </g>
        <g
           transform="matrix(1.25,0,0,-1.25,372.739,250.575)"
           id="g3581"
           style="fill:#ffffff">
          <path
             id="path3583"
             style="fill:#ffffff;fill-opacity:1;fill-rule:nonzero;stroke:none"
             d="m 0,0 -0.052,-0.052 c 0.002,0.002 0.015,0.004 0.038,0.006 C -0.01,-0.021 -0.005,-0.005 0,0" />
        </g>
        <g
           transform="matrix(1.25,0,0,-1.25,248.89,292.086)"
           id="g3585"
           style="fill:#ffffff">
          <path
             id="path3587"
             style="fill:#ffffff;fill-opacity:1;fill-rule:nonzero;stroke:none"
             d="M 0,0 C 0.001,0.002 0.013,0.009 0.034,0.018 0.031,0.043 0.03,0.06 0.033,0.066 L 0,0 Z" />
        </g>
        <g
           transform="matrix(1.25,0,0,-1.25,245.087,278.159)"
           id="g3589"
           style="fill:#ffffff">
          <path
             id="path3591"
             style="fill:#ffffff;fill-opacity:1;fill-rule:nonzero;stroke:none"
             d="m 0,0 c 0.002,0.002 0.014,0.007 0.036,0.014 -10e-4,0.026 0,0.042 0.004,0.048 L 0,0 Z" />
        </g>
        <g
           transform="matrix(1.25,0,0,-1.25,253.222,283.654)"
           id="g3593"
           style="fill:#ffffff">
          <path
             id="path3595"
             style="fill:#ffffff;fill-opacity:1;fill-rule:nonzero;stroke:none"
             d="M 0,0 0.047,-0.03 C 0.042,-0.027 0.035,-0.013 0.026,0.005 0.086,0.018 0.139,0.029 0.184,0.04 0.23,0.05 0.282,0.061 0.342,0.075 0.342,0.055 0.341,0.04 0.338,0.035 l 0.03,0.047 C 1.151,0.271 2.949,0.877 3.881,2.34 5.008,4.11 4.513,6.472 4.37,6.814 4.039,6.773 1.639,6.256 0.512,4.486 -0.033,3.631 -0.197,2.639 -0.206,1.802 -0.569,2.556 -1.137,3.386 -1.992,3.931 -3.762,5.058 -6.155,4.513 -6.473,4.41 -6.457,4.04 -5.908,1.689 -4.138,0.562 -2.675,-0.37 -0.79,-0.159 0,0" />
        </g>
        <g
           transform="matrix(1.25,0,0,-1.25,262.101,287.728)"
           id="g3597"
           style="fill:#ffffff">
          <path
             id="path3599"
             style="fill:#ffffff;fill-opacity:1;fill-rule:nonzero;stroke:none"
             d="m 0,0 c 0.006,-0.003 0.016,-0.017 0.028,-0.039 0.022,0.005 0.035,0.007 0.038,0.006 L 0,0 Z" />
        </g>
        <g
           transform="matrix(1.25,0,0,-1.25,257.614,291.134)"
           id="g3601"
           style="fill:#ffffff">
          <path
             id="path3603"
             style="fill:#ffffff;fill-opacity:1;fill-rule:nonzero;stroke:none"
             d="m 0,0 c -0.46,-0.903 -0.529,-1.906 -0.458,-2.741 -0.434,0.717 -1.079,1.488 -1.982,1.948 -1.869,0.953 -4.2,0.182 -4.505,0.049 0.05,-0.368 0.822,-2.654 2.691,-3.607 1.546,-0.788 3.403,-0.398 4.174,-0.163 l 0.049,-0.026 c -0.005,0.003 -0.014,0.016 -0.024,0.034 0.059,0.017 0.11,0.034 0.154,0.049 0.044,0.014 0.095,0.03 0.153,0.05 0.003,-0.02 0.003,-0.035 0.001,-0.041 l 0.025,0.05 c 0.761,0.264 2.493,1.038 3.281,2.584 0.953,1.87 0.233,4.173 0.058,4.501 C 3.291,2.614 0.953,1.869 0,0" />
        </g>
        <g
           transform="matrix(1.25,0,0,-1.25,258.655,275.084)"
           id="g3605"
           style="fill:#ffffff">
          <path
             id="path3607"
             style="fill:#ffffff;fill-opacity:1;fill-rule:nonzero;stroke:none"
             d="m 0,0 c 0.006,-0.004 0.014,-0.018 0.024,-0.042 0.022,0.003 0.036,0.004 0.038,0.002 L 0,0 Z" />
        </g>
        <g
           transform="matrix(1.25,0,0,-1.25,243.206,264.989)"
           id="g3609"
           style="fill:#ffffff">
          <path
             id="path3611"
             style="fill:#ffffff;fill-opacity:1;fill-rule:nonzero;stroke:none"
             d="M 0,0 C 0.002,0.002 0.015,0.006 0.037,0.01 0.039,0.036 0.042,0.052 0.046,0.057 L 0,0 Z" />
        </g>
        <g
           transform="matrix(1.25,0,0,-1.25,250.711,271.316)"
           id="g3613"
           style="fill:#ffffff">
          <path
             id="path3615"
             style="fill:#ffffff;fill-opacity:1;fill-rule:nonzero;stroke:none"
             d="M 0,0 0.044,-0.035 C 0.039,-0.031 0.033,-0.017 0.027,0.003 0.087,0.008 0.141,0.014 0.187,0.02 0.233,0.025 0.287,0.031 0.348,0.038 0.346,0.019 0.344,0.003 0.34,-0.002 L 0.375,0.042 C 1.173,0.147 3.025,0.558 4.108,1.915 5.416,3.555 5.174,5.956 5.069,6.312 4.735,6.306 2.294,6.046 0.986,4.406 0.353,3.614 0.085,2.645 -0.014,1.813 -0.295,2.602 -0.771,3.487 -1.564,4.12 -3.204,5.429 -5.641,5.141 -5.968,5.072 -5.992,4.702 -5.695,2.307 -4.055,0.998 -2.699,-0.084 -0.802,-0.075 0,0" />
        </g>
        <g
           transform="matrix(1.25,0,0,-1.25,257.024,263.371)"
           id="g3617"
           style="fill:#ffffff">
          <path
             id="path3619"
             style="fill:#ffffff;fill-opacity:1;fill-rule:nonzero;stroke:none"
             d="m 0,0 c 0.005,-0.004 0.012,-0.02 0.019,-0.044 0.023,0 0.036,0 0.039,-0.002 L 0,0 Z" />
        </g>
        <g
           transform="matrix(1.25,0,0,-1.25,243.624,250.575)"
           id="g3621"
           style="fill:#ffffff">
          <path
             id="path3623"
             style="fill:#ffffff;fill-opacity:1;fill-rule:nonzero;stroke:none"
             d="m 0,0 -0.052,-0.052 c 0.002,0.002 0.015,0.004 0.038,0.006 C -0.01,-0.021 -0.005,-0.005 0,0" />
        </g>
        <g
           transform="matrix(1.25,0,0,-1.25,245.414,255.96)"
           id="g3625"
           style="fill:#ffffff">
          <path
             id="path3627"
             style="fill:#ffffff;fill-opacity:1;fill-rule:nonzero;stroke:none"
             d="m 0,0 c 1.227,-1.227 3.113,-1.429 3.919,-1.444 l 0.039,-0.04 c -0.004,0.005 -0.008,0.019 -0.012,0.039 0.061,0 0.114,-10e-4 0.161,0 0.047,-10e-4 0.1,0 0.162,0 C 4.264,-1.465 4.26,-1.479 4.256,-1.484 l 0.04,0.04 C 5.101,-1.429 6.987,-1.227 8.214,0 9.698,1.484 9.725,3.897 9.66,4.262 9.328,4.294 6.873,4.308 5.39,2.825 4.673,2.108 4.298,1.175 4.107,0.359 3.916,1.175 3.541,2.108 2.824,2.825 1.341,4.308 -1.114,4.294 -1.446,4.262 -1.511,3.897 -1.484,1.484 0,0" />
        </g>
        <g
           transform="matrix(1.25,0,0,-1.25,257.471,250.575)"
           id="g3629"
           style="fill:#ffffff">
          <path
             id="path3631"
             style="fill:#ffffff;fill-opacity:1;fill-rule:nonzero;stroke:none"
             d="M 0,0 C 0.005,-0.005 0.01,-0.021 0.014,-0.046 0.037,-0.048 0.05,-0.05 0.052,-0.052 L 0,0 Z" />
        </g>
        <g
           transform="matrix(1.25,0,0,-1.25,316.208,224.985)"
           id="g3633"
           style="fill:#ffffff">
          <path
             id="path3635"
             style="fill:#ffffff;fill-opacity:1;fill-rule:nonzero;stroke:none"
             d="M 0,0 0,4.645 C 3.887,4.692 16.209,3.766 23.064,0 L 0,0 Z M 30.159,0.074 C 19.014,8.001 -0.958,8.182 -1.847,8.144 l -1.689,-0.076 0,-8.068 -34.44,0 0,-3.537 72.345,0 c -1.694,1.956 -4.21,3.611 -4.21,3.611" />
        </g>
      </g>
    </g>
  </g>
</svg>
