<?xml version="1.0" encoding="UTF-8" standalone="no"?>
<!-- Created with Inkscape (http://www.inkscape.org/) -->

<svg
   xmlns:dc="http://purl.org/dc/elements/1.1/"
   xmlns:cc="http://creativecommons.org/ns#"
   xmlns:rdf="http://www.w3.org/1999/02/22-rdf-syntax-ns#"
   xmlns:svg="http://www.w3.org/2000/svg"
   xmlns="http://www.w3.org/2000/svg"
   xmlns:sodipodi="http://sodipodi.sourceforge.net/DTD/sodipodi-0.dtd"
   xmlns:inkscape="http://www.inkscape.org/namespaces/inkscape"
   width="156.134mm"
   height="120.748mm"
   viewBox="0 0 553.229 427.849"
   id="svg3641"
   version="1.1"
   inkscape:version="0.91 r13725"
   sodipodi:docname="logo.white.svg">
  <defs
     id="defs3643" />
  <sodipodi:namedview
     id="base"
     pagecolor="#ffffff"
     bordercolor="#666666"
     borderopacity="1.0"
     inkscape:pageopacity="0.0"
     inkscape:pageshadow="2"
     inkscape:zoom="1"
     inkscape:cx="198.038"
     inkscape:cy="206.781"
     inkscape:document-units="px"
     inkscape:current-layer="layer1"
     showgrid="false"
     fit-margin-top="5"
     fit-margin-left="5"
     fit-margin-right="5"
     fit-margin-bottom="5"
     inkscape:window-width="1676"
     inkscape:window-height="1005"
     inkscape:window-x="0"
     inkscape:window-y="1"
     inkscape:window-maximized="1"
     inkscape:snap-page="true"
     inkscape:snap-bbox="true"
     inkscape:snap-grids="false"
     inkscape:snap-to-guides="false"
     inkscape:bbox-paths="true"
     inkscape:bbox-nodes="true" />
  <metadata
     id="metadata3646">
    <rdf:RDF>
      <cc:Work
         rdf:about="">
        <dc:format>image/svg+xml</dc:format>
        <dc:type
           rdf:resource="http://purl.org/dc/dcmitype/StillImage" />
        <dc:title></dc:title>
      </cc:Work>
    </rdf:RDF>
  </metadata>
  <g
     inkscape:label="Layer 1"
     inkscape:groupmode="layer"
     id="layer1"
     transform="translate(178.04,131.563)">
    <g
       transform="matrix(3.60088,0,0,3.60088,-1036.08,-887.319)"
       id="g3903"
       style="fill:#ffffff">
      <g
         id="text3490"
         style="font-variant:normal;font-weight:bold;font-stretch:normal;font-size:19.218958px;font-family:'Nanami Bold';-inkscape-font-specification:Nanami-Bold;writing-mode:lr-tb;fill:#ffffff;fill-opacity:1;fill-rule:nonzero;stroke:none">
        <path
           inkscape:connector-curvature="0"
           id="path3504"
           style="font-style:normal;font-variant:normal;font-weight:bold;font-stretch:normal;font-family:Nanami;-inkscape-font-specification:'Nanami Bold';fill:#ffffff"
           d="m 323.567,266.232 0,-14.376 8.108,0 0,3.096 -5.011,0 0,2.515 5.011,0 0,3.097 -5.011,0 0,5.668 -3.097,0 z" />
        <path
           inkscape:connector-curvature="0"
           id="path3506"
           style="font-style:normal;font-variant:normal;font-weight:bold;font-stretch:normal;font-family:Nanami;-inkscape-font-specification:'Nanami Bold';fill:#ffffff"
           d="m 345.798,266.232 -2.496,0 -1.652,-8.051 -2.055,8.051 -2.458,0 -3.867,-14.376 3.247,0 1.849,7.319 1.896,-7.319 2.468,0 1.839,7.301 1.849,-7.301 3.265,0 -3.885,14.376 z" />
      </g>
      <g
         style="fill:#ffffff"
         id="g5501">
        <g
           style="fill:#ffffff"
           id="g3389"
           transform="matrix(1.25,0,0,-1.25,290.72,261.961)">
          <path
             d="M 0,0 C 0.948,0 1.717,0.769 1.717,1.717 1.717,2.666 0.948,3.435 0,3.435 -0.948,3.435 -1.717,2.666 -1.717,1.717 -1.717,0.769 -0.948,0 0,0"
             style="fill:#ffffff;fill-opacity:1;fill-rule:nonzero;stroke:none"
             id="path3391"
             inkscape:connector-curvature="0" />
        </g>
        <g
           style="fill:#ffffff"
           id="g3393"
           transform="matrix(1.25,0,0,-1.25,282.192,261.961)">
          <path
             d="M 0,0 C 0.948,0 1.717,0.769 1.717,1.717 1.717,2.666 0.948,3.435 0,3.435 -0.948,3.435 -1.717,2.666 -1.717,1.717 -1.717,0.769 -0.948,0 0,0"
             style="fill:#ffffff;fill-opacity:1;fill-rule:nonzero;stroke:none"
             id="path3395"
             inkscape:connector-curvature="0" />
        </g>
        <g
           style="fill:#ffffff"
           id="g3397"
           transform="matrix(1.25,0,0,-1.25,299.249,261.961)">
          <path
             d="M 0,0 C 0.948,0 1.717,0.769 1.717,1.717 1.717,2.666 0.948,3.435 0,3.435 -0.949,3.435 -1.718,2.666 -1.718,1.717 -1.718,0.769 -0.949,0 0,0"
             style="fill:#ffffff;fill-opacity:1;fill-rule:nonzero;stroke:none"
             id="path3399"
             inkscape:connector-curvature="0" />
        </g>
        <g
           style="fill:#ffffff"
           id="g3401"
           transform="matrix(1.25,0,0,-1.25,307.777,261.961)">
          <path
             d="M 0,0 C 0.949,0 1.717,0.769 1.717,1.717 1.717,2.666 0.949,3.435 0,3.435 -0.949,3.435 -1.717,2.666 -1.717,1.717 -1.717,0.769 -0.949,0 0,0"
             style="fill:#ffffff;fill-opacity:1;fill-rule:nonzero;stroke:none"
             id="path3403"
             inkscape:connector-curvature="0" />
        </g>
        <g
           style="fill:#ffffff"
           id="g3405"
           transform="matrix(1.25,0,0,-1.25,290.72,247.413)">
          <path
             d="M 0,0 C 0.948,0 1.717,0.769 1.717,1.717 1.717,2.666 0.948,3.435 0,3.435 -0.948,3.435 -1.717,2.666 -1.717,1.717 -1.717,0.769 -0.948,0 0,0"
             style="fill:#ffffff;fill-opacity:1;fill-rule:nonzero;stroke:none"
             id="path3407"
             inkscape:connector-curvature="0" />
        </g>
        <g
           style="fill:#ffffff"
           id="g3409"
           transform="matrix(1.25,0,0,-1.25,282.192,247.413)">
          <path
             d="M 0,0 C 0.948,0 1.717,0.769 1.717,1.717 1.717,2.666 0.948,3.435 0,3.435 -0.948,3.435 -1.717,2.666 -1.717,1.717 -1.717,0.769 -0.948,0 0,0"
             style="fill:#ffffff;fill-opacity:1;fill-rule:nonzero;stroke:none"
             id="path3411"
             inkscape:connector-curvature="0" />
        </g>
        <g
           style="fill:#ffffff"
           id="g3413"
           transform="matrix(1.25,0,0,-1.25,299.249,247.413)">
          <path
             d="M 0,0 C 0.948,0 1.717,0.769 1.717,1.717 1.717,2.666 0.948,3.435 0,3.435 -0.949,3.435 -1.718,2.666 -1.718,1.717 -1.718,0.769 -0.949,0 0,0"
             style="fill:#ffffff;fill-opacity:1;fill-rule:nonzero;stroke:none"
             id="path3415"
             inkscape:connector-curvature="0" />
        </g>
        <g
           style="fill:#ffffff"
           id="g3417"
           transform="matrix(1.25,0,0,-1.25,307.777,247.413)">
          <path
             d="M 0,0 C 0.949,0 1.717,0.769 1.717,1.717 1.717,2.666 0.949,3.435 0,3.435 -0.949,3.435 -1.717,2.666 -1.717,1.717 -1.717,0.769 -0.949,0 0,0"
             style="fill:#ffffff;fill-opacity:1;fill-rule:nonzero;stroke:none"
             id="path3419"
             inkscape:connector-curvature="0" />
        </g>
        <g
           style="fill:#ffffff"
           id="g3421"
           transform="matrix(1.25,0,0,-1.25,273.221,247.413)">
          <path
             d="M 0,0 C 0.949,0 1.717,0.769 1.717,1.717 1.717,2.666 0.949,3.435 0,3.435 -0.949,3.435 -1.717,2.666 -1.717,1.717 -1.717,0.769 -0.949,0 0,0"
             style="fill:#ffffff;fill-opacity:1;fill-rule:nonzero;stroke:none"
             id="path3423"
             inkscape:connector-curvature="0" />
        </g>
        <g
           style="fill:#ffffff"
           id="g3425"
           transform="matrix(1.25,0,0,-1.25,294.985,254.706)">
          <path
             d="M 0,0 C 0.948,0 1.717,0.769 1.717,1.717 1.717,2.666 0.948,3.435 0,3.435 -0.949,3.435 -1.717,2.666 -1.717,1.717 -1.717,0.769 -0.949,0 0,0"
             style="fill:#ffffff;fill-opacity:1;fill-rule:nonzero;stroke:none"
             id="path3427"
             inkscape:connector-curvature="0" />
        </g>
        <g
           style="fill:#ffffff"
           id="g3429"
           transform="matrix(1.25,0,0,-1.25,286.235,254.706)">
          <path
             d="M 0,0 C 0.948,0 1.717,0.769 1.717,1.717 1.717,2.666 0.948,3.435 0,3.435 -0.948,3.435 -1.717,2.666 -1.717,1.717 -1.717,0.769 -0.948,0 0,0"
             style="fill:#ffffff;fill-opacity:1;fill-rule:nonzero;stroke:none"
             id="path3431"
             inkscape:connector-curvature="0" />
        </g>
        <g
           style="fill:#ffffff"
           id="g3433"
           transform="matrix(1.25,0,0,-1.25,303.735,254.706)">
          <path
             d="M 0,0 C 0.949,0 1.717,0.769 1.717,1.717 1.717,2.666 0.949,3.435 0,3.435 -0.949,3.435 -1.717,2.666 -1.717,1.717 -1.717,0.769 -0.949,0 0,0"
             style="fill:#ffffff;fill-opacity:1;fill-rule:nonzero;stroke:none"
             id="path3435"
             inkscape:connector-curvature="0" />
        </g>
        <g
           style="fill:#ffffff"
           id="g3437"
           transform="matrix(1.25,0,0,-1.25,277.485,254.706)">
          <path
             d="M 0,0 C 0.948,0 1.717,0.769 1.717,1.717 1.717,2.666 0.948,3.435 0,3.435 -0.948,3.435 -1.717,2.666 -1.717,1.717 -1.717,0.769 -0.948,0 0,0"
             style="fill:#ffffff;fill-opacity:1;fill-rule:nonzero;stroke:none"
             id="path3439"
             inkscape:connector-curvature="0" />
        </g>
        <g
           style="fill:#ffffff"
           id="g3441"
           transform="matrix(1.25,0,0,-1.25,290.72,276.474)">
          <path
             d="M 0,0 C 0.948,0 1.717,0.769 1.717,1.717 1.717,2.666 0.948,3.435 0,3.435 -0.948,3.435 -1.717,2.666 -1.717,1.717 -1.717,0.769 -0.948,0 0,0"
             style="fill:#ffffff;fill-opacity:1;fill-rule:nonzero;stroke:none"
             id="path3443"
             inkscape:connector-curvature="0" />
        </g>
        <g
           style="fill:#ffffff"
           id="g3445"
           transform="matrix(1.25,0,0,-1.25,282.192,276.474)">
          <path
             d="M 0,0 C 0.948,0 1.717,0.769 1.717,1.717 1.717,2.666 0.948,3.435 0,3.435 -0.948,3.435 -1.717,2.666 -1.717,1.717 -1.717,0.769 -0.948,0 0,0"
             style="fill:#ffffff;fill-opacity:1;fill-rule:nonzero;stroke:none"
             id="path3447"
             inkscape:connector-curvature="0" />
        </g>
        <g
           style="fill:#ffffff"
           id="g3449"
           transform="matrix(1.25,0,0,-1.25,299.249,272.18)">
          <path
             d="m 0,0 c -0.949,0 -1.718,-0.769 -1.718,-1.718 0,-0.948 0.769,-1.717 1.718,-1.717 0.948,0 1.717,0.769 1.717,1.717 C 1.717,-0.769 0.948,0 0,0"
             style="fill:#ffffff;fill-opacity:1;fill-rule:nonzero;stroke:none"
             id="path3451"
             inkscape:connector-curvature="0" />
        </g>
        <g
           style="fill:#ffffff"
           id="g3453"
           transform="matrix(1.25,0,0,-1.25,307.777,272.18)">
          <path
             d="m 0,0 c -0.949,0 -1.717,-0.769 -1.717,-1.718 0,-0.948 0.768,-1.717 1.717,-1.717 0.949,0 1.717,0.769 1.717,1.717 C 1.717,-0.769 0.949,0 0,0"
             style="fill:#ffffff;fill-opacity:1;fill-rule:nonzero;stroke:none"
             id="path3455"
             inkscape:connector-curvature="0" />
        </g>
        <g
           style="fill:#ffffff"
           id="g3457"
           transform="matrix(1.25,0,0,-1.25,297.131,267.071)">
          <path
             d="m 0,0 c 0,0.948 -0.769,1.717 -1.717,1.717 -0.949,0 -1.718,-0.769 -1.718,-1.717 0,-0.949 0.769,-1.718 1.718,-1.718 C -0.769,-1.718 0,-0.949 0,0"
             style="fill:#ffffff;fill-opacity:1;fill-rule:nonzero;stroke:none"
             id="path3459"
             inkscape:connector-curvature="0" />
        </g>
        <g
           style="fill:#ffffff"
           id="g3461"
           transform="matrix(1.25,0,0,-1.25,286.235,264.924)">
          <path
             d="m 0,0 c -0.948,0 -1.717,-0.769 -1.717,-1.717 0,-0.949 0.769,-1.718 1.717,-1.718 0.948,0 1.717,0.769 1.717,1.718 C 1.717,-0.769 0.948,0 0,0"
             style="fill:#ffffff;fill-opacity:1;fill-rule:nonzero;stroke:none"
             id="path3463"
             inkscape:connector-curvature="0" />
        </g>
        <g
           style="fill:#ffffff"
           id="g3465"
           transform="matrix(1.25,0,0,-1.25,303.735,269.218)">
          <path
             d="M 0,0 C 0.949,0 1.717,0.769 1.717,1.718 1.717,2.666 0.949,3.435 0,3.435 -0.949,3.435 -1.717,2.666 -1.717,1.718 -1.717,0.769 -0.949,0 0,0"
             style="fill:#ffffff;fill-opacity:1;fill-rule:nonzero;stroke:none"
             id="path3467"
             inkscape:connector-curvature="0" />
        </g>
        <g
           style="fill:#ffffff"
           id="g3469"
           transform="matrix(1.25,0,0,-1.25,277.485,269.218)">
          <path
             d="M 0,0 C 0.948,0 1.717,0.769 1.717,1.718 1.717,2.666 0.948,3.435 0,3.435 -0.948,3.435 -1.717,2.666 -1.717,1.718 -1.717,0.769 -0.948,0 0,0"
             style="fill:#ffffff;fill-opacity:1;fill-rule:nonzero;stroke:none"
             id="path3471"
             inkscape:connector-curvature="0" />
        </g>
        <g
           style="fill:#ffffff"
           id="g3473"
           transform="matrix(1.25,0,0,-1.25,290.72,290.985)">
          <path
             d="M 0,0 C 0.948,0 1.717,0.769 1.717,1.718 1.717,2.666 0.948,3.435 0,3.435 -0.948,3.435 -1.717,2.666 -1.717,1.718 -1.717,0.769 -0.948,0 0,0"
             style="fill:#ffffff;fill-opacity:1;fill-rule:nonzero;stroke:none"
             id="path3475"
             inkscape:connector-curvature="0" />
        </g>
        <g
           style="fill:#ffffff"
           id="g3477"
           transform="matrix(1.25,0,0,-1.25,282.192,290.985)">
          <path
             d="M 0,0 C 0.948,0 1.717,0.769 1.717,1.718 1.717,2.666 0.948,3.435 0,3.435 -0.948,3.435 -1.717,2.666 -1.717,1.718 -1.717,0.769 -0.948,0 0,0"
             style="fill:#ffffff;fill-opacity:1;fill-rule:nonzero;stroke:none"
             id="path3479"
             inkscape:connector-curvature="0" />
        </g>
        <g
           style="fill:#ffffff"
           id="g3481"
           transform="matrix(1.25,0,0,-1.25,299.249,286.691)">
          <path
             d="m 0,0 c -0.949,0 -1.718,-0.769 -1.718,-1.717 0,-0.949 0.769,-1.718 1.718,-1.718 0.948,0 1.717,0.769 1.717,1.718 C 1.717,-0.769 0.948,0 0,0"
             style="fill:#ffffff;fill-opacity:1;fill-rule:nonzero;stroke:none"
             id="path3483"
             inkscape:connector-curvature="0" />
        </g>
        <g
           style="fill:#ffffff"
           id="g3485"
           transform="matrix(1.25,0,0,-1.25,307.777,286.691)">
          <path
             d="m 0,0 c -0.949,0 -1.717,-0.769 -1.717,-1.717 0,-0.949 0.768,-1.718 1.717,-1.718 0.949,0 1.717,0.769 1.717,1.718 C 1.717,-0.769 0.949,0 0,0"
             style="fill:#ffffff;fill-opacity:1;fill-rule:nonzero;stroke:none"
             id="path3487"
             inkscape:connector-curvature="0" />
        </g>
        <g
           style="fill:#ffffff"
           id="g3489"
           transform="matrix(1.25,0,0,-1.25,294.985,283.729)">
          <path
             d="M 0,0 C 0.948,0 1.717,0.769 1.717,1.717 1.717,2.666 0.948,3.435 0,3.435 -0.949,3.435 -1.717,2.666 -1.717,1.717 -1.717,0.769 -0.949,0 0,0"
             style="fill:#ffffff;fill-opacity:1;fill-rule:nonzero;stroke:none"
             id="path3491"
             inkscape:connector-curvature="0" />
        </g>
        <g
           style="fill:#ffffff"
           id="g3493"
           transform="matrix(1.25,0,0,-1.25,286.235,279.436)">
          <path
             d="m 0,0 c -0.948,0 -1.717,-0.769 -1.717,-1.717 0,-0.949 0.769,-1.718 1.717,-1.718 0.948,0 1.717,0.769 1.717,1.718 C 1.717,-0.769 0.948,0 0,0"
             style="fill:#ffffff;fill-opacity:1;fill-rule:nonzero;stroke:none"
             id="path3495"
             inkscape:connector-curvature="0" />
        </g>
        <g
           style="fill:#ffffff"
           id="g3497"
           transform="matrix(1.25,0,0,-1.25,303.735,283.729)">
          <path
             d="M 0,0 C 0.949,0 1.717,0.769 1.717,1.717 1.717,2.666 0.949,3.435 0,3.435 -0.949,3.435 -1.717,2.666 -1.717,1.717 -1.717,0.769 -0.949,0 0,0"
             style="fill:#ffffff;fill-opacity:1;fill-rule:nonzero;stroke:none"
             id="path3499"
             inkscape:connector-curvature="0" />
        </g>
        <g
           style="fill:#ffffff"
           id="g3501"
           transform="matrix(1.25,0,0,-1.25,277.485,283.729)">
          <path
             d="M 0,0 C 0.948,0 1.717,0.769 1.717,1.717 1.717,2.666 0.948,3.435 0,3.435 -0.948,3.435 -1.717,2.666 -1.717,1.717 -1.717,0.769 -0.948,0 0,0"
             style="fill:#ffffff;fill-opacity:1;fill-rule:nonzero;stroke:none"
             id="path3503"
             inkscape:connector-curvature="0" />
        </g>
        <g
           style="fill:#ffffff"
           id="g3505"
           transform="matrix(1.25,0,0,-1.25,290.72,305.496)">
          <path
             d="M 0,0 C 0.948,0 1.717,0.769 1.717,1.717 1.717,2.666 0.948,3.435 0,3.435 -0.948,3.435 -1.717,2.666 -1.717,1.717 -1.717,0.769 -0.948,0 0,0"
             style="fill:#ffffff;fill-opacity:1;fill-rule:nonzero;stroke:none"
             id="path3507"
             inkscape:connector-curvature="0" />
        </g>
        <g
           style="fill:#ffffff"
           id="g3509"
           transform="matrix(1.25,0,0,-1.25,299.249,301.203)">
          <path
             d="m 0,0 c -0.949,0 -1.718,-0.769 -1.718,-1.717 0,-0.949 0.769,-1.718 1.718,-1.718 0.948,0 1.717,0.769 1.717,1.718 C 1.717,-0.769 0.948,0 0,0"
             style="fill:#ffffff;fill-opacity:1;fill-rule:nonzero;stroke:none"
             id="path3511"
             inkscape:connector-curvature="0" />
        </g>
        <g
           style="fill:#ffffff"
           id="g3513"
           transform="matrix(1.25,0,0,-1.25,307.777,301.203)">
          <path
             d="m 0,0 c -0.949,0 -1.717,-0.769 -1.717,-1.717 0,-0.949 0.768,-1.718 1.717,-1.718 0.949,0 1.717,0.769 1.717,1.718 C 1.717,-0.769 0.949,0 0,0"
             style="fill:#ffffff;fill-opacity:1;fill-rule:nonzero;stroke:none"
             id="path3515"
             inkscape:connector-curvature="0" />
        </g>
        <g
           style="fill:#ffffff"
           id="g3517"
           transform="matrix(1.25,0,0,-1.25,294.985,293.948)">
          <path
             d="m 0,0 c -0.949,0 -1.717,-0.769 -1.717,-1.718 0,-0.948 0.768,-1.717 1.717,-1.717 0.948,0 1.717,0.769 1.717,1.717 C 1.717,-0.769 0.948,0 0,0"
             style="fill:#ffffff;fill-opacity:1;fill-rule:nonzero;stroke:none"
             id="path3519"
             inkscape:connector-curvature="0" />
        </g>
        <g
           style="fill:#ffffff"
           id="g3521"
           transform="matrix(1.25,0,0,-1.25,286.235,293.948)">
          <path
             d="m 0,0 c -0.948,0 -1.717,-0.769 -1.717,-1.718 0,-0.948 0.769,-1.717 1.717,-1.717 0.948,0 1.717,0.769 1.717,1.717 C 1.717,-0.769 0.948,0 0,0"
             style="fill:#ffffff;fill-opacity:1;fill-rule:nonzero;stroke:none"
             id="path3523"
             inkscape:connector-curvature="0" />
        </g>
        <g
           style="fill:#ffffff"
           id="g3525"
           transform="matrix(1.25,0,0,-1.25,303.735,298.241)">
          <path
             d="M 0,0 C 0.949,0 1.717,0.769 1.717,1.717 1.717,2.666 0.949,3.435 0,3.435 -0.949,3.435 -1.717,2.666 -1.717,1.717 -1.717,0.769 -0.949,0 0,0"
             style="fill:#ffffff;fill-opacity:1;fill-rule:nonzero;stroke:none"
             id="path3527"
             inkscape:connector-curvature="0" />
        </g>
        <g
           style="fill:#ffffff"
           id="g3529"
           transform="matrix(1.25,0,0,-1.25,303.735,312.753)">
          <path
             d="M 0,0 C 0.949,0 1.717,0.769 1.717,1.718 1.717,2.666 0.949,3.435 0,3.435 -0.949,3.435 -1.717,2.666 -1.717,1.718 -1.717,0.769 -0.949,0 0,0"
             style="fill:#ffffff;fill-opacity:1;fill-rule:nonzero;stroke:none"
             id="path3531"
             inkscape:connector-curvature="0" />
        </g>
        <g
           style="fill:#ffffff"
           id="g3533"
           transform="matrix(1.25,0,0,-1.25,273.406,261.945)">
          <path
             d="M 0,0 C 0.883,0.071 1.581,0.802 1.581,1.704 1.581,2.605 0.883,3.336 0,3.407 l 0,14.072 30.958,0 0,-62.668 c -2.562,0.724 -7.085,2.283 -11.901,5.229 0.22,0.288 0.358,0.641 0.358,1.031 0,0.949 -0.769,1.718 -1.717,1.718 -0.636,0 -1.174,-0.356 -1.471,-0.869 -7.11,5.128 -14.126,13.463 -15.827,26.741 0.472,0.306 0.791,0.829 0.791,1.433 0,0.725 -0.449,1.341 -1.084,1.594 C 0.041,-7.263 0,-6.192 0,-5.086 L 0,0 Z m 65.452,17.479 0,-22.565 c 0,-2.95 -0.257,-5.678 -0.702,-8.226 l -30.256,0 0,30.791 30.958,0 z m -4.035,-37.015 c 0,1.137 0.197,1.987 0.463,2.671 0,0.01 0,0.01 0.01,0.016 l 2.097,0 c -0.537,-2.019 -1.202,-3.906 -1.976,-5.663 -0.329,0.734 -0.592,1.664 -0.592,2.976 m -1.949,-7.753 c -1.547,-2.455 -3.303,-4.598 -5.166,-6.467 -0.089,0.457 -0.147,0.967 -0.147,1.563 0,2.096 0.669,3.219 1.208,4.12 0.425,0.712 0.682,1.142 0.682,2.211 0,1.068 -0.257,1.498 -0.682,2.209 -0.538,0.901 -1.208,2.023 -1.208,4.117 0,1.115 0.189,1.954 0.447,2.631 0.01,0.021 0.018,0.036 0.026,0.056 l 3.679,0 c -0.27,-0.687 -0.471,-1.54 -0.471,-2.687 0,-2.094 0.67,-3.216 1.208,-4.117 0.425,-0.711 0.682,-1.141 0.682,-2.209 0,-0.639 -0.093,-1.048 -0.258,-1.427 m -7.686,-0.784 c -0.539,-0.901 -1.208,-2.024 -1.208,-4.12 0,-1.98 0.596,-3.089 1.116,-3.966 -0.833,-0.699 -1.675,-1.354 -2.519,-1.961 -0.054,-0.039 -0.114,-0.069 -0.161,-0.117 -0.082,-0.059 -0.164,-0.111 -0.246,-0.169 -0.02,0.979 -0.27,1.408 -0.679,2.092 -0.538,0.901 -1.207,2.025 -1.207,4.121 0,2.096 0.669,3.219 1.208,4.12 0.425,0.712 0.682,1.142 0.682,2.211 0,1.068 -0.257,1.498 -0.682,2.209 -0.538,0.901 -1.208,2.023 -1.208,4.117 0,1.147 0.201,2 0.471,2.687 l 3.695,0 c -10e-4,0 0,0 0,0 -0.268,-0.686 -0.467,-1.539 -0.467,-2.682 0,-2.094 0.67,-3.216 1.208,-4.117 0.425,-0.711 0.682,-1.141 0.682,-2.209 0,-1.069 -0.257,-1.499 -0.682,-2.211 m -7.278,-8.241 c 0.426,-0.713 0.683,-1.143 0.683,-2.215 0,-1.07 -0.257,-1.501 -0.682,-2.213 -0.086,-0.145 -0.176,-0.299 -0.266,-0.458 -1.552,-0.839 -3.041,-1.538 -4.413,-2.112 0.225,1.154 0.675,1.922 1.062,2.57 0.426,0.712 0.682,1.143 0.682,2.213 0,1.072 -0.256,1.502 -0.682,2.215 -0.538,0.901 -1.208,2.025 -1.208,4.121 0,2.096 0.67,3.219 1.208,4.12 0.426,0.712 0.682,1.142 0.682,2.211 0,1.068 -0.256,1.498 -0.681,2.209 -0.539,0.901 -1.209,2.023 -1.209,4.117 0,1.147 0.201,2 0.471,2.687 l 3.616,0 c -0.27,-0.686 -0.47,-1.541 -0.47,-2.687 0,-2.094 0.67,-3.216 1.208,-4.117 0.425,-0.711 0.682,-1.141 0.682,-2.209 0,-1.069 -0.257,-1.499 -0.682,-2.211 -0.539,-0.901 -1.208,-2.024 -1.208,-4.12 0,-2.096 0.669,-3.22 1.207,-4.121 m -7.197,0 c 0.426,-0.713 0.682,-1.143 0.682,-2.215 0,-1.07 -0.256,-1.501 -0.682,-2.213 -0.523,-0.877 -1.166,-1.97 -1.201,-3.957 -0.599,-0.195 -1.137,-0.356 -1.612,-0.49 l 0,28.34 2.078,0 c -0.271,-0.687 -0.473,-1.539 -0.473,-2.687 0,-2.094 0.67,-3.216 1.209,-4.117 0.425,-0.711 0.681,-1.141 0.681,-2.209 0,-1.069 -0.256,-1.499 -0.682,-2.211 -0.538,-0.901 -1.208,-2.024 -1.208,-4.12 0,-2.096 0.67,-3.22 1.208,-4.121 M -3.747,-5.086 c 0,-36.844 35.753,-44.24 36.114,-44.31 l 0.359,-0.071 0.359,0.071 c 0.361,0.07 36.114,7.466 36.114,44.31 l 0,26.312 -72.946,0 0,-26.312 z"
             style="fill:#ffffff;fill-opacity:1;fill-rule:nonzero;stroke:none"
             id="path3535"
             inkscape:connector-curvature="0" />
        </g>
        <g
           style="fill:#ffffff"
           id="g3537"
           transform="matrix(1.25,0,0,-1.25,381.277,292.064)">
          <path
             d="M 0,0 C 0.021,-0.009 0.033,-0.015 0.034,-0.018 L 0.001,0.048 C 0.004,0.042 0.003,0.025 0,0"
             style="fill:#ffffff;fill-opacity:1;fill-rule:nonzero;stroke:none"
             id="path3539"
             inkscape:connector-curvature="0" />
        </g>
        <g
           style="fill:#ffffff"
           id="g3541"
           transform="matrix(1.25,0,0,-1.25,375.645,292.125)">
          <path
             d="m 0,0 c -0.904,-0.46 -1.548,-1.232 -1.982,-1.948 0.071,0.834 0.003,1.837 -0.458,2.741 -0.953,1.869 -3.292,2.614 -3.617,2.686 -0.175,-0.327 -0.894,-2.631 0.058,-4.5 0.788,-1.546 2.52,-2.321 3.281,-2.584 l 0.026,-0.05 c -0.003,0.005 -0.003,0.021 0,0.041 0.058,-0.02 0.109,-0.037 0.153,-0.05 0.044,-0.016 0.095,-0.032 0.154,-0.05 -0.01,-0.018 -0.019,-0.03 -0.024,-0.033 l 0.05,0.025 c 0.77,-0.234 2.627,-0.625 4.173,0.163 1.869,0.953 2.641,3.24 2.691,3.607 C 4.2,0.181 1.869,0.953 0,0"
             style="fill:#ffffff;fill-opacity:1;fill-rule:nonzero;stroke:none"
             id="path3543"
             inkscape:connector-curvature="0" />
        </g>
        <g
           style="fill:#ffffff"
           id="g3545"
           transform="matrix(1.25,0,0,-1.25,379.477,278.74)">
          <path
             d="m 0,0 c -0.855,-0.545 -1.423,-1.374 -1.786,-2.129 -0.01,0.837 -0.174,1.829 -0.719,2.684 -1.127,1.77 -3.526,2.288 -3.857,2.328 -0.143,-0.342 -0.639,-2.704 0.489,-4.474 0.932,-1.463 2.73,-2.069 3.513,-2.258 l 0.03,-0.047 c -0.003,0.005 -0.004,0.02 -0.004,0.041 0.059,-0.014 0.112,-0.026 0.157,-0.035 0.046,-0.011 0.098,-0.023 0.158,-0.035 -0.008,-0.019 -0.015,-0.032 -0.02,-0.036 l 0.047,0.03 c 0.79,-0.159 2.675,-0.37 4.138,0.562 1.77,1.127 2.319,3.478 2.334,3.848 C 4.163,0.583 1.77,1.127 0,0"
             style="fill:#ffffff;fill-opacity:1;fill-rule:nonzero;stroke:none"
             id="path3547"
             inkscape:connector-curvature="0" />
        </g>
        <g
           style="fill:#ffffff"
           id="g3549"
           transform="matrix(1.25,0,0,-1.25,385.079,278.141)">
          <path
             d="m 0,0 c 0.022,-0.007 0.034,-0.012 0.036,-0.014 l -0.04,0.062 C 0,0.042 0.001,0.025 0,0"
             style="fill:#ffffff;fill-opacity:1;fill-rule:nonzero;stroke:none"
             id="path3551"
             inkscape:connector-curvature="0" />
        </g>
        <g
           style="fill:#ffffff"
           id="g3553"
           transform="matrix(1.25,0,0,-1.25,368.026,287.769)">
          <path
             d="M 0,0 C 0.002,0.001 0.016,-0.001 0.038,-0.006 0.05,0.017 0.06,0.03 0.066,0.033 L 0,0 Z"
             style="fill:#ffffff;fill-opacity:1;fill-rule:nonzero;stroke:none"
             id="path3555"
             inkscape:connector-curvature="0" />
        </g>
        <g
           style="fill:#ffffff"
           id="g3557"
           transform="matrix(1.25,0,0,-1.25,371.477,275.134)">
          <path
             d="M 0,0 C 0.002,0.001 0.016,0.001 0.038,-0.002 0.048,0.021 0.056,0.036 0.062,0.04 L 0,0 Z"
             style="fill:#ffffff;fill-opacity:1;fill-rule:nonzero;stroke:none"
             id="path3559"
             inkscape:connector-curvature="0" />
        </g>
        <g
           style="fill:#ffffff"
           id="g3561"
           transform="matrix(1.25,0,0,-1.25,381.453,266.166)">
          <path
             d="m 0,0 c -0.793,-0.632 -1.269,-1.518 -1.55,-2.306 -0.098,0.831 -0.367,1.8 -0.999,2.592 -1.309,1.64 -3.75,1.9 -4.083,1.906 -0.106,-0.356 -0.348,-2.757 0.961,-4.397 1.082,-1.356 2.934,-1.768 3.733,-1.873 l 0.034,-0.043 c -0.003,0.004 -0.006,0.02 -0.008,0.04 0.061,-0.008 0.115,-0.014 0.161,-0.018 0.047,-0.007 0.1,-0.013 0.16,-0.018 -0.006,-0.02 -0.012,-0.034 -0.016,-0.038 l 0.043,0.035 c 0.803,-0.074 2.699,-0.084 4.056,0.998 1.639,1.309 1.936,3.704 1.912,4.074 C 4.078,1.021 1.64,1.309 0,0"
             style="fill:#ffffff;fill-opacity:1;fill-rule:nonzero;stroke:none"
             id="path3563"
             inkscape:connector-curvature="0" />
        </g>
        <g
           style="fill:#ffffff"
           id="g3565"
           transform="matrix(1.25,0,0,-1.25,386.946,264.918)">
          <path
             d="m 0,0 c 0.004,-0.005 0.007,-0.022 0.009,-0.047 0.022,-0.005 0.035,-0.008 0.037,-0.01 L 0,0 Z"
             style="fill:#ffffff;fill-opacity:1;fill-rule:nonzero;stroke:none"
             id="path3567"
             inkscape:connector-curvature="0" />
        </g>
        <g
           style="fill:#ffffff"
           id="g3569"
           transform="matrix(1.25,0,0,-1.25,373.114,263.43)">
          <path
             d="m 0,0 c 0.002,0.002 0.016,0.002 0.038,0.002 0.008,0.024 0.014,0.04 0.02,0.044 L 0,0 Z"
             style="fill:#ffffff;fill-opacity:1;fill-rule:nonzero;stroke:none"
             id="path3571"
             inkscape:connector-curvature="0" />
        </g>
        <g
           style="fill:#ffffff"
           id="g3573"
           transform="matrix(1.25,0,0,-1.25,386.586,250.575)">
          <path
             d="M 0,0 C 0.005,-0.005 0.01,-0.021 0.014,-0.046 0.037,-0.048 0.05,-0.05 0.052,-0.052 L 0,0 Z"
             style="fill:#ffffff;fill-opacity:1;fill-rule:nonzero;stroke:none"
             id="path3575"
             inkscape:connector-curvature="0" />
        </g>
        <g
           style="fill:#ffffff"
           id="g3577"
           transform="matrix(1.25,0,0,-1.25,374.529,255.96)">
          <path
             d="m 0,0 c 1.227,-1.227 3.113,-1.429 3.919,-1.444 l 0.039,-0.04 c -0.004,0.005 -0.008,0.019 -0.012,0.039 0.061,0 0.114,-10e-4 0.161,0 0.047,-10e-4 0.1,0 0.162,0 C 4.265,-1.465 4.26,-1.479 4.256,-1.484 l 0.04,0.04 C 5.101,-1.429 6.987,-1.227 8.214,0 9.698,1.484 9.725,3.897 9.66,4.262 9.328,4.294 6.874,4.308 5.39,2.825 4.673,2.108 4.298,1.175 4.107,0.359 3.916,1.175 3.542,2.108 2.825,2.825 1.341,4.308 -1.114,4.294 -1.446,4.262 -1.511,3.897 -1.484,1.484 0,0"
             style="fill:#ffffff;fill-opacity:1;fill-rule:nonzero;stroke:none"
             id="path3579"
             inkscape:connector-curvature="0" />
        </g>
        <g
           style="fill:#ffffff"
           id="g3581"
           transform="matrix(1.25,0,0,-1.25,372.739,250.575)">
          <path
             d="m 0,0 -0.052,-0.052 c 0.002,0.002 0.015,0.004 0.038,0.006 C -0.01,-0.021 -0.005,-0.005 0,0"
             style="fill:#ffffff;fill-opacity:1;fill-rule:nonzero;stroke:none"
             id="path3583"
             inkscape:connector-curvature="0" />
        </g>
        <g
           style="fill:#ffffff"
           id="g3585"
           transform="matrix(1.25,0,0,-1.25,248.89,292.086)">
          <path
             d="M 0,0 C 0.001,0.002 0.013,0.009 0.034,0.018 0.031,0.043 0.03,0.06 0.033,0.066 L 0,0 Z"
             style="fill:#ffffff;fill-opacity:1;fill-rule:nonzero;stroke:none"
             id="path3587"
             inkscape:connector-curvature="0" />
        </g>
        <g
           style="fill:#ffffff"
           id="g3589"
           transform="matrix(1.25,0,0,-1.25,245.087,278.159)">
          <path
             d="m 0,0 c 0.002,0.002 0.014,0.007 0.036,0.014 -10e-4,0.026 0,0.042 0.004,0.048 L 0,0 Z"
             style="fill:#ffffff;fill-opacity:1;fill-rule:nonzero;stroke:none"
             id="path3591"
             inkscape:connector-curvature="0" />
        </g>
        <g
           style="fill:#ffffff"
           id="g3593"
           transform="matrix(1.25,0,0,-1.25,253.222,283.654)">
          <path
             d="M 0,0 0.047,-0.03 C 0.042,-0.027 0.035,-0.013 0.026,0.005 0.086,0.018 0.139,0.029 0.184,0.04 0.23,0.05 0.282,0.061 0.342,0.075 0.342,0.055 0.341,0.04 0.338,0.035 l 0.03,0.047 C 1.151,0.271 2.949,0.877 3.881,2.34 5.008,4.11 4.513,6.472 4.37,6.814 4.039,6.773 1.639,6.256 0.512,4.486 -0.033,3.631 -0.197,2.639 -0.206,1.802 -0.569,2.556 -1.137,3.386 -1.992,3.931 -3.762,5.058 -6.155,4.513 -6.473,4.41 -6.457,4.04 -5.908,1.689 -4.138,0.562 -2.675,-0.37 -0.79,-0.159 0,0"
             style="fill:#ffffff;fill-opacity:1;fill-rule:nonzero;stroke:none"
             id="path3595"
             inkscape:connector-curvature="0" />
        </g>
        <g
           style="fill:#ffffff"
           id="g3597"
           transform="matrix(1.25,0,0,-1.25,262.101,287.728)">
          <path
             d="m 0,0 c 0.006,-0.003 0.016,-0.017 0.028,-0.039 0.022,0.005 0.035,0.007 0.038,0.006 L 0,0 Z"
             style="fill:#ffffff;fill-opacity:1;fill-rule:nonzero;stroke:none"
             id="path3599"
             inkscape:connector-curvature="0" />
        </g>
        <g
           style="fill:#ffffff"
           id="g3601"
           transform="matrix(1.25,0,0,-1.25,257.614,291.134)">
          <path
             d="m 0,0 c -0.46,-0.903 -0.529,-1.906 -0.458,-2.741 -0.434,0.717 -1.079,1.488 -1.982,1.948 -1.869,0.953 -4.2,0.182 -4.505,0.049 0.05,-0.368 0.822,-2.654 2.691,-3.607 1.546,-0.788 3.403,-0.398 4.174,-0.163 l 0.049,-0.026 c -0.005,0.003 -0.014,0.016 -0.024,0.034 0.059,0.017 0.11,0.034 0.154,0.049 0.044,0.014 0.095,0.03 0.153,0.05 0.003,-0.02 0.003,-0.035 0.001,-0.041 l 0.025,0.05 c 0.761,0.264 2.493,1.038 3.281,2.584 0.953,1.87 0.233,4.173 0.058,4.501 C 3.291,2.614 0.953,1.869 0,0"
             style="fill:#ffffff;fill-opacity:1;fill-rule:nonzero;stroke:none"
             id="path3603"
             inkscape:connector-curvature="0" />
        </g>
        <g
           style="fill:#ffffff"
           id="g3605"
           transform="matrix(1.25,0,0,-1.25,258.655,275.084)">
          <path
             d="m 0,0 c 0.006,-0.004 0.014,-0.018 0.024,-0.042 0.022,0.003 0.036,0.004 0.038,0.002 L 0,0 Z"
             style="fill:#ffffff;fill-opacity:1;fill-rule:nonzero;stroke:none"
             id="path3607"
             inkscape:connector-curvature="0" />
        </g>
        <g
           style="fill:#ffffff"
           id="g3609"
           transform="matrix(1.25,0,0,-1.25,243.206,264.989)">
          <path
             d="M 0,0 C 0.002,0.002 0.015,0.006 0.037,0.01 0.039,0.036 0.042,0.052 0.046,0.057 L 0,0 Z"
             style="fill:#ffffff;fill-opacity:1;fill-rule:nonzero;stroke:none"
             id="path3611"
             inkscape:connector-curvature="0" />
        </g>
        <g
           style="fill:#ffffff"
           id="g3613"
           transform="matrix(1.25,0,0,-1.25,250.711,271.316)">
          <path
             d="M 0,0 0.044,-0.035 C 0.039,-0.031 0.033,-0.017 0.027,0.003 0.087,0.008 0.141,0.014 0.187,0.02 0.233,0.025 0.287,0.031 0.348,0.038 0.346,0.019 0.344,0.003 0.34,-0.002 L 0.375,0.042 C 1.173,0.147 3.025,0.558 4.108,1.915 5.416,3.555 5.174,5.956 5.069,6.312 4.735,6.306 2.294,6.046 0.986,4.406 0.353,3.614 0.085,2.645 -0.014,1.813 -0.295,2.602 -0.771,3.487 -1.564,4.12 -3.204,5.429 -5.641,5.141 -5.968,5.072 -5.992,4.702 -5.695,2.307 -4.055,0.998 -2.699,-0.084 -0.802,-0.075 0,0"
             style="fill:#ffffff;fill-opacity:1;fill-rule:nonzero;stroke:none"
             id="path3615"
             inkscape:connector-curvature="0" />
        </g>
        <g
           style="fill:#ffffff"
           id="g3617"
           transform="matrix(1.25,0,0,-1.25,257.024,263.371)">
          <path
             d="m 0,0 c 0.005,-0.004 0.012,-0.02 0.019,-0.044 0.023,0 0.036,0 0.039,-0.002 L 0,0 Z"
             style="fill:#ffffff;fill-opacity:1;fill-rule:nonzero;stroke:none"
             id="path3619"
             inkscape:connector-curvature="0" />
        </g>
        <g
           style="fill:#ffffff"
           id="g3621"
           transform="matrix(1.25,0,0,-1.25,243.624,250.575)">
          <path
             d="m 0,0 -0.052,-0.052 c 0.002,0.002 0.015,0.004 0.038,0.006 C -0.01,-0.021 -0.005,-0.005 0,0"
             style="fill:#ffffff;fill-opacity:1;fill-rule:nonzero;stroke:none"
             id="path3623"
             inkscape:connector-curvature="0" />
        </g>
        <g
           style="fill:#ffffff"
           id="g3625"
           transform="matrix(1.25,0,0,-1.25,245.414,255.96)">
          <path
             d="m 0,0 c 1.227,-1.227 3.113,-1.429 3.919,-1.444 l 0.039,-0.04 c -0.004,0.005 -0.008,0.019 -0.012,0.039 0.061,0 0.114,-10e-4 0.161,0 0.047,-10e-4 0.1,0 0.162,0 C 4.264,-1.465 4.26,-1.479 4.256,-1.484 l 0.04,0.04 C 5.101,-1.429 6.987,-1.227 8.214,0 9.698,1.484 9.725,3.897 9.66,4.262 9.328,4.294 6.873,4.308 5.39,2.825 4.673,2.108 4.298,1.175 4.107,0.359 3.916,1.175 3.541,2.108 2.824,2.825 1.341,4.308 -1.114,4.294 -1.446,4.262 -1.511,3.897 -1.484,1.484 0,0"
             style="fill:#ffffff;fill-opacity:1;fill-rule:nonzero;stroke:none"
             id="path3627"
             inkscape:connector-curvature="0" />
        </g>
        <g
           style="fill:#ffffff"
           id="g3629"
           transform="matrix(1.25,0,0,-1.25,257.471,250.575)">
          <path
             d="M 0,0 C 0.005,-0.005 0.01,-0.021 0.014,-0.046 0.037,-0.048 0.05,-0.05 0.052,-0.052 L 0,0 Z"
             style="fill:#ffffff;fill-opacity:1;fill-rule:nonzero;stroke:none"
             id="path3631"
             inkscape:connector-curvature="0" />
        </g>
        <g
           style="fill:#ffffff"
           id="g3633"
           transform="matrix(1.25,0,0,-1.25,316.208,224.985)">
          <path
             d="M 0,0 0,4.645 C 3.887,4.692 16.209,3.766 23.064,0 L 0,0 Z M 30.159,0.074 C 19.014,8.001 -0.958,8.182 -1.847,8.144 l -1.689,-0.076 0,-8.068 -34.44,0 0,-3.537 72.345,0 c -1.694,1.956 -4.21,3.611 -4.21,3.611"
             style="fill:#ffffff;fill-opacity:1;fill-rule:nonzero;stroke:none"
             id="path3635"
             inkscape:connector-curvature="0" />
        </g>
      </g>
    </g>
  </g>
</svg>
