<svg xmlns="http://www.w3.org/2000/svg" height="60" width="540"><g style="-inkscape-font-specification:Nanami-Bold" font-weight="700" font-size="61.013" font-family="Nanami" fill="#fff"><path style="-inkscape-font-specification:'Nanami Bold'" d="M1.644 58.525V1.475h32.175v12.288H13.933v9.98h19.886v12.29H13.933v22.492H1.644zM76.769.878q11.842 0 20.37 8.49 8.528 8.529 8.528 20.632 0 12.102-8.528 20.63-8.528 8.49-20.63 8.49-12.104 0-20.632-8.49-8.49-8.528-8.49-20.63 0-12.066 8.49-20.631Q64.331.879 76.77.879zm-.373 12.29q-6.814 0-11.767 4.915-4.953 4.953-4.953 11.88 0 6.889 4.953 11.842 4.99 4.952 11.916 4.952 6.927 0 11.842-4.915Q93.303 36.926 93.303 30q0-7.001-4.953-11.954-4.804-4.879-11.954-4.879zM149.138.878q11.843 0 20.37 8.49 8.528 8.529 8.528 20.632 0 12.102-8.528 20.63-8.527 8.49-20.631 8.49-12.103 0-20.63-8.49-8.49-8.528-8.49-20.63 0-12.066 8.49-20.631 8.452-8.49 20.891-8.49zm-.372 12.29q-6.815 0-11.768 4.915-4.952 4.953-4.952 11.88 0 6.889 4.952 11.842 4.99 4.952 11.916 4.952 6.927 0 11.843-4.915 4.915-4.916 4.915-11.842 0-7.001-4.953-11.954-4.803-4.879-11.953-4.879zM193.977 58.525V1.475h18.992q11.88 0 20.295 8.415 8.38 8.38 8.38 20.11 0 11.73-8.38 20.109-8.416 8.416-20.294 8.416h-18.993zm12.289-12.289h6.703q7.224 0 11.842-4.58 4.543-4.544 4.543-11.694 0-7.299-4.506-11.805-4.431-4.394-11.395-4.394h-7.187v32.473zM301.936 58.525h-9.905l-6.555-31.951-8.155 31.951h-9.757l-15.342-57.05h12.884l7.336 29.046 7.522-29.047h9.795l7.3 28.972 7.335-28.972h12.96l-15.418 57.051zM357.46.878q11.842 0 20.37 8.49 8.528 8.529 8.528 20.632 0 12.102-8.529 20.63-8.527 8.49-20.63 8.49-12.102 0-20.63-8.49-8.49-8.528-8.49-20.63 0-12.066 8.49-20.631 8.453-8.49 20.89-8.49zm-.373 12.29q-6.814 0-11.768 4.915-4.952 4.953-4.952 11.88 0 6.889 4.953 11.842 4.99 4.952 11.917 4.952 6.926 0 11.841-4.915 4.917-4.916 4.917-11.842 0-7.001-4.953-11.954-4.805-4.879-11.955-4.879zM428.927 58.525l-12.81-22.27h-1.528v22.27h-12.363V1.475h18.695q7.447 0 12.475 5.064 5.139 5.139 5.139 12.996 0 10.204-9.162 15.343l13.593 23.647h-14.039zm-14.338-33.553h6.332q2.681 0 4.134-1.973 1.116-1.527 1.116-3.65 0-2.57-1.601-4.17-1.415-1.416-3.65-1.416h-6.33v11.21zM455.508 58.525V1.475h12.289v22.082l13.816-22.083h14.04l-17.466 28.6 17.764 28.451h-14.412l-13.742-24.466v24.466h-12.289zM504.73 46.087l9.906-4.282q2.83 5.064 6.777 5.064 1.936 0 3.24-1.303 1.415-1.378 1.415-3.65 0-3.277-2.607-4.915-1.08-.67-4.469-1.862-13.965-4.953-13.965-17.13 0-7.597 4.692-12.327 4.618-4.655 11.954-4.655 6.331 0 10.949 4.097 2.644 2.383 4.208 6.405l-10.986 5.288q-1.936-3.426-4.43-3.426-1.9 0-3.203 1.75-.894 1.266-.894 2.719 0 3.388 6.33 5.809l1.006.372q13.704 5.288 13.704 17.689 0 7.671-4.99 12.661-4.766 4.73-11.47 4.73h-.633q-8.826 0-13.816-7.336-1.75-2.57-2.719-5.698z"/></g></svg>