<?xml version="1.0" encoding="UTF-8" standalone="no"?>
<svg
   xmlns:dc="http://purl.org/dc/elements/1.1/"
   xmlns:cc="http://creativecommons.org/ns#"
   xmlns:rdf="http://www.w3.org/1999/02/22-rdf-syntax-ns#"
   xmlns:svg="http://www.w3.org/2000/svg"
   xmlns="http://www.w3.org/2000/svg"
   viewBox="0 0 540 60"
   height="60"
   width="540"
   xml:space="preserve"
   version="1.1"
   id="svg4136"><metadata
     id="metadata4142"><rdf:RDF><cc:Work
         rdf:about=""><dc:format>image/svg+xml</dc:format><dc:type
           rdf:resource="http://purl.org/dc/dcmitype/StillImage" /><dc:title></dc:title></cc:Work></rdf:RDF></metadata><defs
     id="defs4140" /><g
     transform="matrix(1.25,0,0,-1.25,-348.993,381.97)"
     id="g4144"><g
       id="text4148"
       style="font-variant:normal;font-weight:bold;font-stretch:normal;font-size:61.013199px;font-family:'Nanami Bold';-inkscape-font-specification:Nanami-Bold;writing-mode:lr-tb;fill:#ffffff;fill-opacity:1;fill-rule:nonzero;stroke:none"
       transform="matrix(1,0,0,-1,277.59,258.756)"><path
         id="path4413"
         style="font-style:normal;font-variant:normal;font-weight:bold;font-stretch:normal;font-family:Nanami;-inkscape-font-specification:'Nanami Bold'"
         d="m 2.91958,0 0,-45.6407 25.73992,0 0,9.8312 -15.9087,0 0,7.9841 15.9087,0 0,9.8313 -15.9087,0 0,17.9941 -9.83122,0 z" /><path
         id="path4415"
         style="font-style:normal;font-variant:normal;font-weight:bold;font-stretch:normal;font-family:Nanami;-inkscape-font-specification:'Nanami Bold'"
         d="m 63.0194,-46.1174 q 9.4738,0 16.296,6.7925 6.8223,6.8223 6.8223,16.5045 0,9.6823 -6.8223,16.50458 -6.8222,6.792486 -16.5045,6.792486 -9.6823,0 -16.5046,-6.792486 -6.7924,-6.82228 -6.7924,-16.50458 0,-9.6524 6.7924,-16.5045 6.7627,-6.7925 16.7131,-6.7925 z m -0.2979,9.8312 q -5.4518,0 -9.4141,3.9325 -3.9623,3.9623 -3.9623,9.5035 0,5.5115 3.9623,9.4738 3.992,3.96225 9.5333,3.96225 5.5412,0 9.4737,-3.93245 3.9325,-3.9325 3.9325,-9.4738 0,-5.6008 -3.9623,-9.5631 -3.8431,-3.9027 -9.5631,-3.9027 z" /><path
         id="path4417"
         style="font-style:normal;font-variant:normal;font-weight:bold;font-stretch:normal;font-family:Nanami;-inkscape-font-specification:'Nanami Bold'"
         d="m 120.915,-46.1174 q 9.474,0 16.296,6.7925 6.822,6.8223 6.822,16.5045 0,9.6823 -6.822,16.50458 -6.822,6.792486 -16.505,6.792486 -9.682,0 -16.504,-6.792486 -6.7927,-6.82228 -6.7927,-16.50458 0,-9.6524 6.7927,-16.5045 6.762,-6.7925 16.713,-6.7925 z m -0.298,9.8312 q -5.452,0 -9.414,3.9325 -3.962,3.9623 -3.962,9.5035 0,5.5115 3.962,9.4738 3.992,3.96225 9.533,3.96225 5.541,0 9.474,-3.93245 3.932,-3.9325 3.932,-9.4738 0,-5.6008 -3.962,-9.5631 -3.843,-3.9027 -9.563,-3.9027 z" /><path
         id="path4419"
         style="font-style:normal;font-variant:normal;font-weight:bold;font-stretch:normal;font-family:Nanami;-inkscape-font-specification:'Nanami Bold'"
         d="m 156.786,0 0,-45.6407 15.194,0 q 9.503,0 16.236,6.7329 6.703,6.7031 6.703,16.0874 0,9.3844 -6.703,16.0875 Q 181.483,0 171.98,0 l -15.194,0 z m 9.831,-9.83123 5.363,0 q 5.779,0 9.473,-3.66437 3.635,-3.6346 3.635,-9.3546 0,-5.8391 -3.605,-9.4439 -3.545,-3.5154 -9.116,-3.5154 l -5.75,0 0,25.97827 z" /><path
         id="path4421"
         style="font-style:normal;font-variant:normal;font-weight:bold;font-stretch:normal;font-family:Nanami;-inkscape-font-specification:'Nanami Bold'"
         d="M 243.153,0 235.229,0 229.985,-25.5612 223.461,0 l -7.805,0 -12.274,-45.6407 10.307,0 5.869,23.2374 6.018,-23.2374 7.836,0 5.839,23.1778 5.869,-23.1778 10.367,0 L 243.153,0 Z" /><path
         id="path4423"
         style="font-style:normal;font-variant:normal;font-weight:bold;font-stretch:normal;font-family:Nanami;-inkscape-font-specification:'Nanami Bold'"
         d="m 287.572,-46.1174 q 9.474,0 16.296,6.7925 6.823,6.8223 6.823,16.5045 0,9.6823 -6.823,16.50458 -6.822,6.792486 -16.504,6.792486 -9.682,0 -16.505,-6.792486 -6.792,-6.82228 -6.792,-16.50458 0,-9.6524 6.792,-16.5045 6.763,-6.7925 16.713,-6.7925 z m -0.298,9.8312 q -5.451,0 -9.414,3.9325 -3.962,3.9623 -3.962,9.5035 0,5.5115 3.962,9.4738 3.992,3.96225 9.534,3.96225 5.541,0 9.473,-3.93245 3.933,-3.9325 3.933,-9.4738 0,-5.6008 -3.962,-9.5631 -3.844,-3.9027 -9.564,-3.9027 z" /><path
         id="path4425"
         style="font-style:normal;font-variant:normal;font-weight:bold;font-stretch:normal;font-family:Nanami;-inkscape-font-specification:'Nanami Bold'"
         d="m 344.746,0 -10.248,-17.8154 -1.222,0 0,17.8154 -9.891,0 0,-45.6407 14.956,0 q 5.958,0 9.98,4.0516 4.111,4.1113 4.111,10.3973 0,8.1629 -7.329,12.2741 L 355.977,0 344.746,0 Z m -11.47,-26.8422 5.065,0 q 2.145,0 3.307,-1.579 0.893,-1.2214 0.893,-2.9196 0,-2.0556 -1.281,-3.3366 -1.132,-1.1321 -2.919,-1.1321 l -5.065,0 0,8.9673 z" /><path
         id="path4427"
         style="font-style:normal;font-variant:normal;font-weight:bold;font-stretch:normal;font-family:Nanami;-inkscape-font-specification:'Nanami Bold'"
         d="m 366.011,0 0,-45.6407 9.831,0 0,17.6664 11.053,-17.6664 11.232,0 -13.973,22.8799 L 398.365,0 386.836,0 375.842,-19.5731 375.842,0 366.011,0 Z" /><path
         id="path4429"
         style="font-style:normal;font-variant:normal;font-weight:bold;font-stretch:normal;font-family:Nanami;-inkscape-font-specification:'Nanami Bold'"
         d="m 405.388,-9.95039 7.925,-3.42601 q 2.264,4.05163 5.422,4.05163 1.549,0 2.592,-1.04273 1.132,-1.1023 1.132,-2.9196 0,-2.6216 -2.086,-3.9324 -0.864,-0.5363 -3.575,-1.4896 -11.172,-3.9623 -11.172,-13.7042 0,-6.0774 3.754,-9.861 3.694,-3.7239 9.563,-3.7239 5.065,0 8.759,3.277 2.115,1.9067 3.366,5.1242 l -8.788,4.2304 q -1.549,-2.7408 -3.545,-2.7408 -1.52,0 -2.562,1.4002 -0.715,1.0129 -0.715,2.1748 0,2.711 5.064,4.6475 l 0.805,0.2979 q 10.963,4.2304 10.963,14.151 0,6.13706 -3.992,10.12913 -3.813,3.783536 -9.176,3.783536 l -0.506,0 q -7.061,0 -11.053,-5.868946 -1.4,-2.05562 -2.175,-4.55811 z" /></g></g></svg>